<?xml version="1.0" encoding="UTF-8" standalone="no"?>
<svg
   xmlns:dc="http://purl.org/dc/elements/1.1/"
   xmlns:cc="http://creativecommons.org/ns#"
   xmlns:rdf="http://www.w3.org/1999/02/22-rdf-syntax-ns#"
   xmlns:svg="http://www.w3.org/2000/svg"
   xmlns="http://www.w3.org/2000/svg"
   xmlns:sodipodi="http://sodipodi.sourceforge.net/DTD/sodipodi-0.dtd"
   xmlns:inkscape="http://www.inkscape.org/namespaces/inkscape"
   width="1200"
   height="600"
   version="1.1"
   id="svg2"
   inkscape:version="0.48.4 r9939"
   sodipodi:docname="biomass-and-biogas-s.svg">
  <defs
     id="defs17" />
  <sodipodi:namedview
     pagecolor="#ffffff"
     bordercolor="#666666"
     borderopacity="1"
     objecttolerance="10"
     gridtolerance="10"
     guidetolerance="10"
     inkscape:pageopacity="0"
     inkscape:pageshadow="2"
     inkscape:window-width="1680"
     inkscape:window-height="995"
     id="namedview15"
     showgrid="false"
     inkscape:zoom="0.59"
     inkscape:cx="451.95416"
     inkscape:cy="162.87218"
     inkscape:window-x="0"
     inkscape:window-y="30"
     inkscape:window-maximized="1"
     inkscape:current-layer="layer1" />
  <metadata
     id="metadata7">
    <rdf:RDF>
      <cc:Work
         rdf:about="">
        <dc:format>image/svg+xml</dc:format>
        <dc:type
           rdf:resource="http://purl.org/dc/dcmitype/StillImage" />
        <dc:title></dc:title>
      </cc:Work>
    </rdf:RDF>
  </metadata>
  <g
     inkscape:label="Layer 1"
     inkscape:groupmode="layer"
     id="layer1"
     transform="translate(-151.9805,261.76824)">
    <g
       style="fill:#00d400"
       id="g4042"
       transform="matrix(3.2507952,0,0,3.2507952,-1336.8003,-382.57312)">
      <g
         style="opacity:0.8"
         transform="matrix(2.8303356,0,0,2.8303356,693.57306,-21.96385)"
         id="g3996">
        <path
           id="path4036"
           d="m -25.999563,54.973546 -4.515999,-1.373 c 1.494,-1.597 3.106999,-3.174 4.823999,-4.699 l 16.5000005,3.031 -14.2600005,-4.929 c 2.004,-1.62 4.143001,-3.141 6.418001,-4.514 l 16.2229999,4.069 -13.4709999,-5.625 c 5.9019995,-3.092 12.6289999,-5.12 20.1760002,-5.181 -0.488,3.385 -2.133,11.718 -6.9940003,18.465 h 4.0490003 c 5.598,-8.734 6.453,-18.93 6.5,-19.553 0.002,-0.031 -0.016,-0.061 -0.02,-0.09 0.221,-0.598 -0.113,-1.292 -0.869,-1.638 -25.9710002,-11.919 -39.5700002,-5.561 -45.3670002,-0.708 -8.896,7.448 -10.443,19.917 -5.834,25.678 0.115,0.142 0.254,0.267 0.41,0.369 0.561,0.365 1.332,0.455 1.932,0.186 0.771,-0.349 0.971,-1.159 0.451,-1.813 -3.432,-4.288 -2.588,-15.612 5.604,-22.468 5.867,-4.909 16.904,-8.798 36.6680002,-0.963 -6.7730003,0.484 -12.8590012,2.364 -18.2640002,5.089 l 0.271,-6.786 -3.689,8.658 c -2.395001,1.434 -4.641001,3.016 -6.736001,4.702 l -1.051,-11.127 -2.069999,13.439 c -0.012,0.081 -0.016,0.172 -0.008,0.258 0.002,0.034 0.025,0.063 0.033,0.097 -1.318,1.198 -2.57,2.423 -3.75,3.664 l -2.148,-8.316 -0.361,11.066 c -8.293,9.563 -12.578,18.971 -12.938,19.782 -0.244,0.545 0.025,1.178 0.613,1.56 0.131,0.088 0.281,0.162 0.443,0.218 0.885,0.312 1.84,0.02 2.139,-0.653 0.088,-0.194 4.406,-9.686 12.771,-19.27 l 4.962999,0.574 v -0.919 l 1.358,-0.28 z"
           inkscape:connector-curvature="0" />
      </g>
      <text
         style="font-size:105.70459747px;line-height:125%;letter-spacing:0;word-spacing:0;font-family:Sans"
         font-size="105.7046"
         letter-spacing="0"
         line-height="125%"
         word-spacing="0"
         sodipodi:linespacing="125%"
         id="text4038"
         y="205.41818"
         x="547.53198">
        <tspan
           y="205.41818"
           x="547.53198"
           id="tspan4040"
           sodipodi:role="line">BIO</tspan>
      </text>
    </g>
  </g>
</svg>
