<?xml version="1.0" encoding="UTF-8" standalone="no"?>
<svg
   xmlns:dc="http://purl.org/dc/elements/1.1/"
   xmlns:cc="http://creativecommons.org/ns#"
   xmlns:rdf="http://www.w3.org/1999/02/22-rdf-syntax-ns#"
   xmlns:svg="http://www.w3.org/2000/svg"
   xmlns="http://www.w3.org/2000/svg"
   xmlns:sodipodi="http://sodipodi.sourceforge.net/DTD/sodipodi-0.dtd"
   xmlns:inkscape="http://www.inkscape.org/namespaces/inkscape"
   width="1200"
   height="600"
   version="1.1"
   id="svg2"
   inkscape:version="0.48.4 r9939"
   sodipodi:docname="heat-and-power-s.svg">
  <defs
     id="defs20" />
  <sodipodi:namedview
     pagecolor="#ffffff"
     bordercolor="#666666"
     borderopacity="1"
     objecttolerance="10"
     gridtolerance="10"
     guidetolerance="10"
     inkscape:pageopacity="0"
     inkscape:pageshadow="2"
     inkscape:window-width="1680"
     inkscape:window-height="995"
     id="namedview18"
     showgrid="false"
     inkscape:zoom="0.2085965"
     inkscape:cx="-1727.4195"
     inkscape:cy="-578.12908"
     inkscape:window-x="0"
     inkscape:window-y="30"
     inkscape:window-maximized="1"
     inkscape:current-layer="layer1" />
  <metadata
     id="metadata7">
    <rdf:RDF>
      <cc:Work
         rdf:about="">
        <dc:format>image/svg+xml</dc:format>
        <dc:type
           rdf:resource="http://purl.org/dc/dcmitype/StillImage" />
        <dc:title></dc:title>
      </cc:Work>
    </rdf:RDF>
  </metadata>
  <g
     inkscape:label="Layer 1"
     inkscape:groupmode="layer"
     id="layer1"
     transform="translate(-151.9805,261.76824)">
    <g
       style="fill:#ffff00"
       id="g4102"
       transform="matrix(0.9475556,0,0,0.9475556,383.27619,-251.72025)">
      <path
         id="path4086"
         d="m 312.213,436.136 54.693,94.019 v -90.069 c -71.336,-0.44 -128.84,-58.58 -128.84,-130.012 0,-71.432 57.911,-129.572 129.247,-130.012 V 81.845 l -53.617,97.107 -101.602,-27.224 27.129,101.257 -96.065,55.462 96.476,55.702 -26.393,98.513 98.972,-26.526 z"
         inkscape:connector-curvature="0" />
      <path
         id="path4088"
         d="M 367.312,420.96 V 199.187 c -60.789,0.44 -110.122,49.993 -110.122,110.887 0,60.894 49.334,110.447 110.122,110.886 z"
         inkscape:connector-curvature="0" />
      <path
         id="path4090"
         d="m 434.25,559.406 c 0,7.918 6.426,14.344 14.344,14.344 h 133.875 c 7.918,0 14.344,-6.426 14.344,-14.344 V 545.062 H 434.25 v 14.344 z"
         inkscape:connector-curvature="0" />
      <path
         id="path4092"
         d="m 491.625,86.062 h 47.812 37.743 c 0.325,-1.492 0.507,-3.031 0.507,-4.609 V 81.1 c 0,-13.101 -11.59,-23.725 -25.895,-23.725 H 539.437 V 38.25 h -47.812 v 19.125 h -13.254 c -14.296,0 -24.996,10.624 -24.996,23.725 v 0.354 c 0,1.578 0.172,3.117 0.469,4.609 h 37.781 z"
         inkscape:connector-curvature="0" />
      <path
         id="path4094"
         d="m 608.201,105.188 h -1.826 -54.583 -73.421 -55.51 c -12.278,0 -25.149,4.733 -31.795,13.55 -2.821,3.729 -4.628,8.119 -4.628,13.311 v 49.419 9.658 9.668 218.58 9.668 9.658 50.834 c 0,1.654 0.316,3.328 0.641,4.992 3.089,15.883 19.966,31.413 35.783,31.413 h 12.269 160.803 12.269 c 17.48,0 26.861,-18.943 26.861,-36.424 V 132.049 c -0.002,-17.481 -9.382,-26.861 -26.863,-26.861 z m -76.289,172.124 h 38.164 l -11.838,15.195 -54.296,69.73 -6.742,8.654 -14.133,18.14 L 506.581,306 h -8.606 -9.562 -9.562 -27.425 l 22.587,-29.003 6.933,-8.903 6.875,-8.836 18.494,-23.753 32.111,-41.234 -21.126,74.607 -2.381,8.434 h 16.993 z"
         inkscape:connector-curvature="0" />
    </g>
  </g>
</svg>
