<?xml version="1.0" encoding="UTF-8" standalone="no"?>
<svg
   xmlns:dc="http://purl.org/dc/elements/1.1/"
   xmlns:cc="http://creativecommons.org/ns#"
   xmlns:rdf="http://www.w3.org/1999/02/22-rdf-syntax-ns#"
   xmlns:svg="http://www.w3.org/2000/svg"
   xmlns="http://www.w3.org/2000/svg"
   xmlns:sodipodi="http://sodipodi.sourceforge.net/DTD/sodipodi-0.dtd"
   xmlns:inkscape="http://www.inkscape.org/namespaces/inkscape"
   width="1200"
   height="600"
   version="1.1"
   id="svg2"
   inkscape:version="0.48.4 r9939"
   sodipodi:docname="solar-solution-s.svg">
  <defs
     id="defs44" />
  <sodipodi:namedview
     pagecolor="#ffffff"
     bordercolor="#666666"
     borderopacity="1"
     objecttolerance="10"
     gridtolerance="10"
     guidetolerance="10"
     inkscape:pageopacity="0"
     inkscape:pageshadow="2"
     inkscape:window-width="1680"
     inkscape:window-height="995"
     id="namedview42"
     showgrid="false"
     inkscape:zoom="0.417193"
     inkscape:cx="70.421346"
     inkscape:cy="251.95221"
     inkscape:window-x="0"
     inkscape:window-y="30"
     inkscape:window-maximized="1"
     inkscape:current-layer="layer1" />
  <metadata
     id="metadata7">
    <rdf:RDF>
      <cc:Work
         rdf:about="">
        <dc:format>image/svg+xml</dc:format>
        <dc:type
           rdf:resource="http://purl.org/dc/dcmitype/StillImage" />
        <dc:title></dc:title>
      </cc:Work>
    </rdf:RDF>
  </metadata>
  <g
     inkscape:label="Layer 1"
     inkscape:groupmode="layer"
     id="layer1"
     transform="translate(-151.9805,261.76824)">
    <g
       id="g3890"
       transform="matrix(2.9953499,0,0,2.9953499,-233.95903,-465.34652)">
      <g
         transform="matrix(0.50402597,0,0,0.50402597,-216.44157,81.257826)"
         id="g3838">
        <path
           style="fill:#000055;stroke:#000000"
           d="m 953.9805,337.34858 257,1 -13,-151 -236,1 z"
           id="path3019"
           inkscape:connector-curvature="0" />
        <path
           style="fill:none;stroke:#000000"
           d="m 803.5,299.79172 252.75,-0.25"
           id="path3023"
           inkscape:connector-curvature="0"
           transform="translate(151.9805,6.8068557)"
           sodipodi:nodetypes="cc" />
        <path
           style="fill:none;stroke:#000000"
           d="m 804.75,270.79172 248.5,-2.25"
           id="path3025"
           inkscape:connector-curvature="0"
           transform="translate(151.9805,6.8068557)"
           sodipodi:nodetypes="cc" />
        <path
           style="fill:none;stroke:#000000"
           d="m 807,241.79172 244.25,-2.25"
           id="path3027"
           inkscape:connector-curvature="0"
           transform="translate(151.9805,6.8068557)"
           sodipodi:nodetypes="cc" />
        <path
           style="fill:none;stroke:#000000"
           d="m 808.25,210.54172 240,-2"
           id="path3029"
           inkscape:connector-curvature="0"
           transform="translate(151.9805,6.8068557)"
           sodipodi:nodetypes="cc" />
        <path
           style="fill:none;stroke:#000000"
           inkscape:connector-curvature="0"
           id="path3033"
           d="m 1011.4418,338.30741 5.5774,-150.91766" />
        <path
           style="fill:none;stroke:#000000"
           d="m 1152.1018,338.25962 -7.7426,-150.82208"
           id="path3035"
           inkscape:connector-curvature="0" />
        <path
           style="stroke:#000000;stroke-width:4"
           sodipodi:type="arc"
           id="path3037"
           sodipodi:cx="950.25"
           sodipodi:cy="135.79172"
           sodipodi:rx="2.75"
           sodipodi:ry="2.75"
           d="m 953,135.79172 c 0,1.51878 -1.23122,2.75 -2.75,2.75 -1.51878,0 -2.75,-1.23122 -2.75,-2.75 0,-1.51879 1.23122,-2.75 2.75,-2.75 1.51878,0 2.75,1.23121 2.75,2.75 z"
           transform="matrix(1.2631579,0,0,1.2631579,-183.8353,44.822198)" />
        <path
           style="stroke:#000000;stroke-width:4"
           transform="matrix(1.2631579,0,0,1.2631579,-185.3353,75.322198)"
           d="m 953,135.79172 c 0,1.51878 -1.23122,2.75 -2.75,2.75 -1.51878,0 -2.75,-1.23122 -2.75,-2.75 0,-1.51879 1.23122,-2.75 2.75,-2.75 1.51878,0 2.75,1.23121 2.75,2.75 z"
           sodipodi:ry="2.75"
           sodipodi:rx="2.75"
           sodipodi:cy="135.79172"
           sodipodi:cx="950.25"
           id="path3807"
           sodipodi:type="arc" />
        <path
           style="stroke:#000000;stroke-width:4"
           sodipodi:type="arc"
           id="path3809"
           sodipodi:cx="950.25"
           sodipodi:cy="135.79172"
           sodipodi:rx="2.75"
           sodipodi:ry="2.75"
           d="m 953,135.79172 c 0,1.51878 -1.23122,2.75 -2.75,2.75 -1.51878,0 -2.75,-1.23122 -2.75,-2.75 0,-1.51879 1.23122,-2.75 2.75,-2.75 1.51878,0 2.75,1.23121 2.75,2.75 z"
           transform="matrix(1.2631579,0,0,1.2631579,-186.8353,104.8222)" />
        <path
           style="stroke:#000000;stroke-width:4"
           transform="matrix(1.2631579,0,0,1.2631579,-187.8353,135.3222)"
           d="m 953,135.79172 c 0,1.51878 -1.23122,2.75 -2.75,2.75 -1.51878,0 -2.75,-1.23122 -2.75,-2.75 0,-1.51879 1.23122,-2.75 2.75,-2.75 1.51878,0 2.75,1.23121 2.75,2.75 z"
           sodipodi:ry="2.75"
           sodipodi:rx="2.75"
           sodipodi:cy="135.79172"
           sodipodi:cx="950.25"
           id="path3811"
           sodipodi:type="arc" />
        <path
           style="stroke:#000000;stroke-width:4"
           transform="matrix(1.2631579,0,0,1.2631579,-49.3353,135.3222)"
           d="m 953,135.79172 c 0,1.51878 -1.23122,2.75 -2.75,2.75 -1.51878,0 -2.75,-1.23122 -2.75,-2.75 0,-1.51879 1.23122,-2.75 2.75,-2.75 1.51878,0 2.75,1.23121 2.75,2.75 z"
           sodipodi:ry="2.75"
           sodipodi:rx="2.75"
           sodipodi:cy="135.79172"
           sodipodi:cx="950.25"
           id="path3815"
           sodipodi:type="arc" />
        <path
           style="stroke:#000000;stroke-width:4"
           sodipodi:type="arc"
           id="path3817"
           sodipodi:cx="950.25"
           sodipodi:cy="135.79172"
           sodipodi:rx="2.75"
           sodipodi:ry="2.75"
           d="m 953,135.79172 c 0,1.51878 -1.23122,2.75 -2.75,2.75 -1.51878,0 -2.75,-1.23122 -2.75,-2.75 0,-1.51879 1.23122,-2.75 2.75,-2.75 1.51878,0 2.75,1.23121 2.75,2.75 z"
           transform="matrix(1.2631579,0,0,1.2631579,-51.3353,103.8222)" />
        <g
           id="g3831"
           transform="translate(6.5,0.5)">
          <path
             style="fill:none;stroke:#000000"
             inkscape:connector-curvature="0"
             id="path3031"
             d="m 1078.4805,338.34858 -2.5,-151" />
          <path
             style="stroke:#000000;stroke-width:4"
             transform="matrix(1.2631579,0,0,1.2631579,-121.8353,134.8222)"
             d="m 953,135.79172 c 0,1.51878 -1.23122,2.75 -2.75,2.75 -1.51878,0 -2.75,-1.23122 -2.75,-2.75 0,-1.51879 1.23122,-2.75 2.75,-2.75 1.51878,0 2.75,1.23121 2.75,2.75 z"
             sodipodi:ry="2.75"
             sodipodi:rx="2.75"
             sodipodi:cy="135.79172"
             sodipodi:cx="950.25"
             id="path3813"
             sodipodi:type="arc" />
          <path
             style="stroke:#000000;stroke-width:4"
             sodipodi:type="arc"
             id="path3819"
             sodipodi:cx="950.25"
             sodipodi:cy="135.79172"
             sodipodi:rx="2.75"
             sodipodi:ry="2.75"
             d="m 953,135.79172 c 0,1.51878 -1.23122,2.75 -2.75,2.75 -1.51878,0 -2.75,-1.23122 -2.75,-2.75 0,-1.51879 1.23122,-2.75 2.75,-2.75 1.51878,0 2.75,1.23121 2.75,2.75 z"
             transform="matrix(1.2631579,0,0,1.2631579,-122.8353,105.3222)" />
          <path
             style="stroke:#000000;stroke-width:4"
             transform="matrix(1.2631579,0,0,1.2631579,-123.3353,76.3222)"
             d="m 953,135.79172 c 0,1.51878 -1.23122,2.75 -2.75,2.75 -1.51878,0 -2.75,-1.23122 -2.75,-2.75 0,-1.51879 1.23122,-2.75 2.75,-2.75 1.51878,0 2.75,1.23121 2.75,2.75 z"
             sodipodi:ry="2.75"
             sodipodi:rx="2.75"
             sodipodi:cy="135.79172"
             sodipodi:cx="950.25"
             id="path3821"
             sodipodi:type="arc" />
          <path
             style="stroke:#000000;stroke-width:4"
             sodipodi:type="arc"
             id="path3823"
             sodipodi:cx="950.25"
             sodipodi:cy="135.79172"
             sodipodi:rx="2.75"
             sodipodi:ry="2.75"
             d="m 953,135.79172 c 0,1.51878 -1.23122,2.75 -2.75,2.75 -1.51878,0 -2.75,-1.23122 -2.75,-2.75 0,-1.51879 1.23122,-2.75 2.75,-2.75 1.51878,0 2.75,1.23121 2.75,2.75 z"
             transform="matrix(1.2631579,0,0,1.2631579,-123.8353,45.8222)" />
        </g>
        <path
           style="stroke:#000000;stroke-width:4"
           sodipodi:type="arc"
           id="path3825"
           sodipodi:cx="950.25"
           sodipodi:cy="135.79172"
           sodipodi:rx="2.75"
           sodipodi:ry="2.75"
           d="m 953,135.79172 c 0,1.51878 -1.23122,2.75 -2.75,2.75 -1.51878,0 -2.75,-1.23122 -2.75,-2.75 0,-1.51879 1.23122,-2.75 2.75,-2.75 1.51878,0 2.75,1.23121 2.75,2.75 z"
           transform="matrix(1.2631579,0,0,1.2631579,-53.8353,45.3222)" />
        <path
           style="stroke:#000000;stroke-width:4"
           transform="matrix(1.2631579,0,0,1.2631579,-51.8353,74.3222)"
           d="m 953,135.79172 c 0,1.51878 -1.23122,2.75 -2.75,2.75 -1.51878,0 -2.75,-1.23122 -2.75,-2.75 0,-1.51879 1.23122,-2.75 2.75,-2.75 1.51878,0 2.75,1.23121 2.75,2.75 z"
           sodipodi:ry="2.75"
           sodipodi:rx="2.75"
           sodipodi:cy="135.79172"
           sodipodi:cx="950.25"
           id="path3827"
           sodipodi:type="arc" />
      </g>
      <g
         transform="matrix(1.0759309,0,0,1.0759309,-13.575918,-12.460157)"
         id="g3879">
        <path
           style="fill:#ffcc00"
           sodipodi:type="arc"
           id="path3861"
           sodipodi:cx="747"
           sodipodi:cy="158.54172"
           sodipodi:rx="53"
           sodipodi:ry="53"
           d="m 800,158.54172 c 0,29.27109 -23.72891,53 -53,53 -29.27109,0 -53,-23.72891 -53,-53 0,-29.27109 23.72891,-53 53,-53 29.27109,0 53,23.72891 53,53 z"
           transform="matrix(0.5,0,0,0.5,-54.0195,47.577715)" />
        <path
           style="fill:none;stroke:#000000"
           d="m 167.5,148.54172 -0.25,8.25"
           id="path3863"
           inkscape:connector-curvature="0"
           transform="translate(151.9805,6.8068557)" />
        <path
           style="fill:none;stroke:#000000"
           d="m 169.25,91.791717 0,-8.5 0,0"
           id="path3865"
           inkscape:connector-curvature="0"
           transform="translate(151.9805,6.8068557)" />
        <path
           style="fill:none;stroke:#000000"
           d="m 195.75,121.79172 8.25,0"
           id="path3867"
           inkscape:connector-curvature="0"
           transform="translate(151.9805,6.8068557)" />
        <path
           style="fill:none;stroke:#000000"
           d="m 138.5,120.54172 -8.75,0.5"
           id="path3869"
           inkscape:connector-curvature="0"
           transform="translate(151.9805,6.8068557)" />
        <path
           style="fill:none;stroke:#000000"
           d="m 146.5,100.79172 -5.75,-4.750003"
           id="path3871"
           inkscape:connector-curvature="0"
           transform="translate(151.9805,6.8068557)" />
        <path
           style="fill:none;stroke:#000000"
           d="m 341.4805,109.84858 7.5,-5.75"
           id="path3873"
           inkscape:connector-curvature="0" />
        <path
           style="fill:none;stroke:#000000;stroke-width:1.17130601"
           d="m 339.06615,148.43423 6.3287,6.82869"
           id="path3875"
           inkscape:connector-curvature="0" />
        <path
           style="fill:none;stroke:#000000"
           d="m 146.5,140.29172 -6.75,7.25"
           id="path3877"
           inkscape:connector-curvature="0"
           transform="translate(151.9805,6.8068557)" />
      </g>
    </g>
  </g>
</svg>
