<?xml version="1.0" encoding="UTF-8" standalone="no"?>
<svg
   xmlns:dc="http://purl.org/dc/elements/1.1/"
   xmlns:cc="http://creativecommons.org/ns#"
   xmlns:rdf="http://www.w3.org/1999/02/22-rdf-syntax-ns#"
   xmlns:svg="http://www.w3.org/2000/svg"
   xmlns="http://www.w3.org/2000/svg"
   xmlns:sodipodi="http://sodipodi.sourceforge.net/DTD/sodipodi-0.dtd"
   xmlns:inkscape="http://www.inkscape.org/namespaces/inkscape"
   width="1200"
   height="600"
   version="1.1"
   id="svg2"
   inkscape:version="0.48.4 r9939"
   sodipodi:docname="geothermal-energy-s.svg">
  <defs
     id="defs22" />
  <sodipodi:namedview
     pagecolor="#ffffff"
     bordercolor="#666666"
     borderopacity="1"
     objecttolerance="10"
     gridtolerance="10"
     guidetolerance="10"
     inkscape:pageopacity="0"
     inkscape:pageshadow="2"
     inkscape:window-width="1680"
     inkscape:window-height="995"
     id="namedview20"
     showgrid="false"
     inkscape:zoom="0.295"
     inkscape:cx="-515.32089"
     inkscape:cy="101.12664"
     inkscape:window-x="0"
     inkscape:window-y="30"
     inkscape:window-maximized="1"
     inkscape:current-layer="layer1" />
  <metadata
     id="metadata7">
    <rdf:RDF>
      <cc:Work
         rdf:about="">
        <dc:format>image/svg+xml</dc:format>
        <dc:type
           rdf:resource="http://purl.org/dc/dcmitype/StillImage" />
        <dc:title></dc:title>
      </cc:Work>
    </rdf:RDF>
  </metadata>
  <g
     inkscape:label="Layer 1"
     inkscape:groupmode="layer"
     id="layer1"
     transform="translate(-151.9805,261.76843)">
    <g
       id="g4053"
       transform="matrix(1.3119434,0,0,1.3119434,-95.396648,-77.262445)">
      <path
         style="fill:#ff0000"
         transform="translate(151.9805,6.8068557)"
         d="m 554.37172,210.2729 c 0,33.38983 -27.0678,60.45763 -60.45763,60.45763 -33.38982,0 -60.45763,-27.0678 -60.45763,-60.45763 0,-33.38982 27.06781,-60.45763 60.45763,-60.45763 33.38983,0 60.45763,27.06781 60.45763,60.45763 z"
         sodipodi:ry="60.45763"
         sodipodi:rx="60.45763"
         sodipodi:cy="210.2729"
         sodipodi:cx="493.91409"
         id="path4031"
         sodipodi:type="arc" />
      <path
         style="fill:#f9f9f9"
         sodipodi:nodetypes="sssss"
         inkscape:connector-curvature="0"
         id="path4037"
         d="m 458.06131,210.73975 c 3.73331,50.71375 69.24261,59.99078 35.85278,59.99078 -33.38982,0 -60.45763,-27.0678 -60.45763,-60.45763 0,-33.38982 27.06781,-60.45763 60.45763,-60.45763 33.38983,0 -39.20561,15.37921 -35.85278,60.92448 z"
         transform="matrix(0.50292398,0,0,0.75730994,372.0375,58.721882)" />
      <g
         style="fill:#e6e6e6"
         id="g4047"
         transform="matrix(1,0,0,0.87935657,2.1213203,-32.139479)">
        <rect
           transform="translate(151.9805,6.8068557)"
           y="-85.651283"
           x="468.10468"
           height="263.75082"
           width="48.790367"
           id="rect4049" />
        <rect
           id="rect4051"
           width="4.24264"
           height="240.41631"
           x="623.62073"
           y="-77.430206" />
      </g>
      <g
         transform="matrix(1,0,0,0.87935657,2.1213204,22.307744)"
         id="g4043">
        <rect
           style="fill:#ff0000"
           id="rect4035"
           width="48.790367"
           height="263.75082"
           x="468.10468"
           y="-85.651283"
           transform="translate(151.9805,6.8068557)" />
        <rect
           style="fill:#f9f9f9"
           y="-137.73909"
           x="623.62073"
           height="300.72519"
           width="4.24264"
           id="rect4040" />
      </g>
    </g>
  </g>
</svg>
