<?xml version="1.0" encoding="UTF-8" standalone="no"?>
<svg
   xmlns:dc="http://purl.org/dc/elements/1.1/"
   xmlns:cc="http://creativecommons.org/ns#"
   xmlns:rdf="http://www.w3.org/1999/02/22-rdf-syntax-ns#"
   xmlns:svg="http://www.w3.org/2000/svg"
   xmlns="http://www.w3.org/2000/svg"
   xmlns:sodipodi="http://sodipodi.sourceforge.net/DTD/sodipodi-0.dtd"
   xmlns:inkscape="http://www.inkscape.org/namespaces/inkscape"
   width="1200"
   height="600"
   version="1.1"
   id="svg2"
   inkscape:version="0.48.4 r9939"
   sodipodi:docname="hydro-power-s.svg">
  <defs
     id="defs14" />
  <sodipodi:namedview
     pagecolor="#ffffff"
     bordercolor="#666666"
     borderopacity="1"
     objecttolerance="10"
     gridtolerance="10"
     guidetolerance="10"
     inkscape:pageopacity="0"
     inkscape:pageshadow="2"
     inkscape:window-width="1680"
     inkscape:window-height="995"
     id="namedview12"
     showgrid="false"
     inkscape:zoom="0.417193"
     inkscape:cx="-215.66126"
     inkscape:cy="149.86903"
     inkscape:window-x="0"
     inkscape:window-y="30"
     inkscape:window-maximized="1"
     inkscape:current-layer="layer1" />
  <metadata
     id="metadata7">
    <rdf:RDF>
      <cc:Work
         rdf:about="">
        <dc:format>image/svg+xml</dc:format>
        <dc:type
           rdf:resource="http://purl.org/dc/dcmitype/StillImage" />
        <dc:title></dc:title>
      </cc:Work>
    </rdf:RDF>
  </metadata>
  <g
     inkscape:label="Layer 1"
     inkscape:groupmode="layer"
     id="layer1"
     transform="translate(-151.9805,261.76824)">
    <g
       id="g3922"
       transform="matrix(1.3471352,0,0,1.3471352,-333.40729,-153.23178)">
      <path
         style="fill:#2a7fff"
         sodipodi:nodetypes="ssscs"
         inkscape:connector-curvature="0"
         id="path3912"
         d="m 929.09085,201.29329 c 0,72.17883 -55.24364,130.69133 -123.39014,130.69133 -68.14649,0 -123.39013,-58.5125 -123.39013,-130.69133 0,-72.17882 69.53692,-164.172207 124.09724,-249.025018 55.05813,84.852811 122.68303,176.846198 122.68303,249.025018 z" />
      <path
         style="fill:#ffffff"
         sodipodi:nodetypes="ccacaac"
         inkscape:connector-curvature="0"
         id="rect3919"
         d="m 717.79973,-253.98816 9.501,6.0006 c 0,0 -19.61181,127.31905 -6.31217,191.65414 7.34378,35.524505 40.47563,65.4703315 46.28595,101.213874 C 740.5015,36.468925 733.74149,20.849784 722.63217,4.1662017 711.59125,-12.414659 705.83854,-32.215362 703.21421,-51.160926 693.68486,-119.95535 717.79973,-253.98816 717.79973,-253.98816 z"
         transform="matrix(0.95350666,0.30137195,-0.41018004,0.91200457,0,0)" />
    </g>
  </g>
</svg>
