<?xml version="1.0" encoding="UTF-8" standalone="no"?>
<svg
   xmlns:dc="http://purl.org/dc/elements/1.1/"
   xmlns:cc="http://creativecommons.org/ns#"
   xmlns:rdf="http://www.w3.org/1999/02/22-rdf-syntax-ns#"
   xmlns:svg="http://www.w3.org/2000/svg"
   xmlns="http://www.w3.org/2000/svg"
   xmlns:sodipodi="http://sodipodi.sourceforge.net/DTD/sodipodi-0.dtd"
   xmlns:inkscape="http://www.inkscape.org/namespaces/inkscape"
   width="1200"
   height="600"
   version="1.1"
   id="svg2"
   inkscape:version="0.48.4 r9939"
   sodipodi:docname="nuclear-power-s.svg">
  <defs
     id="defs18" />
  <sodipodi:namedview
     pagecolor="#ffffff"
     bordercolor="#666666"
     borderopacity="1"
     objecttolerance="10"
     gridtolerance="10"
     guidetolerance="10"
     inkscape:pageopacity="0"
     inkscape:pageshadow="2"
     inkscape:window-width="1680"
     inkscape:window-height="995"
     id="namedview16"
     showgrid="false"
     inkscape:zoom="0.417193"
     inkscape:cx="-83.757489"
     inkscape:cy="155.5481"
     inkscape:window-x="0"
     inkscape:window-y="30"
     inkscape:window-maximized="1"
     inkscape:current-layer="layer1" />
  <metadata
     id="metadata7">
    <rdf:RDF>
      <cc:Work
         rdf:about="">
        <dc:format>image/svg+xml</dc:format>
        <dc:type
           rdf:resource="http://purl.org/dc/dcmitype/StillImage" />
        <dc:title></dc:title>
      </cc:Work>
    </rdf:RDF>
  </metadata>
  <g
     inkscape:label="Layer 1"
     inkscape:groupmode="layer"
     id="layer1"
     transform="translate(-151.9805,261.76824)">
    <g
       id="g3008">
      <path
         inkscape:connector-curvature="0"
         d="m 702.77862,19.349668 c 0,27.358687 22.26964,49.628334 49.63837,49.628334 27.36872,0 49.63836,-22.25964 49.63836,-49.628334 0,-27.3687221 -22.26964,-49.638369 -49.63836,-49.638369 -27.36873,0 -49.63837,22.2696469 -49.63837,49.638369 z m 49.63837,-32.317529 c 17.81169,0 32.31752,14.4957964 32.31752,32.327536 0,17.821732 -14.50583,32.317529 -32.31752,32.317529 -17.82174,0 -32.31753,-14.505831 -32.31753,-32.317529 0,-17.8317396 14.50583,-32.327536 32.31753,-32.327536 z m 53.79575,97.683885 c -4.50801,-7.793891 -15.0067,-10.679029 -23.2614,-6.421438 -15.07683,7.853987 -32.96869,9.536982 -49.17753,4.778498 -8.36491,-2.464383 -18.13227,1.202143 -22.42995,8.435018 L 632.19297,224.68516 c -2.4143,4.05723 -3.04542,8.95595 -1.72305,13.4139 1.30232,4.42787 4.42787,8.13445 8.57525,10.18811 35.41306,17.57129 73.55092,26.48716 113.37182,26.48716 43.73786,0 86.91471,-11.24002 124.8222,-32.52789 4.01715,-2.25402 6.90229,-5.96063 8.12445,-10.41855 1.22218,-4.46796 0.58103,-9.32662 -1.72306,-13.33374 L 806.21274,84.716024 z M 752.41699,257.46352 c -37.11607,0 -72.67937,-8.30479 -105.34753,-23.92259 l 79.1509,-133.17706 c 0.14015,-0.24049 0.83148,-0.671197 2.27403,-0.671197 0.14016,0 0.28052,0.01076 0.43079,0.01883 20.24603,5.930557 42.96648,3.937017 62.30088,-6.311252 l 77.52802,133.758109 c -35.32289,19.82528 -75.5545,30.30395 -116.33709,30.30395 z M 897.3049,-191.05487 c -7.67367,-5.31947 -19.02387,-2.93522 -24.0929,4.92878 l -83.50864,129.911251 c -4.91876,7.653603 -3.10553,17.85178 4.22752,23.752284 13.7645,11.039635 22.43995,26.7275679 24.44353,44.148586 1.05185,9.30655 8.67543,16.319026 17.74156,16.319026 h 154.41487 c 4.66831,0 9.18636,-1.913401 12.41206,-5.259351 3.2358,-3.345949 4.9188,-7.733767 4.7485,-12.361997 -2.7649,-80.343033 -44.02839,-155.647059 -110.3865,-201.438579 z M 836.10597,10.694252 c -0.12025,-0.03013 -0.47085,-0.380674 -0.54098,-0.9617043 -2.52448,-21.9991587 -13.46396,-41.7743737 -30.80484,-55.6991477 -0.40072,-0.320577 -0.53094,-0.761373 -0.5109,-0.871559 l 83.21814,-129.951311 c 61.8601,42.68597 100.32858,112.880919 103.07349,187.483722 H 836.10597 z M 686.4696,11.706045 c 2.23398,-19.4345973 12.89294,-36.815533 29.27211,-47.694892 7.99422,-5.30944 10.47865,-15.387398 5.76025,-23.421701 L 643.26268,-192.68777 c -4.68833,-7.99423 -15.92835,-10.8994 -23.83243,-6.09084 -73.62103,44.97006 -119.33242,123.169229 -122.27765,209.172326 -0.16033,4.618223 1.52272,9.016048 4.74845,12.361998 3.21572,3.325935 7.73377,5.249343 12.41209,5.249343 H 668.718 c 9.06613,0 16.68972,-7.012476 17.7516,-16.299012 z m -58.15352,-195.628215 77.82853,133.507656 c -20.63672,13.704375 -34.08066,35.623396 -36.88564,60.1470617 -0.0702,0.5710233 -0.42075,0.9216483 -0.54097,0.9516963 l -154.27464,0.310543 c 2.76495,-80.172723 45.37077,-153.072467 113.87272,-194.916957 z"
         id="path4166-9"
         style="fill:#ffcc00" />
      <path
         style="fill:#ffcc00;stroke:none;stroke-width:2.69008088000000001"
         inkscape:connector-curvature="0"
         id="path4188-0"
         d="m 677.92071,16.85767 13.3152,-45.652206 24.72827,-22.82609 -87.50002,-142.663074 -70.38045,57.06524 -38.04349,70.38045 -15.2174,76.0869746 11.41305,11.4130444 z" />
      <path
         style="fill:#ffcc00;stroke:none;stroke-width:2.69008088000000001"
         d="m 790.02095,-47.794859 32.41061,34.799048 6.95908,32.925487 167.34466,-2.182167 -13.01795,-89.668171 -41.00393,-68.697808 -57.58635,-52.00587 -15.64559,3.96618 z"
         id="path4190-5"
         inkscape:connector-curvature="0" />
      <path
         style="fill:#ffcc00;stroke:none;stroke-width:2.69008088000000001"
         inkscape:connector-curvature="0"
         id="path4192-8"
         d="M 797.89017,86.447952 751.51379,96.967056 719.5538,86.427749 637.3,232.17859 l 84.05502,33.83194 79.99935,-0.90309 73.90831,-23.62964 4.43812,-15.51833 z" />
    </g>
  </g>
</svg>
