<?xml version="1.0" encoding="UTF-8" standalone="no"?>
<svg
   xmlns:dc="http://purl.org/dc/elements/1.1/"
   xmlns:cc="http://creativecommons.org/ns#"
   xmlns:rdf="http://www.w3.org/1999/02/22-rdf-syntax-ns#"
   xmlns:svg="http://www.w3.org/2000/svg"
   xmlns="http://www.w3.org/2000/svg"
   xmlns:sodipodi="http://sodipodi.sourceforge.net/DTD/sodipodi-0.dtd"
   xmlns:inkscape="http://www.inkscape.org/namespaces/inkscape"
   width="1200"
   height="600"
   version="1.1"
   id="svg2"
   inkscape:version="0.48.4 r9939"
   sodipodi:docname="wind-power-s.svg">
  <defs
     id="defs29" />
  <sodipodi:namedview
     pagecolor="#ffffff"
     bordercolor="#666666"
     borderopacity="1"
     objecttolerance="10"
     gridtolerance="10"
     guidetolerance="10"
     inkscape:pageopacity="0"
     inkscape:pageshadow="2"
     inkscape:window-width="1680"
     inkscape:window-height="995"
     id="namedview27"
     showgrid="false"
     inkscape:zoom="0.59"
     inkscape:cx="-176.80786"
     inkscape:cy="161.18687"
     inkscape:window-x="0"
     inkscape:window-y="30"
     inkscape:window-maximized="1"
     inkscape:current-layer="layer1" />
  <metadata
     id="metadata7">
    <rdf:RDF>
      <cc:Work
         rdf:about="">
        <dc:format>image/svg+xml</dc:format>
        <dc:type
           rdf:resource="http://purl.org/dc/dcmitype/StillImage" />
        <dc:title></dc:title>
      </cc:Work>
    </rdf:RDF>
  </metadata>
  <g
     inkscape:label="Layer 1"
     inkscape:groupmode="layer"
     id="layer1"
     transform="translate(-151.9805,261.65143)">
    <g
       id="g3857"
       transform="matrix(0.75900149,0,0,0.75873407,189.40415,-46.535266)">
      <g
         transform="translate(0,8.4852814)"
         id="g3841">
        <path
           style="fill:#999999"
           d="M 742.1053,-4.3204755 C 781.9805,122.9917 773.23326,367.38186 773.23326,474.1758 c 0,0 -20.75117,0.61109 -31.12796,0.50372 -10.30454,-0.10663 -30.89424,-1.13974 -30.89424,-1.13974 0,0 -9.23056,-349.88103 30.89424,-477.8602555 z"
           id="rect3835"
           inkscape:connector-curvature="0"
           sodipodi:nodetypes="ccacc" />
        <path
           style="fill:#f2f2f2"
           d="m 742.1053,12.363724 0,0.5 c 0,0 -10.15039,86.200188 -12.38774,129.509206 -5.71027,110.53536 -2.61223,332.03798 -2.61223,332.03798 l -8.86929,-0.51102 c 0,0 -3.80392,-239.15865 6.99374,-358.03808 3.1619,-34.81165 16.87552,-103.498086 16.87552,-103.498086 z"
           id="rect3838"
           inkscape:connector-curvature="0"
           sodipodi:nodetypes="ccaccac" />
      </g>
      <g
         id="g3831">
        <path
           style="fill:#808080"
           d="m 742.1053,-259.42624 c 30.39423,68.0483 22.13229,200.553005 13.90669,205.285118 -13.90669,8.000385 -3.69785,35.003466 -3.69785,48.8358241 l -20.5061,0 c 0,0 10.29726,-40.7879821 -5.28269,-48.8461291 -9.8206,-5.07934 -10.73352,-146.729213 15.57995,-205.274813 z"
           id="rect3811"
           inkscape:connector-curvature="0"
           sodipodi:nodetypes="csccsc" />
        <path
           style="fill:#ececec"
           d="m 742.1053,-258.72956 0,4.26563 c 0,0 -10.20345,38.81822 -12.18007,58.61064 -2.54605,25.49425 -5.91521,63.17074 -4.44561,94.91194 0.46551,10.054248 -0.37837,28.070786 4.24963,41.012023 1.8547,5.1863 8.05872,8.348729 9.10568,13.78859 2.51816,13.083979 -1.81104,39.9312505 -1.81104,39.9312505 l -3.04677,-0.088388 c 0,0 3.50833,-24.7574135 2.41455,-37.1028235 -0.44187,-4.987301 -8.20947,-10.379514 -10.27914,-16.528629 -4.32202,-12.840954 -3.36513,-29.954949 -3.7736,-40.470843 -1.23907,-31.89919 1.69199,-70.10636 4.95427,-95.64151 2.72099,-21.29824 14.8121,-62.68788 14.8121,-62.68788 z"
           id="rect3828"
           inkscape:connector-curvature="0"
           sodipodi:nodetypes="ccssasccsassc" />
      </g>
      <g
         id="g3851"
         transform="matrix(0.60652263,0.79506623,0.79506623,-0.60652263,279.40162,-578.12269)">
        <path
           style="fill:#808080"
           d="m 742.1053,-259.42624 c 30.39423,68.0483 22.13229,200.553005 13.90669,205.285118 -13.90669,8.000385 -3.69785,35.003466 -3.69785,48.8358241 l -20.5061,0 c 0,0 10.29726,-40.7879821 -5.28269,-48.8461291 -9.8206,-5.07934 -10.73352,-146.729213 15.57995,-205.274813 z"
           id="path3853"
           inkscape:connector-curvature="0"
           sodipodi:nodetypes="csccsc" />
        <path
           style="fill:#ececec"
           d="m 742.1053,-258.72956 0,4.26563 c 0,0 -10.20345,38.81822 -12.18007,58.61064 -2.54605,25.49425 -5.91521,63.17074 -4.44561,94.91194 0.46551,10.054248 -0.37837,28.070786 4.24963,41.012023 1.8547,5.1863 8.05872,8.348729 9.10568,13.78859 2.51816,13.083979 -1.81104,39.9312505 -1.81104,39.9312505 l -3.04677,-0.088388 c 0,0 3.50833,-24.7574135 2.41455,-37.1028235 -0.44187,-4.987301 -8.20947,-10.379514 -10.27914,-16.528629 -4.32202,-12.840954 -3.36513,-29.954949 -3.7736,-40.470843 -1.23907,-31.89919 1.69199,-70.10636 4.95427,-95.64151 2.72099,-21.29824 14.8121,-62.68788 14.8121,-62.68788 z"
           id="path3855"
           inkscape:connector-curvature="0"
           sodipodi:nodetypes="ccssasccsassc" />
      </g>
      <g
         transform="matrix(-0.60652263,0.79506623,-0.79506623,-0.60652263,1203.0101,-572.46584)"
         id="g3845">
        <path
           style="fill:#808080"
           sodipodi:nodetypes="csccsc"
           inkscape:connector-curvature="0"
           id="path3847"
           d="m 742.1053,-259.42624 c 30.39423,68.0483 22.13229,200.553005 13.90669,205.285118 -13.90669,8.000385 -3.69785,35.003466 -3.69785,48.8358241 l -20.5061,0 c 0,0 10.29726,-40.7879821 -5.28269,-48.8461291 -9.8206,-5.07934 -10.73352,-146.729213 15.57995,-205.274813 z" />
        <path
           style="fill:#ececec"
           sodipodi:nodetypes="ccssasccsassc"
           inkscape:connector-curvature="0"
           id="path3849"
           d="m 742.1053,-258.72956 0,4.26563 c 0,0 -10.20345,38.81822 -12.18007,58.61064 -2.54605,25.49425 -5.91521,63.17074 -4.44561,94.91194 0.46551,10.054248 -0.37837,28.070786 4.24963,41.012023 1.8547,5.1863 8.05872,8.348729 9.10568,13.78859 2.51816,13.083979 -1.81104,39.9312505 -1.81104,39.9312505 l -3.04677,-0.088388 c 0,0 3.50833,-24.7574135 2.41455,-37.1028235 -0.44187,-4.987301 -8.20947,-10.379514 -10.27914,-16.528629 -4.32202,-12.840954 -3.36513,-29.954949 -3.7736,-40.470843 -1.23907,-31.89919 1.69199,-70.10636 4.95427,-95.64151 2.72099,-21.29824 14.8121,-62.68788 14.8121,-62.68788 z" />
      </g>
      <g
         id="g3805">
        <path
           style="fill:#666666"
           sodipodi:type="arc"
           id="path3027"
           sodipodi:cx="606"
           sodipodi:cy="2.5417175"
           sodipodi:rx="32"
           sodipodi:ry="32"
           d="m 638,2.5417175 c 0,17.6731125 -14.32689,32.0000005 -32,32.0000005 -17.67311,0 -32,-14.326888 -32,-32.0000005 0,-17.6731115 14.32689,-31.9999995 32,-31.9999995 17.67311,0 32,14.326888 32,31.9999995 z"
           transform="translate(137.48481,13.701147)" />
        <path
           style="fill:#cccccc"
           transform="matrix(0.29565535,0,0,0.29565535,564.31767,15.491392)"
           d="m 638,2.5417175 c 0,17.6731125 -14.32689,32.0000005 -32,32.0000005 -17.67311,0 -32,-14.326888 -32,-32.0000005 0,-17.6731115 14.32689,-31.9999995 32,-31.9999995 17.67311,0 32,14.326888 32,31.9999995 z"
           sodipodi:ry="32"
           sodipodi:rx="32"
           sodipodi:cy="2.5417175"
           sodipodi:cx="606"
           id="path3797"
           sodipodi:type="arc" />
        <path
           style="fill:#e6e6e6"
           d="m 721.97055,3.088464 c -8.30998,15.597538 3.39746,37.707618 -1.17571,33.027969 -5.59794,-5.728278 -12.47552,-19.074307 -4.16553,-34.6718447 8.30998,-15.5975363 28.99436,-16.7611443 35.35334,-15.2195783 6.12827,1.485638 -21.70213,1.265917 -30.0121,16.863454 z"
           id="path3799"
           inkscape:connector-curvature="0"
           sodipodi:nodetypes="sssss" />
        <path
           style="fill:#ffffff"
           d="m 737.40492,12.779986 c -1.44848,2.488537 1.14312,5.367267 -0.33012,8.927463 -3.22393,-3.147302 -3.00412,-6.976251 -1.44257,-9.936546 1.46141,-2.7704408 5.92446,-5.6321462 8.43738,-4.1364332 -0.96368,2.4195332 -5.45194,3.0619542 -6.66469,5.1455162 z"
           id="path3802"
           inkscape:connector-curvature="0"
           sodipodi:nodetypes="scacs" />
      </g>
    </g>
  </g>
</svg>
