<?xml version="1.0" encoding="UTF-8" standalone="no"?>
<svg
   xmlns:dc="http://purl.org/dc/elements/1.1/"
   xmlns:cc="http://creativecommons.org/ns#"
   xmlns:rdf="http://www.w3.org/1999/02/22-rdf-syntax-ns#"
   xmlns:svg="http://www.w3.org/2000/svg"
   xmlns="http://www.w3.org/2000/svg"
   xmlns:sodipodi="http://sodipodi.sourceforge.net/DTD/sodipodi-0.dtd"
   xmlns:inkscape="http://www.inkscape.org/namespaces/inkscape"
   width="1200"
   height="600"
   version="1.1"
   id="svg2"
   inkscape:version="0.48.4 r9939"
   sodipodi:docname="biological-power-box.svg">
  <defs
     id="defs14" />
  <sodipodi:namedview
     pagecolor="#ffffff"
     bordercolor="#666666"
     borderopacity="1"
     objecttolerance="10"
     gridtolerance="10"
     guidetolerance="10"
     inkscape:pageopacity="0"
     inkscape:pageshadow="2"
     inkscape:window-width="1680"
     inkscape:window-height="995"
     id="namedview12"
     showgrid="false"
     inkscape:zoom="0.2085965"
     inkscape:cx="-834.79553"
     inkscape:cy="231.50635"
     inkscape:window-x="0"
     inkscape:window-y="30"
     inkscape:window-maximized="1"
     inkscape:current-layer="layer1" />
  <metadata
     id="metadata7">
    <rdf:RDF>
      <cc:Work
         rdf:about="">
        <dc:format>image/svg+xml</dc:format>
        <dc:type
           rdf:resource="http://purl.org/dc/dcmitype/StillImage" />
        <dc:title></dc:title>
      </cc:Work>
    </rdf:RDF>
  </metadata>
  <g
     inkscape:label="Layer 1"
     inkscape:groupmode="layer"
     id="layer1"
     transform="translate(-151.9805,261.76824)">
    <path
       style="fill:#ff6600"
       id="path3837"
       d="m 912.21659,83.941588 63.88879,-29.196412 c 1.83372,-0.829173 3.92262,-0.892945 5.79885,-0.143314 1.87628,0.733514 3.3752,2.179241 4.14587,4.039575 l 28.2131,67.370233 c 0.6591,1.10556 1.0312,2.40776 1.0312,3.7844 0,4.11397 -3.3273,7.43598 -7.4413,7.43598 -0.01,0 -0.044,0 -0.075,0 0,0 -0.01,0 -0.026,0 l -69.42725,-0.26049 c -0.49964,0 -0.99392,-0.0532 -1.4723,-0.15943 -2.87551,-0.58467 -6.42608,-2.48221 -8.10036,-3.60907 -1.1003,-0.74937 -1.97726,-1.74865 -2.54598,-2.93928 L 908.61854,93.950291 c -0.87169,-1.812462 -0.98865,-3.880101 -0.30841,-5.766964 0.68037,-1.886906 2.0889,-3.412392 3.90667,-4.241565 z M 1021.1145,159.3803 c -1.4032,-1.83376 -3.5718,-2.91276 -5.8733,-2.91276 -20.26684,-0.10106 -58.18021,-0.25003 -92.78752,-0.372 l -91.24082,-0.36678 0.0479,-7.45192 c 0,-0.0261 0,-0.0532 0,-0.0745 l 0.0958,-20.35727 c 0.009,-3.03494 -1.81246,-5.767 -4.60298,-6.9204 -2.80107,-1.15339 -6.02214,-0.49428 -8.13757,1.67429 l -78.04846,79.57935 c -2.86488,2.92865 -2.82768,7.6273 0.0906,10.50281 17.61457,17.38605 73.90791,72.33995 80.2649,78.55341 1.42978,1.38731 3.29543,2.11547 5.2036,2.11547 0.96739,0 1.95068,-0.19646 2.87019,-0.57935 2.7586,-1.15344 4.55516,-3.84822 4.56047,-6.83006 l 0.0906,-28.72335 155.24122,0.6325 c 0.009,0 0.0218,0 0.0305,0 3.42298,0 6.40482,-2.33336 7.21801,-5.6554 1.55741,-6.30916 5.25676,-18.25238 12.06556,-39.72048 4.7146,-14.91988 11.1778,-35.33556 14.1969,-46.65164 0.59,-2.2377 0.1167,-4.60294 -1.2863,-6.44202 z m -356.50142,6.61212 -40.34239,-0.68568 c -1.32349,-0.0436 -2.62038,0.30274 -3.77381,0.9514 -1.75932,0.99396 -5.05475,3.30075 -6.88316,5.60226 -0.3084,0.3829 -0.57408,0.79197 -0.80264,1.23842 l -31.55103,61.84778 c -1.13218,2.22707 -1.07899,4.86875 0.14332,7.03205 1.22248,2.17388 3.46017,3.58776 5.94769,3.75782 l 73.83887,5.27804 c 0.26049,0.0305 0.52085,0.0392 0.7813,0.0261 1.72743,-0.0584 3.39641,-0.72816 4.69864,-1.88691 1.50419,-1.34471 2.39186,-3.23161 2.47689,-5.24607 l 2.76923,-70.18737 c 0.0797,-1.99319 -0.64313,-3.94387 -2.0304,-5.40023 -1.37132,-1.45635 -3.26886,-2.2962 -5.27268,-2.32804 z M 643.83063,-32.80159 c -1.31283,-3.874786 -5.51719,-5.963639 -9.40792,-4.661444 -19.36326,6.495207 -75.93835,25.805365 -106.32536,36.1965718 -2.82236,0.96734619 -4.7943,3.5292649 -5.01223,6.5217348 -0.20735,2.9658977 1.38726,5.7935784 4.0502,7.1489614 l 25.58739,13.02757 -70.59654,138.259106 c -1.56268,3.05624 -0.82386,6.78222 1.78058,9.03051 4.93252,4.24156 13.9152,12.92128 29.97244,28.63844 11.18853,10.94931 26.51226,25.94881 35.26638,33.75684 1.44041,1.29157 3.31138,1.96131 5.2036,1.89222 0.372,-0.0174 0.7441,-0.0693 1.11619,-0.12763 2.26958,-0.42515 4.20432,-1.87096 5.25143,-3.92261 9.21655,-18.05044 26.45907,-51.82331 42.18142,-82.64086 l 41.49587,-81.26418 6.62802,3.396406 c 0.0392,0.0087 0.0693,0.03049 0.10106,0.04356 0.32409,0.164658 2.14204,1.10552 4.87933,2.503461 l 13.22425,6.75561 c 2.68419,1.381955 5.94774,0.983333 8.24921,-0.999232 2.29084,-1.977294 3.1519,-5.145139 2.17393,-8.015334 L 643.83076,-32.800632 z m 18.74143,-27.383951 66.16365,23.583566 c 0.80792,0.287063 1.65303,0.435865 2.49284,0.435865 1.1215,0 2.23238,-0.265718 3.26354,-0.760085 1.79652,-0.882316 3.16785,-2.444959 3.79507,-4.33718 l 12.69799,-38.311996 c 0.40381,-1.233152 0.48901,-2.572547 0.21258,-3.869472 -0.41992,-1.993237 -1.64772,-5.841408 -3.30075,-8.254524 -0.27617,-0.409468 -0.59529,-0.791972 -0.94609,-1.142764 l -49.60673,-48.549089 c -1.78057,-1.74873 -4.32124,-2.4822 -6.76092,-1.96135 -2.43438,0.5209 -4.45414,2.23243 -5.36308,4.54984 l -27.07563,68.895681 c -0.72815,1.870963 -0.68037,3.965173 0.15421,5.798893 0.84511,1.844391 2.38123,3.252917 4.27345,3.922615 z m 109.09458,-35.319526 65.19099,63.851555 -5.20891,5.30457 c -0.0261,0.02614 -0.0531,0.05314 -0.0797,0.07972 l -14.23947,14.526441 c -2.11011,2.1686555 -2.70541,5.3949577 -1.50418,8.1694948 1.17996,2.72666429 3.86947,4.47539719 6.81942,4.47539719 0.064,0 0.12241,0 0.18601,-0.00871 L 934.24278,-1.8120129 c 4.09803,-0.1010601 7.33501,-3.4921078 7.24993,-7.5901411 -0.42515,-20.500752 -1.98252,-80.222387 -2.83295,-112.273096 -0.0797,-2.98711 -1.92946,-5.64473 -4.71459,-6.73436 -2.7852,-1.08962 -5.94773,-0.4038 -8.04726,1.73807 l -20.06489,20.52736 -110.91235,-108.62687 c -2.45563,-2.39186 -6.23476,-2.80111 -9.1422,-0.99396 -5.55439,3.47085 -16.51963,9.44512 -36.15933,20.00111 -13.8408,7.43598 -32.76823,17.62524 -42.86715,23.66328 -1.97194,1.18001 -3.29007,3.21041 -3.56115,5.50656 -0.27617,2.28022 0.53152,4.5711 2.1792,6.18693 14.48397,14.18628 41.57022,40.70381 66.2966,64.903936 z M 750.06032,109.08252 c -7.55289,6.59614 -19.93202,9.89157 -39.24745,9.89157 -10.66764,0 -18.81584,-0.79197 -23.68458,-1.40321 V 13.536369 c 6.11248,-1.238423 17.26382,-2.195184 28.09084,-2.195184 14.27667,0 23.06803,1.738104 30.28077,6.75034 6.58019,3.911987 10.95993,10.832343 10.95993,19.772552 0,9.732138 -6.10186,18.672347 -17.54017,22.913824 v 0.32409 c 11.14066,2.811738 21.32461,11.608415 21.32461,26.187999 0,9.407922 -4.07146,16.77477 -10.18395,21.79236 z M 706.2737,55.2767 h 9.88094 c 13.34116,0 20.86748,-6.287903 20.86748,-15.222754 0,-9.880983 -7.52632,-14.430825 -19.76728,-14.430825 -5.65004,0 -8.96138,0.308408 -10.98114,0.776072 V 55.2767 z m 33.56548,31.375653 c 0,-12.235642 -10.65697,-17.258463 -24.00881,-17.258463 h -9.56199 v 34.51692 c 2.52468,0.31364 5.82011,0.47307 10.19985,0.47307 12.4057,0 23.37095,-4.709268 23.37095,-17.731527 z m 29.86084,31.221487 h 19.31542 V 12.133157 H 769.70002 V 117.87384 z m 78.31422,-107.4628 c 30.9079,0 49.11249,23.365633 49.11249,53.492234 0,35.473688 -21.49466,55.698046 -50.69644,55.698046 -29.80233,0 -48.61285,-22.749078 -48.61285,-53.805869 0.004,-32.48653 20.38915,-55.384411 50.1968,-55.384411 z m -0.47834,15.520402 c -19.12411,0 -29.33467,17.731528 -29.33467,39.550462 0,21.48404 10.83239,38.583026 29.33467,38.583026 18.69883,0 29.19637,-17.247788 29.19637,-39.374998 0,-19.926713 -9.89157,-38.75849 -29.19637,-38.75849 z"
       inkscape:connector-curvature="0" />
  </g>
</svg>
