<?xml version="1.0" encoding="UTF-8" standalone="no"?>
<svg
   xmlns:dc="http://purl.org/dc/elements/1.1/"
   xmlns:cc="http://creativecommons.org/ns#"
   xmlns:rdf="http://www.w3.org/1999/02/22-rdf-syntax-ns#"
   xmlns:svg="http://www.w3.org/2000/svg"
   xmlns="http://www.w3.org/2000/svg"
   xmlns:sodipodi="http://sodipodi.sourceforge.net/DTD/sodipodi-0.dtd"
   xmlns:inkscape="http://www.inkscape.org/namespaces/inkscape"
   width="1200"
   height="600"
   version="1.1"
   id="svg2"
   inkscape:version="0.48.4 r9939"
   sodipodi:docname="waste-to-energy-power-s.svg">
  <defs
     id="defs12" />
  <sodipodi:namedview
     pagecolor="#ffffff"
     bordercolor="#666666"
     borderopacity="1"
     objecttolerance="10"
     gridtolerance="10"
     guidetolerance="10"
     inkscape:pageopacity="0"
     inkscape:pageshadow="2"
     inkscape:window-width="1680"
     inkscape:window-height="995"
     id="namedview10"
     showgrid="false"
     inkscape:zoom="0.295"
     inkscape:cx="-538.66094"
     inkscape:cy="164.69257"
     inkscape:window-x="0"
     inkscape:window-y="30"
     inkscape:window-maximized="1"
     inkscape:current-layer="layer1" />
  <metadata
     id="metadata7">
    <rdf:RDF>
      <cc:Work
         rdf:about="">
        <dc:format>image/svg+xml</dc:format>
        <dc:type
           rdf:resource="http://purl.org/dc/dcmitype/StillImage" />
        <dc:title></dc:title>
      </cc:Work>
    </rdf:RDF>
  </metadata>
  <g
     inkscape:label="Layer 1"
     inkscape:groupmode="layer"
     id="layer1"
     transform="translate(-151.9805,261.76824)">
    <path
       style="fill:#00ff00"
       id="path3956"
       d="M 717.16292,201.42504 H 568.41208 c -12.88526,0 -22.89389,-3.4793 -26.08099,-9.07714 -3.18705,-5.61621 -1.10494,-15.99015 5.44266,-27.08549 l 40.27206,-68.10634 c 1.05935,-1.789861 3.85371,-2.538701 5.68927,-1.479401 l 9.04066,5.369651 c 2.51127,1.47935 5.21431,2.24645 7.83523,2.24645 7.44256,0 12.90348,-5.89014 12.99481,-13.990202 l 0.81274,-77.978046 c 0.0546,-5.5887835 -2.12776,-8.9675949 -3.95415,-10.8305228 -4.00895,-4.0728495 -10.83968,-4.6299215 -16.62023,-1.3423868 L 535.86566,37.423778 c -4.91301,2.785209 -7.77133,7.104667 -7.80786,11.88982 -0.0455,4.75778 2.7122,9.141092 7.57957,12.017679 l 9.52467,5.634422 c 0.95886,0.575338 1.64374,1.470245 1.91772,2.547808 0.27373,1.059348 0.11891,2.164334 -0.44727,3.132303 l -40.29033,68.11544 c -16.03578,27.12203 -18.09047,53.897 -5.81708,75.43935 12.2734,21.50581 36.37271,33.36826 67.89631,33.36826 h 148.75089 c 13.26879,0 24.07189,-10.80315 24.07189,-24.08104 -0.0202,-13.26874 -10.81226,-24.06278 -24.08105,-24.06278 z m 0,33.67877 0,0 -148.75084,0 c -26.09921,0 -45.75125,-9.26895 -55.33987,-26.08094 -9.60679,-16.81199 -7.57952,-38.43655 5.70753,-60.89207 l 40.29033,-68.124606 c 2.52954,-4.282927 3.25095,-9.296374 1.99989,-14.099792 -1.24195,-4.812526 -4.28293,-8.848895 -8.54754,-11.378437 l -8.5567,-5.068293 65.97859,-37.148864 -0.79448,75.685854 -8.06353,-4.775995 c -2.71219,-1.588996 -5.87187,-2.429107 -9.15025,-2.429107 -6.77593,0 -13.03133,3.433608 -16.32797,8.976702 l -40.29033,68.142868 c -9.45161,16.01752 -11.47887,31.1675 -5.55225,41.59618 5.95404,10.41963 20.04467,16.38283 38.64658,16.38283 h 148.75084 c 5.29659,0 9.61599,4.31941 9.61599,9.60683 -0.0101,5.28743 -4.3194,9.60684 -9.61599,9.60684 z m 279.82225,-94.03204 0,0 -93.71242,-153.609108 c -4.28288,-7.031606 -12.28255,-11.396703 -20.87573,-11.396703 -4.39247,0 -8.6206,1.177997 -12.20944,3.378811 -5.49746,3.351439 -9.35112,8.648026 -10.8579,14.9125315 -1.50677,6.2554487 -0.49332,12.7026085 2.84917,18.1726415 l 93.71237,153.609107 c 6.66634,10.93101 8.93111,21.11318 5.8993,26.52842 -3.03182,5.40618 -12.88527,8.74846 -25.70653,8.74846 h -29.07627 c -2.28299,0 -4.14592,-1.86293 -4.14592,-4.14591 v -10.49269 c 0,-8.07264 -5.57051,-14.15454 -12.95827,-14.15454 -2.57523,0 -5.26001,0.75794 -7.75307,2.20076 l -67.531,38.99358 c -4.89474,2.84006 -7.70737,7.18689 -7.70737,11.96293 0,4.76689 2.81263,9.12283 7.70737,11.94462 l 67.531,38.99358 c 2.6574,1.5433 5.35138,2.32867 8.01789,2.32867 7.36039,0 12.69345,-5.99973 12.69345,-14.26418 v -11.04971 c 0,-2.28298 1.86293,-4.14591 4.14592,-4.14591 h 29.07627 c 31.58751,0 55.63202,-11.85334 67.67711,-33.35 12.0816,-21.52408 9.6708,-48.20773 -6.77593,-75.16536 z m -5.82618,68.0698 c -9.3877,16.73893 -28.93926,25.96224 -55.075,25.96224 h -29.07627 c -10.26435,0 -18.61097,8.34662 -18.61097,18.61096 v 9.91735 l -65.54021,-37.86121 65.54021,-37.86117 v 9.36028 c 0,10.26434 8.34662,18.61096 18.61097,18.61096 h 29.07627 c 18.5927,0 32.55553,-5.89014 38.30865,-16.14538 5.76228,-10.28261 3.51583,-25.27731 -6.15496,-41.13954 L 874.52525,4.9777965 c -1.33323,-2.1733903 -1.74417,-4.7395141 -1.14151,-7.2325254 0.60276,-2.4839039 2.14606,-4.6116561 4.36514,-5.9631504 4.20982,-2.5661237 10.63876,-0.9862857 13.17741,3.2053148 L 984.63872,148.60565 c 13.59756,22.29118 15.91698,43.78789 6.52027,60.53592 z M 851.15656,-58.0055 c 1.8264,-1.881193 3.99063,-5.314801 3.84456,-10.92185 l -1.87209,-77.978 c -0.20087,-8.00878 -5.68006,-13.8167 -13.00391,-13.8167 -2.67567,0 -5.4335,0.8219 -7.98136,2.37431 l -9.4425,5.75318 c -1.73507,1.05929 -4.36505,0.84011 -5.03171,-0.23781 l -5.23258,-8.59323 c -16.4011,-26.93021 -38.61916,-41.15781 -64.25268,-41.15781 -25.1586,0.16444 -47.78767,15.08603 -63.73213,42.02535 l -53.54079,90.589273 c -3.26927,5.543146 -4.20071,12.026837 -2.5935,18.245704 1.5981,6.228025 5.51572,11.460657 11.06797,14.739034 3.68933,2.182549 7.91746,3.333224 12.23682,3.333224 8.47453,0 16.4102,-4.520379 20.71139,-11.816809 l 53.55906,-90.589276 c 6.68462,-11.29627 15.33259,-18.3553 22.55601,-18.40094 7.53388,0 15.87139,6.58413 22.89389,18.0539 l 5.23263,8.59322 c 0.31067,0.51139 0.3562,1.18716 0.1189,1.92684 -0.31066,1.04103 -1.09587,1.99989 -2.1917,2.6665 l -8.94933,5.46098 c -4.81258,2.94965 -7.50651,7.36949 -7.39692,12.12727 0.1098,4.776 3.03182,9.068081 7.98136,11.77112 l 68.45333,37.340677 c 5.94494,3.287484 12.49253,2.666508 16.56543,-1.488511 z m -69.11089,-52.85592 c 4.08201,-2.50217 7.09556,-6.31019 8.47448,-10.73003 1.4703,-4.76694 0.90412,-9.64342 -1.58894,-13.71627 l -5.24174,-8.6115 c -9.70733,-15.87134 -22.56517,-24.98506 -35.27688,-24.98506 -12.67519,0.0911 -25.41433,9.36939 -34.95726,25.4965 l -53.55906,90.60754 c -2.43827,4.136753 -8.93107,5.871873 -13.14088,3.369704 -2.20087,-1.296749 -3.78066,-3.378863 -4.41079,-5.880981 -0.63924,-2.483955 -0.27373,-5.077401 1.03192,-7.287373 l 53.54085,-90.59838 c 13.23221,-22.37335 31.6423,-34.79287 51.824,-34.92073 19.9625,0 37.71509,11.83507 51.35825,34.19931 l 5.24179,8.61145 c 2.94959,4.82168 8.66624,7.81697 14.91248,7.81697 3.54325,0 7.00423,-0.9406 9.9813,-2.75784 l 8.48359,-5.15962 1.80813,75.6768 -66.44433,-36.26311 7.96309,-4.86738 z"
       inkscape:connector-curvature="0" />
  </g>
</svg>
