<svg xmlns="http://www.w3.org/2000/svg" width="200" height="200"><g><path d="M199.79 99.926c0 55.19-44.74 99.928-99.928 99.928-55.188 0-99.928-44.74-99.928-99.928 0-55.19 44.74-99.928 99.928-99.928 55.19 0 99.928 44.74 99.928 99.928z" fill="#c83737"/><path d="M30.76 133.06l66.73 66.728c31.67.596 54.726-11.206 72.302-28.6 14.887-13.427 24.815-33.82 28.346-53.158L146.16 66.052c-7.23 7.193-15.418 15.617-21.796 22.223L109.76 73.67c-5.848 5.525-9.963 9.17-15.758 14.694-5.64-5.638-15.718-15.717-21.96-21.96-8.57 4.414-16.265 8.193-24.782 12.632-4.543 15.226-10.506 34.548-16.5 54.023z" opacity=".5" fill="#666"/><g><g><path d="M76.39 77.408c0 8.914-7.226 16.14-16.14 16.14-8.914 0-16.14-7.226-16.14-16.14 0-8.914 7.226-16.14 16.14-16.14 8.914 0 16.14 7.226 16.14 16.14z" fill="#c87137"/><path d="M31.184 133.346h28.678l-9.397-37.71s-9.038.52-11.837 3.54c-7.924 8.55-7.444 34.17-7.444 34.17z" fill="#333"/><path d="M91.358 133.346H62.68l9.396-37.71s9.038.52 11.838 3.54c7.923 8.55 7.444 34.17 7.444 34.17z" fill="#333"/><path d="M61.13 128.412l6.21-25.488-6.535-8.332-5.228 8.986z" fill="#37c8ab"/><path d="M73.536 111.483l12.952-.36-5.637 3.238z" fill="#ccc"/></g><g><path d="M150.594 77.174c0 8.914-7.226 16.14-16.14 16.14-8.914 0-16.14-7.226-16.14-16.14 0-8.914 7.226-16.14 16.14-16.14 8.914 0 16.14 7.226 16.14 16.14z" fill="#c87137"/><path d="M105.387 133.112h28.678l-9.396-37.708s-9.04.518-11.838 3.54c-7.924 8.55-7.445 34.168-7.445 34.168z" fill="#4d4d4d"/><path d="M165.56 133.112h-28.677l9.397-37.708s9.038.518 11.837 3.54c7.924 8.55 7.444 34.168 7.444 34.168z" fill="#4d4d4d"/><path d="M135.335 128.178l6.21-25.487-6.537-8.33-5.228 8.985z" fill="#37c8ab"/><path d="M147.74 111.25l12.952-.36-5.637 3.238z" fill="#ccc"/></g><g><path d="M113.474 83.95c0 8.914-7.226 16.14-16.14 16.14-8.914 0-16.14-7.226-16.14-16.14 0-8.914 7.226-16.14 16.14-16.14 8.914 0 16.14 7.226 16.14 16.14z" fill="#c87137"/><path d="M68.267 139.888h28.678L87.55 102.18s-9.04.518-11.84 3.54c-7.922 8.55-7.443 34.168-7.443 34.168z" fill="#1a1a1a"/><path d="M128.44 139.888H99.764l9.397-37.708s9.038.518 11.837 3.54c7.924 8.55 7.444 34.168 7.444 34.168z" fill="#1a1a1a"/><path d="M98.215 134.954l6.208-25.487-6.535-8.332-5.228 8.986z" fill="#37c8ab"/><path d="M110.62 118.025l12.95-.36-5.635 3.24z" fill="#ccc"/></g></g></g></svg>