<svg xmlns="http://www.w3.org/2000/svg" width="200" height="200"><g><g fill="#7137c8"><path d="M199.79 99.926c0 55.19-44.74 99.928-99.928 99.928-55.188 0-99.928-44.74-99.928-99.928 0-55.19 44.74-99.928 99.928-99.928 55.19 0 99.928 44.74 99.928 99.928z"/></g><path d="M45.063 137.6l61.708 61.708c9.937.22 22.1-2.64 31.586-7.07 10.583-4.94 21.374-11.51 29.885-19.508 7.794-7.323 14.427-16.007 19.51-25.414 4.92-9.102 8.078-17.402 10.085-29.204l-55.638-55.638-14.13 13.225-38.892-23.217L78.925 76z" opacity=".5" fill="#666"/><path d="M136.613 110.407l14.655-6.698c.42-.19.9-.205 1.33-.034.43.17.775.5.952.927l6.472 15.454c.15.254.236.553.236.87 0 .942-.763 1.704-1.707 1.704h-.022l-15.926-.058c-.115 0-.228-.013-.338-.037-.66-.134-1.474-.57-1.858-.828-.252-.172-.454-.4-.584-.674l-4.035-8.33c-.2-.416-.226-.89-.07-1.323.156-.433.48-.783.896-.973zm267.017 96.807c-.322-.42-.82-.668-1.347-.668-4.65-.024-13.346-.058-21.285-.086l-20.93-.084.01-1.71v-.016l.023-4.67c.003-.696-.415-1.323-1.055-1.588-.642-.264-1.38-.113-1.867.384l-17.903 18.255c-.658.673-.65 1.75.02 2.41 4.04 3.99 16.954 16.595 18.413 18.02.328.318.755.485 1.193.485.223 0 .45-.045.66-.132.632-.265 1.045-.883 1.046-1.567l.02-6.59 35.612.146h.007c.785 0 1.47-.535 1.656-1.297.358-1.448 1.207-4.187 2.77-9.112 1.08-3.422 2.563-8.106 3.255-10.702.136-.512.027-1.054-.295-1.476zm-65.332 12.91l-9.255-.158c-.303-.01-.6.07-.865.22-.404.227-1.16.756-1.58 1.284-.07.088-.13.18-.183.284l-7.238 14.187c-.26.512-.247 1.118.033 1.614.28.5.794.823 1.364.862l16.938 1.21c.06.01.12.01.18.007.396-.013.78-.167 1.078-.433.345-.308.548-.74.568-1.203l.635-16.1c.018-.458-.148-.905-.466-1.24-.314-.333-.75-.526-1.21-.533zm-58.61-44.604c-.3-.888-1.265-1.368-2.157-1.07-4.44 1.49-17.42 5.92-24.39 8.304-.647.222-1.1.81-1.15 1.496-.047.68.32 1.33.93 1.64l5.87 2.99-16.195 31.714c-.358.7-.19 1.556.41 2.072 1.13.973 3.19 2.964 6.874 6.57 2.566 2.51 6.08 5.952 8.09 7.743.33.295.76.45 1.193.433.085-.004.17-.016.256-.03.52-.097.963-.428 1.203-.9 2.115-4.14 6.07-11.887 9.676-18.956l9.518-18.642 1.52.78c.01.002.017.007.024.01.074.037.49.253 1.12.573l3.033 1.55c.616.317 1.364.226 1.892-.23.526-.453.723-1.18.5-1.838l-8.218-24.21zm1.162-36.305l15.177 5.41c.185.066.38.1.572.1.256 0 .51-.06.748-.174.412-.2.726-.56.87-.994l2.913-8.788c.094-.283.113-.59.05-.888-.097-.457-.378-1.34-.757-1.894-.064-.093-.137-.18-.218-.262l-11.38-11.137c-.407-.4-.99-.57-1.55-.45-.558.12-1.022.513-1.23 1.044l-6.21 15.805c-.168.43-.157.91.034 1.33.193.424.545.747.98.9zm27.856-12.237l14.954 14.647-1.195 1.217-.018.018-3.267 3.332c-.484.498-.62 1.238-.345 1.874.27.626.888 1.027 1.565 1.027.014 0 .028 0 .042-.003l25.557-.62c.94-.023 1.682-.8 1.662-1.74-.097-4.704-.454-18.404-.65-25.756-.018-.685-.442-1.295-1.08-1.545-.64-.25-1.365-.093-1.847.398l-4.603 4.71-25.442-24.92c-.563-.548-1.43-.642-2.097-.228-1.274.797-3.79 2.167-8.295 4.59-3.175 1.704-7.517 4.042-9.833 5.427-.453.27-.755.736-.817 1.263-.064.523.122 1.05.5 1.42 3.322 3.253 9.535 9.336 15.208 14.888zm11.52 41.596c-1.733 1.514-4.573 2.27-9.004 2.27-2.447 0-4.316-.182-5.433-.322v-23.865c1.4-.284 3.96-.504 6.443-.504 3.275 0 5.292.4 6.946 1.55 1.51.896 2.513 2.484 2.513 4.534 0 2.233-1.4 4.284-4.023 5.257v.074c2.555.645 4.892 2.663 4.892 6.007 0 2.16-.934 3.85-2.337 5zm-13.308 18.556h2.267c3.06 0 4.786-1.442 4.786-3.492 0-2.267-1.725-3.31-4.533-3.31-1.296 0-2.056.07-2.52.178v6.624zm1.087-.93c0-2.806-2.445-3.958-5.508-3.958h-2.193v7.918c.58.072 1.335.11 2.34.11 2.845 0 5.36-1.082 5.36-4.07zm11.92 11.902h4.43v-24.256h-4.43v24.256zm22.473-19.936c7.09 0 11.266 5.36 11.266 12.27 0 8.138-4.93 12.777-11.63 12.777-6.835 0-11.15-5.218-11.15-12.342 0-7.452 4.677-12.704 11.514-12.704zm11.718-12.67c-4.387 0-6.73 4.068-6.73 9.073 0 4.927 2.486 8.85 6.73 8.85 4.29 0 6.698-3.957 6.698-9.033 0-4.57-2.27-8.89-6.698-8.89z" fill="#00aad4"/></g></svg>