<?xml version="1.0" encoding="UTF-8" standalone="no"?>
<!-- Created with Inkscape (http://www.inkscape.org/) -->

<svg
   xmlns:dc="http://purl.org/dc/elements/1.1/"
   xmlns:cc="http://creativecommons.org/ns#"
   xmlns:rdf="http://www.w3.org/1999/02/22-rdf-syntax-ns#"
   xmlns:svg="http://www.w3.org/2000/svg"
   xmlns="http://www.w3.org/2000/svg"
   xmlns:sodipodi="http://sodipodi.sourceforge.net/DTD/sodipodi-0.dtd"
   xmlns:inkscape="http://www.inkscape.org/namespaces/inkscape"
   width="200"
   height="200"
   id="svg2"
   version="1.1"
   inkscape:version="0.48.4 r9939"
   sodipodi:docname="biological-power.svg">
  <defs
     id="defs4" />
  <sodipodi:namedview
     id="base"
     pagecolor="#ffffff"
     bordercolor="#666666"
     borderopacity="1.0"
     inkscape:pageopacity="0.0"
     inkscape:pageshadow="2"
     inkscape:zoom="1"
     inkscape:cx="103.58989"
     inkscape:cy="152.86945"
     inkscape:document-units="px"
     inkscape:current-layer="layer1"
     showgrid="false"
     showguides="true"
     inkscape:guide-bbox="true"
     inkscape:window-width="1680"
     inkscape:window-height="995"
     inkscape:window-x="0"
     inkscape:window-y="30"
     inkscape:window-maximized="1"
     fit-margin-top="0"
     fit-margin-left="0"
     fit-margin-right="0"
     fit-margin-bottom="0" />
  <metadata
     id="metadata7">
    <rdf:RDF>
      <cc:Work
         rdf:about="">
        <dc:format>image/svg+xml</dc:format>
        <dc:type
           rdf:resource="http://purl.org/dc/dcmitype/StillImage" />
        <dc:title />
      </cc:Work>
    </rdf:RDF>
  </metadata>
  <g
     inkscape:label="Layer 1"
     inkscape:groupmode="layer"
     id="layer1"
     transform="translate(-151.9805,-138.23176)">
    <g
       id="g3852"
       transform="matrix(0.60345495,0,0,0.60345495,60.267115,134.12413)">
      <g
         style="fill:#7137c8"
         id="g4054">
        <g
           id="g3971"
           style="fill:#7137c8">
          <path
             transform="matrix(1.2288162,0,0,1.2288162,-34.213261,-77.955268)"
             d="m 421.2336,203.83405 c 0,74.47856 -60.37681,134.85536 -134.85537,134.85536 -74.47855,0 -134.85536,-60.3768 -134.85536,-134.85536 0,-74.47856 60.37681,-134.855367 134.85536,-134.855367 74.47856,0 134.85537,60.376807 134.85537,134.855367 z"
             sodipodi:ry="134.85536"
             sodipodi:rx="134.85536"
             sodipodi:cy="203.83405"
             sodipodi:cx="286.37823"
             id="path3781"
             style="fill:#7137c8;fill-opacity:1;stroke:none"
             sodipodi:type="arc" />
        </g>
        <g
           id="g4042"
           transform="translate(-316,36)"
           style="fill:#7137c8">
          <g
             style="opacity:0.8;fill:#7137c8"
             transform="matrix(2.8303356,0,0,2.8303356,693.57306,-21.96385)"
             id="g3996" />
        </g>
      </g>
      <path
         sodipodi:nodetypes="ccccccccccc"
         transform="translate(151.9805,6.8068557)"
         inkscape:connector-curvature="0"
         id="path3850"
         d="m 74.845453,228.19626 c 0,0 75.462977,75.46298 102.335787,102.33579 16.47796,0.36543 36.648,-4.37929 52.37942,-11.72256 17.55058,-8.19244 35.44614,-19.09011 49.56066,-32.35356 12.92294,-12.14372 23.92293,-26.54526 32.35355,-42.14644 8.15683,-15.09452 13.39644,-28.85853 16.72392,-48.43103 -33.60306,-33.60305 -92.26776,-92.26777 -92.26776,-92.26777 L 212.5,125.54172 148,87.041717 131,126.04172 z"
         style="opacity:0.5;fill:#666666;stroke:none" />
      <path
         style="fill:#00aad4"
         inkscape:connector-curvature="0"
         d="m 378.64974,189.90857 24.30455,-11.10689 c 0.69759,-0.31543 1.49224,-0.3397 2.20601,-0.0546 0.71377,0.27904 1.28398,0.82903 1.57717,1.53673 l 10.73282,25.62897 c 0.25073,0.42058 0.39227,0.91596 0.39227,1.43967 0,1.56504 -1.26577,2.82879 -2.83081,2.82879 -0.004,0 -0.0162,0 -0.0283,0 -0.002,0 -0.004,0 -0.0102,0 l -26.41149,-0.0991 c -0.19007,0 -0.37811,-0.0202 -0.56009,-0.0607 -1.09391,-0.22242 -2.44461,-0.94427 -3.08155,-1.37295 -0.41856,-0.28509 -0.75218,-0.66523 -0.96854,-1.11817 l -6.69083,-13.81436 c -0.33161,-0.68951 -0.3761,-1.47607 -0.11727,-2.19388 0.25882,-0.71782 0.79465,-1.29814 1.48617,-1.61357 z m 41.42692,28.69839 c -0.53381,-0.6976 -1.35878,-1.10807 -2.23431,-1.10807 -7.70992,-0.0384 -22.13292,-0.0951 -35.29822,-0.14153 l -34.70982,-0.13953 0.0182,-2.83486 c 0,-0.0101 0,-0.0202 0,-0.0283 l 0.0364,-7.7443 c 0.004,-1.15456 -0.6895,-2.19388 -1.75106,-2.63265 -1.06559,-0.43878 -2.29094,-0.18805 -3.0957,0.63693 l -29.69118,30.27355 c -1.08986,1.11412 -1.07571,2.90158 0.0344,3.99548 6.70094,6.614 28.11604,27.51955 30.53436,29.88328 0.54392,0.52775 1.25365,0.80476 1.97955,0.80476 0.36802,0 0.74208,-0.0748 1.09189,-0.2204 1.04942,-0.43878 1.73286,-1.46394 1.73488,-2.59828 l 0.0344,-10.92694 59.05682,0.24062 c 0.004,0 0.008,0 0.0122,0 1.30217,0 2.43652,-0.88766 2.74588,-2.15142 0.59246,-2.40013 1.99978,-6.94358 4.58997,-15.11047 1.79352,-5.67581 4.25228,-13.44234 5.40078,-17.7472 0.22444,-0.85126 0.0445,-1.75106 -0.48933,-2.45067 z m -135.6202,2.51538 -15.34705,-0.26085 c -0.50349,-0.0162 -0.99685,0.11526 -1.43563,0.36194 -0.66928,0.37812 -1.92293,1.25567 -2.6185,2.1312 -0.11728,0.14559 -0.21838,0.30129 -0.30533,0.47113 l -12.00264,23.52812 c -0.4307,0.84722 -0.41047,1.85216 0.0546,2.67512 0.46506,0.827 1.31633,1.36486 2.26263,1.42956 l 28.08976,2.00786 c 0.0991,0.0122 0.19815,0.0142 0.29723,0.0101 0.65715,-0.0222 1.29206,-0.27701 1.78745,-0.71781 0.57223,-0.51157 0.90991,-1.22938 0.94226,-1.99572 l 1.05347,-26.70066 c 0.0303,-0.75825 -0.24466,-1.50033 -0.77241,-2.05436 -0.52168,-0.55403 -1.24354,-0.87351 -2.00583,-0.88563 z m -7.90606,-75.62518 c -0.49943,-1.47404 -2.09885,-2.26869 -3.57896,-1.7733 -7.36617,2.47089 -28.88845,9.81686 -40.44827,13.76988 -1.07369,0.36801 -1.82386,1.34261 -1.90676,2.48101 -0.0789,1.12828 0.52775,2.20399 1.54078,2.7196 l 9.73395,4.95594 -26.85633,52.59651 c -0.59447,1.16266 -0.31341,2.58009 0.67738,3.43539 1.87642,1.61357 5.29361,4.91551 11.40211,10.89462 4.25633,4.16534 10.08578,9.87144 13.41602,12.84177 0.54797,0.49135 1.25971,0.74613 1.97955,0.71984 0.14154,-0.006 0.28308,-0.0263 0.42463,-0.0485 0.8634,-0.16176 1.5994,-0.71175 1.99774,-1.49224 3.50617,-6.86675 10.06556,-19.71461 16.04666,-31.43822 l 15.78584,-30.91451 2.52144,1.29207 c 0.0142,0.004 0.0263,0.0122 0.0384,0.0162 0.12335,0.0627 0.81488,0.42057 1.85621,0.95237 l 5.03076,2.56997 c 1.02112,0.52572 2.26263,0.37407 3.13816,-0.38014 0.87149,-0.75219 1.19905,-1.9573 0.827,-3.04919 l -13.62629,-40.14902 z m 7.12961,-10.4174 25.16997,8.97166 c 0.30734,0.10919 0.62884,0.16581 0.94832,0.16581 0.42664,0 0.84924,-0.10111 1.24151,-0.28915 0.68344,-0.33565 1.20512,-0.93012 1.44372,-1.64996 l 4.83057,-14.57464 c 0.15368,-0.46911 0.18603,-0.97865 0.0809,-1.47202 -0.15973,-0.75826 -0.62682,-2.22219 -1.25566,-3.14018 -0.10514,-0.1557 -0.22647,-0.30128 -0.35992,-0.43474 l -18.87141,-18.46903 c -0.67738,-0.66525 -1.64389,-0.94428 -2.572,-0.74613 -0.92608,0.19816 -1.69444,0.84925 -2.04021,1.73084 l -10.30011,26.20929 c -0.27701,0.71175 -0.25882,1.50842 0.0586,2.20601 0.3215,0.70164 0.90586,1.23748 1.6257,1.49224 z m 41.50173,-13.43625 24.79995,24.2904 -1.98157,2.01797 c -0.0101,0.0101 -0.0202,0.0202 -0.0303,0.0303 l -5.41696,5.52615 c -0.80274,0.82499 -1.0292,2.05234 -0.57223,3.10784 0.44888,1.03728 1.47202,1.70252 2.59424,1.70252 0.0243,0 0.0465,0 0.0707,-0.004 l 42.38333,-1.0292 c 1.55898,-0.0384 2.79038,-1.32846 2.75802,-2.88743 -0.16176,-7.79889 -0.7542,-30.51819 -1.07772,-42.71091 -0.0303,-1.13637 -0.734,-2.14737 -1.79352,-2.56189 -1.05954,-0.41451 -2.26263,-0.15367 -3.06133,0.6612 l -7.63308,7.80901 L 334.028,76.271653 c -0.93417,-0.909905 -2.37182,-1.065599 -3.47786,-0.378116 -2.113,1.320372 -6.2844,3.59311 -13.75573,7.608821 -5.26531,2.828791 -12.46568,6.704982 -16.30751,9.001986 -0.75016,0.448885 -1.25162,1.221291 -1.35473,2.094801 -0.10515,0.86744 0.20219,1.73893 0.82901,2.35362 5.50998,5.396745 15.81414,15.484545 25.22053,24.690755 z m -8.21946,77.82917 c -2.87328,2.50931 -7.58254,3.76296 -14.93051,3.76296 -4.05818,0 -7.15792,-0.30128 -9.01008,-0.53381 v -39.57679 c 2.32531,-0.47113 6.56749,-0.8351 10.68631,-0.8351 5.43112,0 8.77553,0.66121 11.5194,2.56796 2.50324,1.4882 4.16938,4.12085 4.16938,7.52187 0,3.7023 -2.32127,7.10333 -6.67263,8.71688 V 181.22 c 4.23813,1.06964 8.1123,4.41607 8.1123,9.96244 0,3.57896 -1.54886,6.38146 -3.87417,8.29024 z m -16.65731,-20.4688 h 3.75891 c 5.07524,0 7.93841,-2.39204 7.93841,-5.79103 0,-3.75893 -2.86317,-5.48977 -7.51986,-5.48977 -2.14939,0 -3.4091,0.11729 -4.17746,0.29523 v 10.98557 z m 12.76898,11.93592 c 0,-4.65467 -4.05412,-6.56546 -9.13342,-6.56546 h -3.63758 v 13.13092 c 0.96044,0.1193 2.21409,0.17997 3.88023,0.17997 4.71937,0 8.89077,-1.79151 8.89077,-6.74543 z m 11.35965,11.87728 h 7.34798 v -40.22585 h -7.34798 v 40.22585 z m 29.79229,-40.88098 c 11.75798,0 18.68337,8.88875 18.68337,20.3495 0,13.49489 -8.17701,21.18864 -19.28593,21.18864 -11.33741,0 -18.4933,-8.6542 -18.4933,-20.46881 0.002,-12.35852 7.75643,-21.06933 19.09586,-21.06933 z m -0.18198,5.90427 c -7.27519,0 -11.15948,6.74542 -11.15948,15.04577 0,8.17296 4.12086,14.67776 11.15948,14.67776 7.11342,0 11.10689,-6.56141 11.10689,-14.97904 0,-7.58051 -3.76296,-14.74449 -11.10689,-14.74449 z"
         id="path3837" />
    </g>
  </g>
</svg>
