<svg xmlns="http://www.w3.org/2000/svg" width="200" height="200"><g><path d="M199.79 99.926c0 55.19-44.74 99.928-99.928 99.928-55.188 0-99.928-44.74-99.928-99.928 0-55.19 44.74-99.928 99.928-99.928 55.19 0 99.928 44.74 99.928 99.928z" fill="#c83771"/><path d="M54.286 141.51l57.562 57.563c16.04-1.897 28.712-6.792 40.942-14.506 11.18-7.05 21.627-16.645 29.314-27.395 5.86-8.197 9.495-17.204 13.005-26.65 2.33-6.272 3.17-10.976 4.118-20.748-17.45-17.452-47.968-47.968-47.968-47.968l-40.256-11.124-31.98 5.97-12.577 14.07-5.756 22.172.214 4.477-4.264 1.493 1.493 39.228z" opacity=".5" fill="#666"/><g fill="#00d400"><path d="M91.583 98.196l-7.71-2.344c2.55-2.726 5.305-5.418 8.236-8.02l28.164 5.173-24.342-8.414c3.42-2.764 7.072-5.36 10.956-7.704l27.692 6.945-22.995-9.6c10.075-5.278 21.558-8.74 34.44-8.844-.832 5.778-3.64 20.002-11.938 31.52H141c9.554-14.91 11.014-32.314 11.094-33.378.004-.053-.027-.104-.034-.153.377-1.02-.193-2.206-1.483-2.796-44.333-20.347-67.546-9.494-77.442-1.21-15.185 12.714-17.826 33.998-9.958 43.832.196.243.433.456.7.63.957.623 2.273.777 3.297.318 1.316-.596 1.658-1.98.77-3.095-5.858-7.32-4.418-26.65 9.566-38.353 10.015-8.38 28.855-15.018 62.593-1.644-11.562.827-21.95 4.036-31.177 8.687l.462-11.583-6.297 14.78c-4.087 2.447-7.92 5.147-11.497 8.025L89.8 61.973l-3.535 22.94c-.02.14-.027.294-.013.44.003.06.042.11.056.167-2.25 2.045-4.387 4.136-6.4 6.254L76.24 77.58l-.616 18.888c-14.156 16.324-21.47 32.384-22.085 33.768-.418.93.042 2.01 1.045 2.663.224.15.48.276.756.37 1.512.534 3.142.035 3.653-1.113.15-.332 7.52-16.534 21.8-32.894l8.472.98v-1.57l2.318-.477z" opacity=".8"/><text style="line-height:125%" x="547.532" y="205.418" font-size="105.705" letter-spacing="0" word-spacing="0" font-family="Sans" transform="matrix(.603 0 0 .603 -282.262 17.6)"><tspan x="547.532" y="205.418">BIO</tspan></text></g></g></svg>