<svg xmlns="http://www.w3.org/2000/svg" width="200" height="200"><g><path d="M199.806 99.926c0 55.19-44.74 99.928-99.928 99.928-55.188 0-99.928-44.74-99.928-99.928 0-55.19 44.74-99.928 99.928-99.928 55.19 0 99.928 44.74 99.928 99.928z" fill="#5fd35f"/><path d="M27.555 124.713c24.956 24.955 52.248 52.26 75.086 75.098 31.03-1.044 57.777-15.924 72.534-34.19 16.224-17.986 25.773-44.464 24.554-69.23L141.58 38.24c-33.866 23.523-73.265 39.076-102.137 68.212-5.122 5.17-7.978 11.56-11.888 18.26z" opacity=".5" fill="#666"/><path d="M68.807 161.427l-20.71-61.376 20.71-39.893h62.13l20.71 39.894-20.71 61.377z" fill="#c87137" stroke="#000" stroke-width="0.398583"/><path d="M48.105 103.234h103.533" stroke="#000" stroke-width="0.41426100000000005" fill="none"/><path d="M68.812 60.165L58.46 38.423h82.825l-10.353 21.742z" fill="#c87137" stroke="#000" stroke-width="0.41426100000000005"/><path d="M68.812 60.165l-15.53 14.7L27.4 124.563l20.705-21.328z" fill="#c87137" stroke="#000" stroke-width="0.41426100000000005"/><path d="M130.932 60.165l15.53 14.7 25.883 49.697-20.707-21.328z" fill="#c87137" stroke="#000" stroke-width="0.41426100000000005"/><path d="M151.638 103.234l10.354 28.99H37.752l10.353-28.99z" fill="#c87137" stroke="#000" stroke-width="0.41426100000000005"/><path d="M68.812 60.165v43.07h62.12v-43.07z" fill="#a05a2c" stroke="#000" stroke-width="0.41426100000000005"/><path d="M130.932 60.165v43.07h20.706z" fill="#a05a2c" stroke="#000" stroke-width="0.41426100000000005"/><path d="M68.812 60.165v43.07H48.105z" fill="#a05a2c" stroke="#000" stroke-width="0.41426100000000005"/></g></svg>