<svg xmlns="http://www.w3.org/2000/svg" width="200" height="200"><g><path d="M199.79 99.928c0 55.19-44.74 99.928-99.928 99.928-55.188 0-99.928-44.74-99.928-99.928C-.066 44.738 44.674 0 99.862 0c55.19 0 99.928 44.74 99.928 99.928z" fill="#00aad4"/><path d="M48.076 153.506l46.187 46.187c29.056 2.065 58.618-10.206 79.344-31.726 14.64-16.473 25.385-39.887 26.167-63.552l-58.04-58.04c-2.274 1.566-1.407 6.544-1.895 9.736-3.672 24.01 9.904 53.825-5.428 72.662-18.897 23.218-52.188 9.823-86.336 24.734z" opacity=".5" fill="#666"/><path d="M121.445 46.34L134.7 59.592l-13.93.21z" opacity=".5" fill="#666"/><path d="M100.57 46.342l13.254 13.254-13.93.21z" opacity=".5" fill="#666"/><path d="M80.22 46.342l13.253 13.254-13.93.21z" opacity=".5" fill="#666"/><path d="M61.717 46.336L74.97 59.59l-13.93.212z" opacity=".5" fill="#666"/><g><path fill="#f2f2f2" d="M48.108 57.306h103.627v96.413H48.108z"/><path d="M123.3 101.133l-28.685 25.725-16.888-17.134-2.762 2.73 19.48 19.766 31.446-28.2z" fill="#808080"/><path fill="#5f5" d="M48.384 57.31H151.6v23.488H48.385z"/><path fill="#808080" d="M58.014 46.477h3.74V64.7h-3.74z"/><path fill="#808080" d="M138.157 46.477h3.74v18.207h-3.74z"/><path fill="#808080" d="M96.895 46.477h3.74v18.207h-3.74z"/><path fill="#808080" d="M76.53 46.477h3.74v18.207h-3.74z"/><path fill="#808080" d="M117.79 46.477h3.742v18.207h-3.74z"/><path fill="#ccc" d="M58.014 46.477h3.74v9.463h-3.74z"/><path fill="#ccc" d="M76.53 46.477h3.74v9.446h-3.74z"/><path fill="#ccc" d="M96.895 46.477h3.74v9.48h-3.74z"/><path fill="#ccc" d="M117.79 46.477h3.742v9.48h-3.74z"/><path fill="#ccc" d="M138.157 46.477h3.74v9.48h-3.74z"/></g></g></svg>