<svg xmlns="http://www.w3.org/2000/svg" width="200" height="200"><defs><pattern patternUnits="userSpaceOnUse" width="25" height="25" patternTransform="translate(927.981 276.349)"><path transform="matrix(.342 0 0 .342 -205.822 -36.487)" d="M674 143.042a36.5 36.5 0 1 1-73 0 36.5 36.5 0 1 1 73 0z" fill="#6c5d53"/></pattern><pattern patternUnits="userSpaceOnUse" width="2.695" height="2.695" patternTransform="translate(952.981 318.654)"><path fill="#c8ab37" d="M0 0h2.695v2.695H0z"/><path transform="matrix(.216 0 0 .216 -172.64 -59.081)" d="M809.55 280.807a2.652 2.652 0 1 1-5.304 0 2.652 2.652 0 1 1 5.303 0z" fill="#28170b"/></pattern></defs><g><path d="M199.79 99.926c0 55.19-44.74 99.928-99.928 99.928-55.188 0-99.928-44.74-99.928-99.928 0-55.19 44.74-99.928 99.928-99.928 55.19 0 99.928 44.74 99.928 99.928z" fill="#2affd5"/><path d="M50.734 135.51l63.164 63.166c18.477-2.44 29.984-8.306 41.004-15.528 13.195-8.647 21.34-17.318 29.848-30.602 7.427-11.593 13.122-24.313 14.246-40.024l-63.089-63.09-6.738-.98-34.126 33.842-35.416-32.86-11.155 11.155 33.09 35.274-32.487 32.487z" opacity=".5" fill="#666"/><g fill="#800000"><path d="M93.702 121.76l-5.1-5.1c-.383-.385-1.004-.385-1.388 0-.383.383-.383 1.004 0 1.393l5.1 5.094-3.987 3.987-5.1-5.1c-.383-.383-1.004-.383-1.388 0-.39.386-.39 1.007 0 1.392l5.093 5.098-4.515 4.52-5.1-5.1c-.384-.382-1.005-.382-1.388 0-.384.383-.384 1.004 0 1.392l5.1 5.097-5.237 5.235-10.23-10.232c-.384-.384-1.01-.384-1.394 0-.38.384-.38 1.008 0 1.392l10.235 10.232-6.255 6.254-16.203-16.203 28.097-28.093-2.776-2.78-28.105 28.096c-1.53 1.533-1.53 4.026 0 5.56l16.203 16.198c1.533 1.535 4.026 1.535 5.565 0l28.097-28.096-2.782-2.778-2.543 2.543z"/><path d="M132.073 50.986l16.203 16.2-4.938 4.934-5.564-5.56c-.38-.384-1.004-.384-1.388 0-.384.386-.384 1.006 0 1.39l5.566 5.56-3.99 3.988-5.563-5.563c-.383-.38-1.005-.38-1.39 0-.38.384-.38 1.007 0 1.39l5.56 5.56-4.516 4.52-5.566-5.56c-.376-.386-1.005-.386-1.388 0-.382.383-.382 1.006 0 1.39l5.564 5.56-4.365 4.365-10.24-10.232c-.38-.385-1.003-.385-1.385 0-.384.386-.384 1.007 0 1.39l10.23 10.232-6.316 6.324-5.567-5.562c-.384-.384-1.005-.384-1.394 0-.385.385-.385 1.006 0 1.39l5.56 5.562-1.08 1.078 2.783 2.778 32.16-32.155c1.532-1.533 1.532-4.026 0-5.56l-16.196-16.2c-1.538-1.534-4.033-1.534-5.564 0L97.138 80.362l2.774 2.78 32.16-32.154z"/><path d="M152.63 149.616c-9.62-20.945-10.47-21.792-10.792-22.114l-78.525-78.53c-1.753-1.752-4.61-1.752-6.362 0l-8.74 8.746c-1.754 1.753-1.754 4.604 0 6.36l78.525 78.53c.362.36 1.206 1.2 23.004 10.03.854.347 1.835.136 2.467-.53.642-.664.804-1.653.423-2.492zM-135.137-123.4l8.74-8.745 9.817 9.817-8.736 8.744-9.82-9.816zm61.732 55.702l8.74-8.746 63.947 63.942-8.742 8.74L19.857 24.45zM75.083 78.44l7.594-7.594c1.45 2.907 3.9 8.082 6.424 13.515-5.613-2.307-10.982-4.563-14.017-5.92z"/></g></g></svg>