<?xml version="1.0" encoding="UTF-8" standalone="no"?><svg xmlns="http://www.w3.org/2000/svg" xmlns:sodipodi="http://sodipodi.sourceforge.net/DTD/sodipodi-0.dtd" xmlns:inkscape="http://www.inkscape.org/namespaces/inkscape" width="200" height="200" version="1.1"><defs id="defs4"><pattern patternUnits="userSpaceOnUse" width="25" height="25" patternTransform="translate(927.9805,276.34857)" id="pattern5445"><path transform="matrix(0.34246576,0,0,0.34246576,-205.82192,-36.48689)" d="m 674,143.04172 a 36.5,36.5 0 1 1 -73,0 36.5,36.5 0 1 1 73,0 z" sodipodi:ry="36.5" sodipodi:rx="36.5" sodipodi:cy="143.04172" sodipodi:cx="637.5" id="path3999" sodipodi:type="arc" fill="#6c5d53"/></pattern><pattern patternUnits="userSpaceOnUse" width="2.694914" height="2.694914" patternTransform="translate(952.98053,318.65366)" id="pattern5466"><rect height="2.694914" width="2.694914" id="rect5462" fill="#c8ab37"/><path transform="matrix(0.215625,0,0,0.215625,-172.63976,-59.081116)" d="m 809.54887,280.80679 a 2.6516504,2.6516504 0 1 1 -5.3033,0 2.6516504,2.6516504 0 1 1 5.3033,0 z" sodipodi:ry="2.6516504" sodipodi:rx="2.6516504" sodipodi:cy="280.80679" sodipodi:cx="806.89722" id="path5464" sodipodi:type="arc" fill="#28170b"/></pattern></defs><metadata id="metadata7"/><g inkscape:label="Layer 1" inkscape:groupmode="layer" id="layer1" transform="translate(-151.98049,-138.29017)"><g id="g6091" transform="matrix(0.60345495,0,0,0.60345495,60.267113,134.14729)"><path transform="matrix(1.2288162,0,0,1.2288162,-34.213266,-77.896863)" d="m 421.2336,203.83405 c 0,74.47856 -60.37681,134.85536 -134.85537,134.85536 -74.47855,0 -134.85536,-60.3768 -134.85536,-134.85536 0,-74.47856 60.37681,-134.855367 134.85536,-134.855367 74.47856,0 134.85537,60.376807 134.85537,134.855367 z" sodipodi:ry="134.85536" sodipodi:rx="134.85536" sodipodi:cy="203.83405" sodipodi:cx="286.37823" id="path3781" sodipodi:type="arc" fill="#2affd5"/><path sodipodi:nodetypes="ccccccccccccc" transform="translate(151.9805,6.8068557)" inkscape:connector-curvature="0" id="path6089" d="m 84.25,224.79172 c 0,0 65.6463,65.6463 104.75,104.75 30.64173,-4.04599 49.7243,-13.77322 68,-25.75 21.88262,-14.34054 35.38747,-28.71965 49.5,-50.75 12.31634,-19.22641 21.76116,-40.32091 23.625,-66.375 C 297.11523,153.65694 225.5,82.041718 225.5,82.041718 L 214.32538,80.413038 157.73223,136.53652 99,82.041718 80.5,100.54172 l 54.875,58.5 -53.875,53.875 z" opacity="0.5" fill="#666666"/><g transform="matrix(3.1969379,0,0,3.1969379,215.39095,71.249057)" id="g6062" fill="#800000"><path inkscape:connector-curvature="0" d="m 28.804,43.018 -2.645,-2.645 c -0.199,-0.199 -0.521,-0.199 -0.72,0 -0.199,0.199 -0.199,0.521 0,0.723 l 2.645,2.642 -2.068,2.068 -2.645,-2.645 c -0.199,-0.199 -0.521,-0.199 -0.72,0 -0.202,0.2 -0.202,0.522 0,0.722 l 2.642,2.644 -2.342,2.345 -2.645,-2.646 c -0.199,-0.198 -0.521,-0.198 -0.72,0 -0.199,0.199 -0.199,0.521 0,0.722 l 2.645,2.644 -2.716,2.715 L 14.209,47 c -0.199,-0.199 -0.524,-0.199 -0.723,0 -0.196,0.199 -0.196,0.523 0,0.722 l 5.309,5.307 -3.244,3.244 L 7.147,47.869 21.72,33.297 20.28,31.855 5.703,46.428 c -0.794,0.795 -0.794,2.088 0,2.883 l 8.404,8.402 c 0.795,0.796 2.088,0.796 2.886,0 L 31.566,43.14 30.123,41.699 28.804,43.018 z" id="path6064"/><path inkscape:connector-curvature="0" d="m 48.706,6.31 8.404,8.402 -2.561,2.56 -2.886,-2.884 c -0.198,-0.199 -0.521,-0.199 -0.72,0 -0.199,0.2 -0.199,0.522 0,0.721 l 2.887,2.884 -2.069,2.068 -2.886,-2.885 c -0.198,-0.198 -0.521,-0.198 -0.72,0 -0.198,0.199 -0.198,0.522 0,0.721 l 2.883,2.884 -2.342,2.344 -2.887,-2.884 c -0.195,-0.2 -0.521,-0.2 -0.72,0 -0.198,0.199 -0.198,0.522 0,0.721 l 2.886,2.884 -2.264,2.264 -5.31,-5.307 c -0.198,-0.2 -0.521,-0.2 -0.719,0 -0.199,0.2 -0.199,0.522 0,0.721 l 5.306,5.307 -3.276,3.28 -2.887,-2.885 c -0.199,-0.199 -0.521,-0.199 -0.723,0 -0.199,0.2 -0.199,0.522 0,0.721 l 2.885,2.885 -0.56,0.559 1.443,1.441 16.68,-16.678 c 0.795,-0.795 0.795,-2.088 0,-2.884 l -8.4,-8.402 c -0.798,-0.796 -2.092,-0.796 -2.886,0 L 30.586,21.546 32.025,22.988 48.706,6.31 z" id="path6066"/><path inkscape:connector-curvature="0" d="M 59.368,57.467 C 54.378,46.603 53.937,46.164 53.771,45.997 L 13.042,5.266 c -0.909,-0.909 -2.391,-0.909 -3.3,0 L 5.208,9.802 c -0.909,0.909 -0.909,2.388 0,3.298 l 40.729,40.732 c 0.188,0.186 0.626,0.622 11.932,5.203 0.443,0.179 0.952,0.07 1.28,-0.275 0.333,-0.345 0.417,-0.858 0.219,-1.293 z M 6.856,11.451 11.39,6.915 16.481,12.007 11.95,16.542 6.856,11.451 z m 6.743,6.742 4.534,-4.536 L 51.3,46.822 46.766,51.355 13.599,18.193 z m 35.136,34.494 3.938,-3.939 c 0.753,1.508 2.023,4.192 3.332,7.01 -2.911,-1.197 -5.696,-2.367 -7.27,-3.071 z" id="path6068"/></g></g></g></svg>