<?xml version="1.0" encoding="UTF-8" standalone="no"?>
<!-- Created with Inkscape (http://www.inkscape.org/) -->

<svg
   xmlns:dc="http://purl.org/dc/elements/1.1/"
   xmlns:cc="http://creativecommons.org/ns#"
   xmlns:rdf="http://www.w3.org/1999/02/22-rdf-syntax-ns#"
   xmlns:svg="http://www.w3.org/2000/svg"
   xmlns="http://www.w3.org/2000/svg"
   xmlns:sodipodi="http://sodipodi.sourceforge.net/DTD/sodipodi-0.dtd"
   xmlns:inkscape="http://www.inkscape.org/namespaces/inkscape"
   width="200"
   height="200"
   id="svg2"
   version="1.1"
   inkscape:version="0.48.4 r9939"
   sodipodi:docname="e-agricultural-solutions.svg">
  <defs
     id="defs4">
    <pattern
       patternUnits="userSpaceOnUse"
       width="25"
       height="25"
       patternTransform="translate(927.9805,276.34857)"
       id="pattern5445">
      <path
         transform="matrix(0.34246576,0,0,0.34246576,-205.82192,-36.48689)"
         d="m 674,143.04172 a 36.5,36.5 0 1 1 -73,0 36.5,36.5 0 1 1 73,0 z"
         sodipodi:ry="36.5"
         sodipodi:rx="36.5"
         sodipodi:cy="143.04172"
         sodipodi:cx="637.5"
         id="path3999"
         style="fill:#6c5d53;fill-opacity:1;stroke:none"
         sodipodi:type="arc" />
    </pattern>
    <pattern
       patternUnits="userSpaceOnUse"
       width="2.6949136"
       height="2.6949136"
       patternTransform="translate(952.98053,318.65366)"
       id="pattern5466">
      <rect
         y="0"
         x="0"
         height="2.6949136"
         width="2.6949136"
         id="rect5462"
         style="fill:#c8ab37;fill-opacity:1;stroke:none" />
      <path
         transform="matrix(0.215625,0,0,0.215625,-172.63976,-59.081116)"
         d="m 809.54887,280.80679 a 2.6516504,2.6516504 0 1 1 -5.3033,0 2.6516504,2.6516504 0 1 1 5.3033,0 z"
         sodipodi:ry="2.6516504"
         sodipodi:rx="2.6516504"
         sodipodi:cy="280.80679"
         sodipodi:cx="806.89722"
         id="path5464"
         style="fill:#28170b;fill-opacity:1;stroke:none"
         sodipodi:type="arc" />
    </pattern>
  </defs>
  <sodipodi:namedview
     id="base"
     pagecolor="#ffffff"
     bordercolor="#666666"
     borderopacity="1.0"
     inkscape:pageopacity="0.0"
     inkscape:pageshadow="2"
     inkscape:zoom="0.5"
     inkscape:cx="-333.53528"
     inkscape:cy="318.62056"
     inkscape:document-units="px"
     inkscape:current-layer="layer1"
     showgrid="false"
     showguides="true"
     inkscape:guide-bbox="true"
     inkscape:window-width="1680"
     inkscape:window-height="995"
     inkscape:window-x="0"
     inkscape:window-y="30"
     inkscape:window-maximized="1"
     fit-margin-top="0"
     fit-margin-left="0"
     fit-margin-right="0"
     fit-margin-bottom="0" />
  <metadata
     id="metadata7">
    <rdf:RDF>
      <cc:Work
         rdf:about="">
        <dc:format>image/svg+xml</dc:format>
        <dc:type
           rdf:resource="http://purl.org/dc/dcmitype/StillImage" />
        <dc:title />
      </cc:Work>
    </rdf:RDF>
  </metadata>
  <g
     inkscape:label="Layer 1"
     inkscape:groupmode="layer"
     id="layer1"
     transform="translate(-151.98049,-138.29017)">
    <g
       id="g6035"
       transform="matrix(0.60345495,0,0,0.60345495,60.267113,134.14729)">
      <path
         transform="matrix(1.2288162,0,0,1.2288162,-34.213266,-77.896863)"
         d="m 421.2336,203.83405 c 0,74.47856 -60.37681,134.85536 -134.85537,134.85536 -74.47855,0 -134.85536,-60.3768 -134.85536,-134.85536 0,-74.47856 60.37681,-134.855367 134.85536,-134.855367 74.47856,0 134.85537,60.376807 134.85537,134.855367 z"
         sodipodi:ry="134.85536"
         sodipodi:rx="134.85536"
         sodipodi:cy="203.83405"
         sodipodi:cx="286.37823"
         id="path3781"
         style="fill:#00ccff;fill-opacity:1;stroke:none"
         sodipodi:type="arc" />
      <path
         sodipodi:nodetypes="cccccccccccccccccc"
         transform="translate(151.9805,6.8068557)"
         inkscape:connector-curvature="0"
         id="path6031"
         d="m 87.5625,254.85422 c 0,0 52.50943,52.50943 76.46189,76.46188 24.80254,0.73835 38.85193,-3.59822 54.4612,-8.40611 14.7652,-4.5479 28.00467,-12.20426 41.07285,-20.44544 10.61909,-6.69672 22.23365,-18.30964 30.74138,-27.54163 11.69845,-12.69433 14.01397,-15.11456 22.44848,-30.1764 4.66701,-8.33407 9.20988,-19.14358 11.92863,-33.52787 C 290.1634,176.70512 227,113.54172 227,113.54172 L 201.07031,96.936249 179.6875,74.979218 141,115.04172 130.94734,96.60549 l -40.614449,38.89087 -12.197592,39.77476 4.242641,30.58237 9.104,21.92031 -6.187185,13.34664 z"
         style="opacity:0.5;fill:#666666;stroke:none" />
      <g
         style="fill:#aad400"
         transform="matrix(7.5039488,0,0,7.5039488,163.71942,35.011573)"
         id="g5931">
        <path
           inkscape:connector-curvature="0"
           style="fill:#aad400"
           d="m 25.231,9.16 c 0.2,0.414 0.409,0.824 0.636,1.221 0.054,0.094 0.09,0.189 0.139,0.283 3.328,1.91 5.581,5.488 5.581,9.593 0,6.104 -4.966,11.069 -11.063,11.069 -0.013,0 -1.333,-0.032 -1.868,-0.938 -0.478,-0.809 -0.242,-2.161 0.681,-3.91 0.634,-0.38 1.296,-0.852 1.949,-1.428 1.052,-0.948 2.03,-2.158 2.786,-3.56 0.792,-1.387 1.306,-2.979 1.57,-4.642 C 25.886,15.19 25.876,13.452 25.49,11.789 25.142,10.132 24.449,8.545 23.531,7.281 22.609,6.021 21.467,5.119 20.556,4.722 20.127,4.499 19.684,4.438 19.43,4.39 19.164,4.357 19.022,4.341 19.022,4.341 c 0,0 -0.028,0.135 -0.091,0.39 -0.054,0.239 -0.229,0.617 -0.358,0.98 -0.33,0.777 -0.843,1.661 -1.415,2.62 -1.107,1.898 -2.165,4.231 -2.529,6.856 -0.182,1.302 -0.262,2.651 -0.134,3.994 0.099,1.334 0.358,2.647 0.696,3.83 0.313,1.057 1.002,3.477 1.342,4.172 0.599,-0.903 1.19,-1.839 1.694,-2.837 0.393,-0.684 0.68,-1.41 1,-2.11 0.319,-0.705 0.514,-1.438 0.77,-2.132 0.192,-0.706 0.328,-1.405 0.482,-2.06 0.064,-0.672 0.125,-1.309 0.184,-1.895 -0.033,-0.59 -0.062,-1.131 -0.084,-1.609 0.008,-0.491 -0.168,-0.883 -0.221,-1.223 -0.157,-0.678 -0.247,-1.066 -0.247,-1.066 0,0 0.118,0.381 0.325,1.044 0.079,0.337 0.285,0.73 0.313,1.22 0.062,0.483 0.128,1.034 0.204,1.633 -0.014,0.604 -0.027,1.258 -0.044,1.951 -0.108,0.679 -0.197,1.409 -0.342,2.15 -0.209,0.727 -0.357,1.502 -0.631,2.248 -0.275,0.746 -0.519,1.52 -0.869,2.246 -0.187,0.431 -0.383,0.854 -0.586,1.271 l -0.023,-0.012 c -0.162,0.306 -0.299,0.6 -0.423,0.886 -0.052,0.1 -0.101,0.203 -0.154,0.302 0.012,-0.005 0.025,-0.01 0.038,-0.014 -0.618,1.554 -0.665,2.807 -0.117,3.726 0.828,1.388 2.636,1.421 2.718,1.422 6.655,0 12.069,-5.414 12.069,-12.069 -0.003,-4.981 -3.04,-9.257 -7.358,-11.095 z"
           id="path5933" />
        <path
           inkscape:connector-curvature="0"
           style="fill:#aad400"
           d="M 14.154,27.025 C 13.489,25.98 12.19,25.58 11.075,26.011 10.017,24.28 9.448,22.297 9.448,20.256 c 0,-4.257 2.419,-7.955 5.953,-9.807 0.1,-0.478 0.271,-0.923 0.493,-1.338 -4.366,1.818 -7.445,6.127 -7.445,11.145 0,2.232 0.617,4.402 1.777,6.295 -0.864,0.828 -1.057,2.176 -0.392,3.222 l 0.268,0.422 0.747,-0.474 0.804,1.266 0.843,-0.536 -0.804,-1.266 0.959,-0.61 0.804,1.267 0.845,-0.537 -0.805,-1.266 0.929,-0.591 -0.27,-0.423 z m -3.676,1.746 c -0.154,-0.632 0.1,-1.32 0.678,-1.688 0.58,-0.368 1.31,-0.307 1.817,0.102 l -2.495,1.586 z"
           id="path5935" />
      </g>
    </g>
  </g>
</svg>
