<svg xmlns="http://www.w3.org/2000/svg" width="200" height="200"><defs><pattern patternUnits="userSpaceOnUse" width="25" height="25" patternTransform="translate(927.981 276.349)"><path transform="matrix(.342 0 0 .342 -205.822 -36.487)" d="M674 143.042a36.5 36.5 0 1 1-73 0 36.5 36.5 0 1 1 73 0z" fill="#6c5d53"/></pattern><pattern patternUnits="userSpaceOnUse" width="2.695" height="2.695" patternTransform="translate(952.981 318.654)"><path fill="#c8ab37" d="M0 0h2.695v2.695H0z"/><path transform="matrix(.216 0 0 .216 -172.64 -59.081)" d="M809.55 280.807a2.652 2.652 0 1 1-5.304 0 2.652 2.652 0 1 1 5.303 0z" fill="#28170b"/></pattern></defs><g><path d="M199.79 99.926c0 55.19-44.74 99.928-99.928 99.928-55.188 0-99.928-44.74-99.928-99.928 0-55.19 44.74-99.928 99.928-99.928 55.19 0 99.928 44.74 99.928 99.928z" fill="#0cf"/><path d="M52.73 153.64l46.108 46.106c14.956.445 23.427-2.17 32.84-5.07 8.903-2.742 16.887-7.358 24.767-12.328 6.403-4.038 13.407-11.04 18.537-16.607 7.054-7.654 8.45-9.114 13.536-18.196 2.814-5.025 5.554-11.543 7.193-20.217l-58.898-58.9-15.636-10.012-12.893-13.24-23.33 24.157-6.06-11.117-24.49 23.45-7.356 23.985 2.558 18.442 5.49 13.218-3.73 8.048z" opacity=".5" fill="#666"/><g fill="#aad400"><path d="M121.18 58.418c.905 1.873 1.85 3.73 2.878 5.525.245.425.407.855.63 1.28 15.058 8.643 25.253 24.834 25.253 43.41 0 27.62-22.47 50.086-50.06 50.086-.058 0-6.03-.146-8.452-4.245-2.163-3.66-1.095-9.78 3.082-17.693 2.87-1.72 5.864-3.855 8.82-6.462 4.76-4.29 9.185-9.765 12.606-16.11 3.584-6.275 5.91-13.48 7.104-21.004 1.104-7.502 1.06-15.367-.688-22.892-1.574-7.498-4.71-14.68-8.864-20.398-4.172-5.702-9.34-9.784-13.462-11.58-1.94-1.01-3.946-1.285-5.095-1.502-1.203-.15-1.845-.222-1.845-.222s-.127.61-.412 1.765c-.245 1.08-1.036 2.792-1.62 4.434-1.493 3.517-3.815 7.517-6.403 11.857-5.01 8.588-9.797 19.145-11.444 31.023-.823 5.892-1.185 11.996-.606 18.073.448 6.036 1.62 11.978 3.15 17.33 1.416 4.784 4.533 15.734 6.072 18.88 2.71-4.087 5.385-8.322 7.665-12.838 1.778-3.095 3.077-6.38 4.525-9.548 1.444-3.19 2.326-6.507 3.484-9.647.87-3.195 1.485-6.358 2.18-9.322.29-3.04.567-5.923.834-8.575-.15-2.67-.28-5.118-.38-7.28.036-2.222-.76-3.996-1-5.535-.71-3.068-1.118-4.823-1.118-4.823s.534 1.724 1.47 4.724c.358 1.524 1.29 3.302 1.417 5.52.28 2.185.578 4.678.922 7.39-.063 2.732-.122 5.69-.2 8.827-.487 3.072-.89 6.376-1.546 9.73-.946 3.288-1.616 6.795-2.856 10.17-1.244 3.377-2.348 6.88-3.932 10.164-.846 1.95-1.733 3.865-2.65 5.752l-.106-.054c-.733 1.385-1.353 2.715-1.914 4.01-.235.452-.457.918-.696 1.366.054-.023.113-.046.17-.064-2.795 7.032-3.008 12.702-.528 16.86 3.747 6.28 11.928 6.43 12.3 6.435 30.113 0 54.61-24.498 54.61-54.612-.012-22.54-13.755-41.888-33.294-50.205z"/><path d="M71.057 139.257c-3.01-4.728-8.887-6.54-13.933-4.588-4.787-7.834-7.362-16.807-7.362-26.043 0-19.263 10.946-35.996 26.938-44.376.452-2.162 1.226-4.176 2.23-6.054-19.756 8.227-33.688 27.725-33.688 50.43 0 10.1 2.792 19.92 8.04 28.486-3.91 3.747-4.782 9.847-1.773 14.58l1.212 1.91 3.38-2.145 3.638 5.728 3.814-2.425-3.638-5.73 4.34-2.76 3.638 5.734 3.824-2.43-3.643-5.73 4.204-2.673-1.223-1.913zm-73.537-104.33c-.697-2.86.453-5.974 3.068-7.64 2.625-1.665 5.928-1.39 8.222.462l-11.29 7.176z"/></g></g></svg>