<?xml version="1.0" encoding="UTF-8" standalone="no"?>
<!-- Created with Inkscape (http://www.inkscape.org/) -->

<svg
   xmlns:dc="http://purl.org/dc/elements/1.1/"
   xmlns:cc="http://creativecommons.org/ns#"
   xmlns:rdf="http://www.w3.org/1999/02/22-rdf-syntax-ns#"
   xmlns:svg="http://www.w3.org/2000/svg"
   xmlns="http://www.w3.org/2000/svg"
   xmlns:xlink="http://www.w3.org/1999/xlink"
   xmlns:sodipodi="http://sodipodi.sourceforge.net/DTD/sodipodi-0.dtd"
   xmlns:inkscape="http://www.inkscape.org/namespaces/inkscape"
   width="200"
   height="200"
   id="svg2"
   version="1.1"
   inkscape:version="0.48.4 r9939"
   sodipodi:docname="e-medical-solutions.svg">
  <defs
     id="defs4">
    <pattern
       inkscape:collect="always"
       xlink:href="#pattern5472"
       id="pattern5478"
       patternTransform="translate(974.03692,-665.95054)" />
    <pattern
       inkscape:collect="always"
       xlink:href="#pattern5472"
       id="pattern5476"
       patternTransform="translate(844.49698,676.394)" />
    <pattern
       inkscape:collect="always"
       xlink:href="#pattern5466"
       id="pattern5472"
       patternTransform="translate(866.7135,246.52877)" />
    <pattern
       patternUnits="userSpaceOnUse"
       width="25"
       height="25"
       patternTransform="translate(927.9805,276.34857)"
       id="pattern5445">
      <path
         transform="matrix(0.34246576,0,0,0.34246576,-205.82192,-36.48689)"
         d="m 674,143.04172 a 36.5,36.5 0 1 1 -73,0 36.5,36.5 0 1 1 73,0 z"
         sodipodi:ry="36.5"
         sodipodi:rx="36.5"
         sodipodi:cy="143.04172"
         sodipodi:cx="637.5"
         id="path3999"
         style="fill:#6c5d53;fill-opacity:1;stroke:none"
         sodipodi:type="arc" />
    </pattern>
    <pattern
       patternUnits="userSpaceOnUse"
       width="2.6949136"
       height="2.6949136"
       patternTransform="translate(952.98053,318.65366)"
       id="pattern5466">
      <rect
         y="0"
         x="0"
         height="2.6949136"
         width="2.6949136"
         id="rect5462"
         style="fill:#c8ab37;fill-opacity:1;stroke:none" />
      <path
         transform="matrix(0.215625,0,0,0.215625,-172.63976,-59.081116)"
         d="m 809.54887,280.80679 a 2.6516504,2.6516504 0 1 1 -5.3033,0 2.6516504,2.6516504 0 1 1 5.3033,0 z"
         sodipodi:ry="2.6516504"
         sodipodi:rx="2.6516504"
         sodipodi:cy="280.80679"
         sodipodi:cx="806.89722"
         id="path5464"
         style="fill:#28170b;fill-opacity:1;stroke:none"
         sodipodi:type="arc" />
    </pattern>
  </defs>
  <sodipodi:namedview
     id="base"
     pagecolor="#ffffff"
     bordercolor="#666666"
     borderopacity="1.0"
     inkscape:pageopacity="0.0"
     inkscape:pageshadow="2"
     inkscape:zoom="1"
     inkscape:cx="72.243103"
     inkscape:cy="140.87222"
     inkscape:document-units="px"
     inkscape:current-layer="layer1"
     showgrid="false"
     showguides="true"
     inkscape:guide-bbox="true"
     inkscape:window-width="1680"
     inkscape:window-height="995"
     inkscape:window-x="0"
     inkscape:window-y="30"
     inkscape:window-maximized="1"
     fit-margin-top="0"
     fit-margin-left="0"
     fit-margin-right="0"
     fit-margin-bottom="0" />
  <metadata
     id="metadata7">
    <rdf:RDF>
      <cc:Work
         rdf:about="">
        <dc:format>image/svg+xml</dc:format>
        <dc:type
           rdf:resource="http://purl.org/dc/dcmitype/StillImage" />
        <dc:title />
      </cc:Work>
    </rdf:RDF>
  </metadata>
  <g
     inkscape:label="Layer 1"
     inkscape:groupmode="layer"
     id="layer1"
     transform="translate(-151.98049,-138.29017)">
    <g
       id="g5828"
       transform="matrix(0.60345495,0,0,0.60345495,60.267113,134.14729)">
      <path
         transform="matrix(1.2288162,0,0,1.2288162,-34.213266,-77.896863)"
         d="m 421.2336,203.83405 c 0,74.47856 -60.37681,134.85536 -134.85537,134.85536 -74.47855,0 -134.85536,-60.3768 -134.85536,-134.85536 0,-74.47856 60.37681,-134.855367 134.85536,-134.855367 74.47856,0 134.85537,60.376807 134.85537,134.855367 z"
         sodipodi:ry="134.85536"
         sodipodi:rx="134.85536"
         sodipodi:cy="203.83405"
         sodipodi:cx="286.37823"
         id="path3781"
         style="fill:#aad400;fill-opacity:1;stroke:none"
         sodipodi:type="arc" />
      <path
         sodipodi:nodetypes="cccccccc"
         inkscape:connector-curvature="0"
         id="path5492"
         d="m 386.69706,102.13202 -140.81781,141.3178 c 0,0 63.23955,63.23955 93.25,93.25 27.94272,-3.23591 47.38393,-11.89734 65.60125,-23.35124 16.38792,-9.89626 31.00938,-23.03038 43.25,-37.75 10.36315,-12.46192 16.29201,-24.99543 23,-39.75 5.27295,-11.59812 9.6215,-25.06166 10.71655,-38.71656 -29.5324,-29.5324 -94.99999,-95 -94.99999,-95 z"
         style="opacity:0.5;fill:#666666;stroke:none" />
      <g
         style="fill:#c8ab37"
         transform="matrix(0.4797558,0,0,0.4797558,-138.29426,127.1519)"
         id="g5484">
        <rect
           style="fill:#c8ab37;fill-opacity:1;stroke:none"
           id="rect4001"
           width="116"
           height="418"
           x="680.0368"
           y="-812.25562"
           ry="61"
           inkscape:transform-center-x="12.995303"
           inkscape:transform-center-y="-41.001483"
           transform="matrix(0.70702564,0.70718791,-0.70718791,0.70702564,0,0)" />
        <rect
           ry="61"
           y="530.08887"
           x="550.49689"
           height="418"
           width="116"
           id="rect5474"
           style="fill:#c8ab37;fill-opacity:1;stroke:none"
           transform="matrix(0.70846653,-0.70574442,0.70574442,0.70846653,0,0)" />
      </g>
      <g
         style="opacity:0.5"
         id="g5530">
        <g
           style="fill:#483737"
           transform="matrix(0.02867701,0,0,0.02867701,223.149,216.84948)"
           id="g5494">
          <rect
             style="fill:#483737;fill-opacity:1;stroke:none"
             id="rect5496"
             width="116"
             height="418"
             x="680.0368"
             y="-812.25562"
             ry="61"
             inkscape:transform-center-x="12.995303"
             inkscape:transform-center-y="-41.001483"
             transform="matrix(0.70702564,0.70718791,-0.70718791,0.70702564,0,0)" />
          <rect
             ry="61"
             y="530.08887"
             x="550.49689"
             height="418"
             width="116"
             id="rect5498"
             style="fill:#483737;fill-opacity:1;stroke:none"
             transform="matrix(0.70846653,-0.70574442,0.70574442,0.70846653,0,0)" />
        </g>
        <g
           id="g5500"
           transform="matrix(0.02867701,0,0,0.02867701,235.649,231.34948)"
           style="fill:#483737">
          <rect
             transform="matrix(0.70702564,0.70718791,-0.70718791,0.70702564,0,0)"
             inkscape:transform-center-y="-41.001483"
             inkscape:transform-center-x="12.995303"
             ry="61"
             y="-812.25562"
             x="680.0368"
             height="418"
             width="116"
             id="rect5502"
             style="fill:#483737;fill-opacity:1;stroke:none" />
          <rect
             transform="matrix(0.70846653,-0.70574442,0.70574442,0.70846653,0,0)"
             style="fill:#483737;fill-opacity:1;stroke:none"
             id="rect5504"
             width="116"
             height="418"
             x="550.49689"
             y="530.08887"
             ry="61" />
        </g>
        <g
           style="fill:#483737"
           transform="matrix(0.02867701,0,0,0.02867701,239.149,214.84948)"
           id="g5506">
          <rect
             style="fill:#483737;fill-opacity:1;stroke:none"
             id="rect5508"
             width="116"
             height="418"
             x="680.0368"
             y="-812.25562"
             ry="61"
             inkscape:transform-center-x="12.995303"
             inkscape:transform-center-y="-41.001483"
             transform="matrix(0.70702564,0.70718791,-0.70718791,0.70702564,0,0)" />
          <rect
             ry="61"
             y="530.08887"
             x="550.49689"
             height="418"
             width="116"
             id="rect5510"
             style="fill:#483737;fill-opacity:1;stroke:none"
             transform="matrix(0.70846653,-0.70574442,0.70574442,0.70846653,0,0)" />
        </g>
        <g
           id="g5512"
           transform="matrix(0.02867701,0,0,0.02867701,254.149,222.84948)"
           style="fill:#483737">
          <rect
             transform="matrix(0.70702564,0.70718791,-0.70718791,0.70702564,0,0)"
             inkscape:transform-center-y="-41.001483"
             inkscape:transform-center-x="12.995303"
             ry="61"
             y="-812.25562"
             x="680.0368"
             height="418"
             width="116"
             id="rect5514"
             style="fill:#483737;fill-opacity:1;stroke:none" />
          <rect
             transform="matrix(0.70846653,-0.70574442,0.70574442,0.70846653,0,0)"
             style="fill:#483737;fill-opacity:1;stroke:none"
             id="rect5516"
             width="116"
             height="418"
             x="550.49689"
             y="530.08887"
             ry="61" />
        </g>
        <g
           style="fill:#483737"
           transform="matrix(0.02867701,0,0,0.02867701,240.149,200.34948)"
           id="g5518">
          <rect
             style="fill:#483737;fill-opacity:1;stroke:none"
             id="rect5520"
             width="116"
             height="418"
             x="680.0368"
             y="-812.25562"
             ry="61"
             inkscape:transform-center-x="12.995303"
             inkscape:transform-center-y="-41.001483"
             transform="matrix(0.70702564,0.70718791,-0.70718791,0.70702564,0,0)" />
          <rect
             ry="61"
             y="530.08887"
             x="550.49689"
             height="418"
             width="116"
             id="rect5522"
             style="fill:#483737;fill-opacity:1;stroke:none"
             transform="matrix(0.70846653,-0.70574442,0.70574442,0.70846653,0,0)" />
        </g>
        <g
           id="g5524"
           transform="matrix(0.02867701,0,0,0.02867701,240.149,200.34948)"
           style="fill:#483737">
          <rect
             transform="matrix(0.70702564,0.70718791,-0.70718791,0.70702564,0,0)"
             inkscape:transform-center-y="-41.001483"
             inkscape:transform-center-x="12.995303"
             ry="61"
             y="-812.25562"
             x="680.0368"
             height="418"
             width="116"
             id="rect5526"
             style="fill:#483737;fill-opacity:1;stroke:none" />
          <rect
             transform="matrix(0.70846653,-0.70574442,0.70574442,0.70846653,0,0)"
             style="fill:#483737;fill-opacity:1;stroke:none"
             id="rect5528"
             width="116"
             height="418"
             x="550.49689"
             y="530.08887"
             ry="61" />
        </g>
      </g>
      <g
         style="opacity:0.5"
         transform="translate(99.5,-96)"
         id="g5550">
        <g
           id="g5552"
           transform="matrix(0.02867701,0,0,0.02867701,223.149,216.84948)"
           style="fill:#483737">
          <rect
             transform="matrix(0.70702564,0.70718791,-0.70718791,0.70702564,0,0)"
             inkscape:transform-center-y="-41.001483"
             inkscape:transform-center-x="12.995303"
             ry="61"
             y="-812.25562"
             x="680.0368"
             height="418"
             width="116"
             id="rect5554"
             style="fill:#483737;fill-opacity:1;stroke:none" />
          <rect
             transform="matrix(0.70846653,-0.70574442,0.70574442,0.70846653,0,0)"
             style="fill:#483737;fill-opacity:1;stroke:none"
             id="rect5556"
             width="116"
             height="418"
             x="550.49689"
             y="530.08887"
             ry="61" />
        </g>
        <g
           style="fill:#483737"
           transform="matrix(0.02867701,0,0,0.02867701,235.649,231.34948)"
           id="g5558">
          <rect
             style="fill:#483737;fill-opacity:1;stroke:none"
             id="rect5560"
             width="116"
             height="418"
             x="680.0368"
             y="-812.25562"
             ry="61"
             inkscape:transform-center-x="12.995303"
             inkscape:transform-center-y="-41.001483"
             transform="matrix(0.70702564,0.70718791,-0.70718791,0.70702564,0,0)" />
          <rect
             ry="61"
             y="530.08887"
             x="550.49689"
             height="418"
             width="116"
             id="rect5562"
             style="fill:#483737;fill-opacity:1;stroke:none"
             transform="matrix(0.70846653,-0.70574442,0.70574442,0.70846653,0,0)" />
        </g>
        <g
           id="g5564"
           transform="matrix(0.02867701,0,0,0.02867701,239.149,214.84948)"
           style="fill:#483737">
          <rect
             transform="matrix(0.70702564,0.70718791,-0.70718791,0.70702564,0,0)"
             inkscape:transform-center-y="-41.001483"
             inkscape:transform-center-x="12.995303"
             ry="61"
             y="-812.25562"
             x="680.0368"
             height="418"
             width="116"
             id="rect5566"
             style="fill:#483737;fill-opacity:1;stroke:none" />
          <rect
             transform="matrix(0.70846653,-0.70574442,0.70574442,0.70846653,0,0)"
             style="fill:#483737;fill-opacity:1;stroke:none"
             id="rect5568"
             width="116"
             height="418"
             x="550.49689"
             y="530.08887"
             ry="61" />
        </g>
        <g
           style="fill:#483737"
           transform="matrix(0.02867701,0,0,0.02867701,254.149,222.84948)"
           id="g5570">
          <rect
             style="fill:#483737;fill-opacity:1;stroke:none"
             id="rect5572"
             width="116"
             height="418"
             x="680.0368"
             y="-812.25562"
             ry="61"
             inkscape:transform-center-x="12.995303"
             inkscape:transform-center-y="-41.001483"
             transform="matrix(0.70702564,0.70718791,-0.70718791,0.70702564,0,0)" />
          <rect
             ry="61"
             y="530.08887"
             x="550.49689"
             height="418"
             width="116"
             id="rect5574"
             style="fill:#483737;fill-opacity:1;stroke:none"
             transform="matrix(0.70846653,-0.70574442,0.70574442,0.70846653,0,0)" />
        </g>
        <g
           id="g5576"
           transform="matrix(0.02867701,0,0,0.02867701,240.149,200.34948)"
           style="fill:#483737">
          <rect
             transform="matrix(0.70702564,0.70718791,-0.70718791,0.70702564,0,0)"
             inkscape:transform-center-y="-41.001483"
             inkscape:transform-center-x="12.995303"
             ry="61"
             y="-812.25562"
             x="680.0368"
             height="418"
             width="116"
             id="rect5578"
             style="fill:#483737;fill-opacity:1;stroke:none" />
          <rect
             transform="matrix(0.70846653,-0.70574442,0.70574442,0.70846653,0,0)"
             style="fill:#483737;fill-opacity:1;stroke:none"
             id="rect5580"
             width="116"
             height="418"
             x="550.49689"
             y="530.08887"
             ry="61" />
        </g>
        <g
           style="fill:#483737"
           transform="matrix(0.02867701,0,0,0.02867701,240.149,200.34948)"
           id="g5582">
          <rect
             style="fill:#483737;fill-opacity:1;stroke:none"
             id="rect5584"
             width="116"
             height="418"
             x="680.0368"
             y="-812.25562"
             ry="61"
             inkscape:transform-center-x="12.995303"
             inkscape:transform-center-y="-41.001483"
             transform="matrix(0.70702564,0.70718791,-0.70718791,0.70702564,0,0)" />
          <rect
             ry="61"
             y="530.08887"
             x="550.49689"
             height="418"
             width="116"
             id="rect5586"
             style="fill:#483737;fill-opacity:1;stroke:none"
             transform="matrix(0.70846653,-0.70574442,0.70574442,0.70846653,0,0)" />
        </g>
      </g>
      <g
         style="opacity:0.5"
         inkscape:transform-center-x="6"
         id="g5588"
         transform="translate(4.0000004,-98)">
        <g
           style="fill:#483737"
           transform="matrix(0.02867701,0,0,0.02867701,223.149,216.84948)"
           id="g5590">
          <rect
             style="fill:#483737;fill-opacity:1;stroke:none"
             id="rect5592"
             width="116"
             height="418"
             x="680.0368"
             y="-812.25562"
             ry="61"
             inkscape:transform-center-x="12.995303"
             inkscape:transform-center-y="-41.001483"
             transform="matrix(0.70702564,0.70718791,-0.70718791,0.70702564,0,0)" />
          <rect
             ry="61"
             y="530.08887"
             x="550.49689"
             height="418"
             width="116"
             id="rect5594"
             style="fill:#483737;fill-opacity:1;stroke:none"
             transform="matrix(0.70846653,-0.70574442,0.70574442,0.70846653,0,0)" />
        </g>
        <g
           id="g5596"
           transform="matrix(0.02867701,0,0,0.02867701,235.649,231.34948)"
           style="fill:#483737">
          <rect
             transform="matrix(0.70702564,0.70718791,-0.70718791,0.70702564,0,0)"
             inkscape:transform-center-y="-41.001483"
             inkscape:transform-center-x="12.995303"
             ry="61"
             y="-812.25562"
             x="680.0368"
             height="418"
             width="116"
             id="rect5598"
             style="fill:#483737;fill-opacity:1;stroke:none" />
          <rect
             transform="matrix(0.70846653,-0.70574442,0.70574442,0.70846653,0,0)"
             style="fill:#483737;fill-opacity:1;stroke:none"
             id="rect5600"
             width="116"
             height="418"
             x="550.49689"
             y="530.08887"
             ry="61" />
        </g>
        <g
           style="fill:#483737"
           transform="matrix(0.02867701,0,0,0.02867701,239.149,214.84948)"
           id="g5602">
          <rect
             style="fill:#483737;fill-opacity:1;stroke:none"
             id="rect5604"
             width="116"
             height="418"
             x="680.0368"
             y="-812.25562"
             ry="61"
             inkscape:transform-center-x="12.995303"
             inkscape:transform-center-y="-41.001483"
             transform="matrix(0.70702564,0.70718791,-0.70718791,0.70702564,0,0)" />
          <rect
             ry="61"
             y="530.08887"
             x="550.49689"
             height="418"
             width="116"
             id="rect5606"
             style="fill:#483737;fill-opacity:1;stroke:none"
             transform="matrix(0.70846653,-0.70574442,0.70574442,0.70846653,0,0)" />
        </g>
        <g
           id="g5608"
           transform="matrix(0.02867701,0,0,0.02867701,254.149,222.84948)"
           style="fill:#483737">
          <rect
             transform="matrix(0.70702564,0.70718791,-0.70718791,0.70702564,0,0)"
             inkscape:transform-center-y="-41.001483"
             inkscape:transform-center-x="12.995303"
             ry="61"
             y="-812.25562"
             x="680.0368"
             height="418"
             width="116"
             id="rect5610"
             style="fill:#483737;fill-opacity:1;stroke:none" />
          <rect
             transform="matrix(0.70846653,-0.70574442,0.70574442,0.70846653,0,0)"
             style="fill:#483737;fill-opacity:1;stroke:none"
             id="rect5612"
             width="116"
             height="418"
             x="550.49689"
             y="530.08887"
             ry="61" />
        </g>
        <g
           style="fill:#483737"
           transform="matrix(0.02867701,0,0,0.02867701,240.149,200.34948)"
           id="g5614">
          <rect
             style="fill:#483737;fill-opacity:1;stroke:none"
             id="rect5616"
             width="116"
             height="418"
             x="680.0368"
             y="-812.25562"
             ry="61"
             inkscape:transform-center-x="12.995303"
             inkscape:transform-center-y="-41.001483"
             transform="matrix(0.70702564,0.70718791,-0.70718791,0.70702564,0,0)" />
          <rect
             ry="61"
             y="530.08887"
             x="550.49689"
             height="418"
             width="116"
             id="rect5618"
             style="fill:#483737;fill-opacity:1;stroke:none"
             transform="matrix(0.70846653,-0.70574442,0.70574442,0.70846653,0,0)" />
        </g>
        <g
           id="g5620"
           transform="matrix(0.02867701,0,0,0.02867701,240.149,200.34948)"
           style="fill:#483737">
          <rect
             transform="matrix(0.70702564,0.70718791,-0.70718791,0.70702564,0,0)"
             inkscape:transform-center-y="-41.001483"
             inkscape:transform-center-x="12.995303"
             ry="61"
             y="-812.25562"
             x="680.0368"
             height="418"
             width="116"
             id="rect5622"
             style="fill:#483737;fill-opacity:1;stroke:none" />
          <rect
             transform="matrix(0.70846653,-0.70574442,0.70574442,0.70846653,0,0)"
             style="fill:#483737;fill-opacity:1;stroke:none"
             id="rect5624"
             width="116"
             height="418"
             x="550.49689"
             y="530.08887"
             ry="61" />
        </g>
      </g>
      <g
         style="opacity:0.5"
         transform="translate(104.5,3.4999996)"
         id="g5626"
         inkscape:transform-center-x="6">
        <g
           id="g5628"
           transform="matrix(0.02867701,0,0,0.02867701,223.149,216.84948)"
           style="fill:#483737">
          <rect
             transform="matrix(0.70702564,0.70718791,-0.70718791,0.70702564,0,0)"
             inkscape:transform-center-y="-41.001483"
             inkscape:transform-center-x="12.995303"
             ry="61"
             y="-812.25562"
             x="680.0368"
             height="418"
             width="116"
             id="rect5630"
             style="fill:#483737;fill-opacity:1;stroke:none" />
          <rect
             transform="matrix(0.70846653,-0.70574442,0.70574442,0.70846653,0,0)"
             style="fill:#483737;fill-opacity:1;stroke:none"
             id="rect5632"
             width="116"
             height="418"
             x="550.49689"
             y="530.08887"
             ry="61" />
        </g>
        <g
           style="fill:#483737"
           transform="matrix(0.02867701,0,0,0.02867701,235.649,231.34948)"
           id="g5634">
          <rect
             style="fill:#483737;fill-opacity:1;stroke:none"
             id="rect5636"
             width="116"
             height="418"
             x="680.0368"
             y="-812.25562"
             ry="61"
             inkscape:transform-center-x="12.995303"
             inkscape:transform-center-y="-41.001483"
             transform="matrix(0.70702564,0.70718791,-0.70718791,0.70702564,0,0)" />
          <rect
             ry="61"
             y="530.08887"
             x="550.49689"
             height="418"
             width="116"
             id="rect5638"
             style="fill:#483737;fill-opacity:1;stroke:none"
             transform="matrix(0.70846653,-0.70574442,0.70574442,0.70846653,0,0)" />
        </g>
        <g
           id="g5640"
           transform="matrix(0.02867701,0,0,0.02867701,239.149,214.84948)"
           style="fill:#483737">
          <rect
             transform="matrix(0.70702564,0.70718791,-0.70718791,0.70702564,0,0)"
             inkscape:transform-center-y="-41.001483"
             inkscape:transform-center-x="12.995303"
             ry="61"
             y="-812.25562"
             x="680.0368"
             height="418"
             width="116"
             id="rect5642"
             style="fill:#483737;fill-opacity:1;stroke:none" />
          <rect
             transform="matrix(0.70846653,-0.70574442,0.70574442,0.70846653,0,0)"
             style="fill:#483737;fill-opacity:1;stroke:none"
             id="rect5644"
             width="116"
             height="418"
             x="550.49689"
             y="530.08887"
             ry="61" />
        </g>
        <g
           style="fill:#483737"
           transform="matrix(0.02867701,0,0,0.02867701,254.149,222.84948)"
           id="g5646">
          <rect
             style="fill:#483737;fill-opacity:1;stroke:none"
             id="rect5648"
             width="116"
             height="418"
             x="680.0368"
             y="-812.25562"
             ry="61"
             inkscape:transform-center-x="12.995303"
             inkscape:transform-center-y="-41.001483"
             transform="matrix(0.70702564,0.70718791,-0.70718791,0.70702564,0,0)" />
          <rect
             ry="61"
             y="530.08887"
             x="550.49689"
             height="418"
             width="116"
             id="rect5650"
             style="fill:#483737;fill-opacity:1;stroke:none"
             transform="matrix(0.70846653,-0.70574442,0.70574442,0.70846653,0,0)" />
        </g>
        <g
           id="g5652"
           transform="matrix(0.02867701,0,0,0.02867701,240.149,200.34948)"
           style="fill:#483737">
          <rect
             transform="matrix(0.70702564,0.70718791,-0.70718791,0.70702564,0,0)"
             inkscape:transform-center-y="-41.001483"
             inkscape:transform-center-x="12.995303"
             ry="61"
             y="-812.25562"
             x="680.0368"
             height="418"
             width="116"
             id="rect5654"
             style="fill:#483737;fill-opacity:1;stroke:none" />
          <rect
             transform="matrix(0.70846653,-0.70574442,0.70574442,0.70846653,0,0)"
             style="fill:#483737;fill-opacity:1;stroke:none"
             id="rect5656"
             width="116"
             height="418"
             x="550.49689"
             y="530.08887"
             ry="61" />
        </g>
        <g
           style="fill:#483737"
           transform="matrix(0.02867701,0,0,0.02867701,240.149,200.34948)"
           id="g5658">
          <rect
             style="fill:#483737;fill-opacity:1;stroke:none"
             id="rect5660"
             width="116"
             height="418"
             x="680.0368"
             y="-812.25562"
             ry="61"
             inkscape:transform-center-x="12.995303"
             inkscape:transform-center-y="-41.001483"
             transform="matrix(0.70702564,0.70718791,-0.70718791,0.70702564,0,0)" />
          <rect
             ry="61"
             y="530.08887"
             x="550.49689"
             height="418"
             width="116"
             id="rect5662"
             style="fill:#483737;fill-opacity:1;stroke:none"
             transform="matrix(0.70846653,-0.70574442,0.70574442,0.70846653,0,0)" />
        </g>
      </g>
    </g>
  </g>
</svg>
