<svg xmlns="http://www.w3.org/2000/svg" width="200" height="200"><defs><pattern patternUnits="userSpaceOnUse" width="25" height="25" patternTransform="translate(927.981 276.349)"><path transform="matrix(.342 0 0 .342 -205.822 -36.487)" d="M674 143.042a36.5 36.5 0 1 1-73 0 36.5 36.5 0 1 1 73 0z" fill="#6c5d53"/></pattern><pattern patternUnits="userSpaceOnUse" width="2.695" height="2.695" patternTransform="translate(952.981 318.654)"><path fill="#c8ab37" d="M0 0h2.695v2.695H0z"/><path transform="matrix(.216 0 0 .216 -172.64 -59.081)" d="M809.55 280.807a2.652 2.652 0 1 1-5.304 0 2.652 2.652 0 1 1 5.303 0z" fill="#28170b"/></pattern></defs><g><path d="M199.79 99.926c0 55.19-44.74 99.928-99.928 99.928-55.188 0-99.928-44.74-99.928-99.928 0-55.19 44.74-99.928 99.928-99.928 55.19 0 99.928 44.74 99.928 99.928z" fill="#aad400"/><path d="M141.465 57.443l-84.913 85.214 56.23 56.23c16.85-1.95 28.572-7.174 39.557-14.08 9.88-5.968 18.698-13.888 26.08-22.764 6.248-7.515 9.823-15.072 13.868-23.97 3.18-6.993 5.802-15.11 6.462-23.345l-57.285-57.285z" opacity=".5" fill="#666"/><g transform="matrix(.289 0 0 .289 -175.104 72.53)" fill="#c8ab37"><rect width="116" height="418" x="680.037" y="-812.256" ry="61" transform="rotate(45.007)"/><rect ry="61" y="530.089" x="550.497" height="418" width="116" transform="rotate(-44.89)"/></g><g opacity=".5" fill="#483737"><g transform="matrix(.017 0 0 .017 42.846 126.617)"><rect width="116" height="418" x="680.037" y="-812.256" ry="61" transform="rotate(45.007)"/><rect ry="61" y="530.089" x="550.497" height="418" width="116" transform="rotate(-44.89)"/></g><g transform="matrix(.017 0 0 .017 50.383 135.36)"><rect transform="rotate(45.007)" ry="61" y="-812.256" x="680.037" height="418" width="116"/><rect transform="rotate(-44.89)" width="116" height="418" x="550.497" y="530.089" ry="61"/></g><g transform="matrix(.017 0 0 .017 52.494 125.411)"><rect width="116" height="418" x="680.037" y="-812.256" ry="61" transform="rotate(45.007)"/><rect ry="61" y="530.089" x="550.497" height="418" width="116" transform="rotate(-44.89)"/></g><g transform="matrix(.017 0 0 .017 61.539 130.235)"><rect transform="rotate(45.007)" ry="61" y="-812.256" x="680.037" height="418" width="116"/><rect transform="rotate(-44.89)" width="116" height="418" x="550.497" y="530.089" ry="61"/></g><g transform="matrix(.017 0 0 .017 53.097 116.667)"><rect width="116" height="418" x="680.037" y="-812.256" ry="61" transform="rotate(45.007)"/><rect ry="61" y="530.089" x="550.497" height="418" width="116" transform="rotate(-44.89)"/></g><g transform="matrix(.017 0 0 .017 53.097 116.667)"><rect transform="rotate(45.007)" ry="61" y="-812.256" x="680.037" height="418" width="116"/><rect transform="rotate(-44.89)" width="116" height="418" x="550.497" y="530.089" ry="61"/></g></g><g opacity=".5" fill="#483737"><g transform="matrix(.017 0 0 .017 102.845 68.729)"><rect transform="rotate(45.007)" ry="61" y="-812.256" x="680.037" height="418" width="116"/><rect transform="rotate(-44.89)" width="116" height="418" x="550.497" y="530.089" ry="61"/></g><g transform="matrix(.017 0 0 .017 110.382 77.472)"><rect width="116" height="418" x="680.037" y="-812.256" ry="61" transform="rotate(45.007)"/><rect ry="61" y="530.089" x="550.497" height="418" width="116" transform="rotate(-44.89)"/></g><g transform="matrix(.017 0 0 .017 112.493 67.523)"><rect transform="rotate(45.007)" ry="61" y="-812.256" x="680.037" height="418" width="116"/><rect transform="rotate(-44.89)" width="116" height="418" x="550.497" y="530.089" ry="61"/></g><g transform="matrix(.017 0 0 .017 121.538 72.347)"><rect width="116" height="418" x="680.037" y="-812.256" ry="61" transform="rotate(45.007)"/><rect ry="61" y="530.089" x="550.497" height="418" width="116" transform="rotate(-44.89)"/></g><g transform="matrix(.017 0 0 .017 113.096 58.779)"><rect transform="rotate(45.007)" ry="61" y="-812.256" x="680.037" height="418" width="116"/><rect transform="rotate(-44.89)" width="116" height="418" x="550.497" y="530.089" ry="61"/></g><g transform="matrix(.017 0 0 .017 113.096 58.779)"><rect width="116" height="418" x="680.037" y="-812.256" ry="61" transform="rotate(45.007)"/><rect ry="61" y="530.089" x="550.497" height="418" width="116" transform="rotate(-44.89)"/></g></g><g opacity=".5" fill="#483737"><g transform="matrix(.017 0 0 .017 45.258 67.523)"><rect width="116" height="418" x="680.037" y="-812.256" ry="61" transform="rotate(45.007)"/><rect ry="61" y="530.089" x="550.497" height="418" width="116" transform="rotate(-44.89)"/></g><g transform="matrix(.017 0 0 .017 52.795 76.266)"><rect transform="rotate(45.007)" ry="61" y="-812.256" x="680.037" height="418" width="116"/><rect transform="rotate(-44.89)" width="116" height="418" x="550.497" y="530.089" ry="61"/></g><g transform="matrix(.017 0 0 .017 54.906 66.317)"><rect width="116" height="418" x="680.037" y="-812.256" ry="61" transform="rotate(45.007)"/><rect ry="61" y="530.089" x="550.497" height="418" width="116" transform="rotate(-44.89)"/></g><g transform="matrix(.017 0 0 .017 63.951 71.141)"><rect transform="rotate(45.007)" ry="61" y="-812.256" x="680.037" height="418" width="116"/><rect transform="rotate(-44.89)" width="116" height="418" x="550.497" y="530.089" ry="61"/></g><g transform="matrix(.017 0 0 .017 55.509 57.573)"><rect width="116" height="418" x="680.037" y="-812.256" ry="61" transform="rotate(45.007)"/><rect ry="61" y="530.089" x="550.497" height="418" width="116" transform="rotate(-44.89)"/></g><g transform="matrix(.017 0 0 .017 55.509 57.573)"><rect transform="rotate(45.007)" ry="61" y="-812.256" x="680.037" height="418" width="116"/><rect transform="rotate(-44.89)" width="116" height="418" x="550.497" y="530.089" ry="61"/></g></g><g opacity=".5" fill="#483737"><g transform="matrix(.017 0 0 .017 105.86 128.728)"><rect transform="rotate(45.007)" ry="61" y="-812.256" x="680.037" height="418" width="116"/><rect transform="rotate(-44.89)" width="116" height="418" x="550.497" y="530.089" ry="61"/></g><g transform="matrix(.017 0 0 .017 113.397 137.471)"><rect width="116" height="418" x="680.037" y="-812.256" ry="61" transform="rotate(45.007)"/><rect ry="61" y="530.089" x="550.497" height="418" width="116" transform="rotate(-44.89)"/></g><g transform="matrix(.017 0 0 .017 115.508 127.522)"><rect transform="rotate(45.007)" ry="61" y="-812.256" x="680.037" height="418" width="116"/><rect transform="rotate(-44.89)" width="116" height="418" x="550.497" y="530.089" ry="61"/></g><g transform="matrix(.017 0 0 .017 124.553 132.346)"><rect width="116" height="418" x="680.037" y="-812.256" ry="61" transform="rotate(45.007)"/><rect ry="61" y="530.089" x="550.497" height="418" width="116" transform="rotate(-44.89)"/></g><g transform="matrix(.017 0 0 .017 116.111 118.778)"><rect transform="rotate(45.007)" ry="61" y="-812.256" x="680.037" height="418" width="116"/><rect transform="rotate(-44.89)" width="116" height="418" x="550.497" y="530.089" ry="61"/></g><g transform="matrix(.017 0 0 .017 116.111 118.778)"><rect width="116" height="418" x="680.037" y="-812.256" ry="61" transform="rotate(45.007)"/><rect ry="61" y="530.089" x="550.497" height="418" width="116" transform="rotate(-44.89)"/></g></g></g></svg>