<svg xmlns="http://www.w3.org/2000/svg" width="200" height="200"><g><path d="M199.79 99.926c0 55.19-44.74 99.928-99.928 99.928-55.188 0-99.928-44.74-99.928-99.928 0-55.19 44.74-99.928 99.928-99.928 55.19 0 99.928 44.74 99.928 99.928z" fill="#08a"/><path d="M45.927 89.43l25.424 25.423.307 6.555 69.48 69.48c11.372-4.108 25.5-15.415 33.905-25.215 8.812-10.274 14.158-18.656 20.298-35.168L153.814 88.98z" opacity=".5" fill="#666"/><g><path d="M71.3 94.808h61.398s.328 18.23 0 26.653c-8.48 6.05-19.658 6.07-29.867 6.06-10.783-.01-23.57-.07-31.53-6.462-.072-7.99 0-26.25 0-26.25z" fill="#1a1a1a"/><path d="M103.48 109.844l50.314-20.893-52.446-16.628-55.43 17.055z" fill="#333"/></g></g></svg>