<svg xmlns="http://www.w3.org/2000/svg" width="200" height="200"><g><path d="M199.79 99.926c0 55.19-44.74 99.928-99.928 99.928-55.188 0-99.928-44.74-99.928-99.928 0-55.19 44.74-99.928 99.928-99.928 55.19 0 99.928 44.74 99.928 99.928z" fill="#c83771"/><path d="M42.463 135.426l64.278 64.277c11.745-.94 26.33-4.366 37.9-10.52 10.77-5.39 21.995-13.682 29.986-23.1 8.034-9.23 12.796-16.995 17.706-28.31 3.363-8.746 6.45-18.323 7.054-31.14l-42.22-42.22z" opacity=".5" fill="#666"/><g transform="matrix(.603 0 0 .603 -92.489 -2.41)"><rect width="189.746" height="118.087" x="224.105" y="110.66" ry="0" fill="#f9cf24"/><g stroke="#000"><path d="M242.19 170.026l35.576 35.063 47.876-51.99 25.036 27.404 49.193-37.48" stroke-width=".595" fill="none"/><path d="M250.095 170.63c0 3.005-2.655 5.44-5.93 5.44s-5.93-2.435-5.93-5.44c0-3.005 2.655-5.44 5.93-5.44s5.93 2.435 5.93 5.44z" fill="#c83737"/><path d="M283.476 202.872c0 3.005-2.655 5.44-5.93 5.44s-5.93-2.435-5.93-5.44c0-3.004 2.655-5.44 5.93-5.44s5.93 2.436 5.93 5.44z" fill="#c83737"/><path d="M331.79 154.106c0 3.005-2.654 5.44-5.93 5.44-3.274 0-5.928-2.435-5.928-5.44 0-3.005 2.654-5.44 5.93-5.44 3.274 0 5.93 2.435 5.93 5.44z" fill="#c83737"/><path d="M357.705 178.69c0 3.006-2.655 5.442-5.93 5.442-3.274 0-5.93-2.436-5.93-5.44 0-3.006 2.656-5.442 5.93-5.442 3.275 0 5.93 2.436 5.93 5.44z" fill="#c83737"/><path d="M402.067 145.24c0 3.005-2.655 5.44-5.93 5.44-3.274 0-5.93-2.435-5.93-5.44 0-3.005 2.656-5.44 5.93-5.44 3.275 0 5.93 2.435 5.93 5.44z" fill="#c83737"/></g></g></g></svg>