<svg xmlns="http://www.w3.org/2000/svg" width="200" height="200"><g><g fill="#0cf"><path d="M199.79 99.926c0 55.19-44.74 99.928-99.928 99.928-55.188 0-99.928-44.74-99.928-99.928 0-55.19 44.74-99.928 99.928-99.928 55.19 0 99.928 44.74 99.928 99.928z"/></g><path d="M87.864 152.686l42.38 42.38c14.283-4.75 20.168-8.364 28.526-14.64 8.638-6.487 15.376-13.01 21.76-21.723 5.957-8.133 10.862-16.895 14.292-28.254l-87.435-87.436-7.057 6.153v89.545z" opacity=".5" fill="#666"/><g><path d="M118.02 138.76c0 10.05-8.148 18.198-18.198 18.198s-18.198-8.148-18.198-18.198 8.148-18.198 18.198-18.198 18.198 8.148 18.198 18.198z" fill="#f00"/><path d="M86.558 139.143c.564 11.562 10.456 13.678 5.414 13.678s-9.13-6.17-9.13-13.784c0-7.613 4.088-13.784 9.13-13.784 5.042 0-5.92 3.506-5.414 13.89z" fill="#f9f9f9"/><g fill="#e6e6e6"><path d="M92.693 42.85h14.685v69.895H92.693z"/><path d="M93.757 43.226h1.277v63.71h-1.277z"/></g><g><path fill="#f00" d="M92.693 59.24h14.685v69.894H92.693z"/><path fill="#f9f9f9" d="M93.757 43.633h1.277v79.692h-1.277z"/></g></g></g></svg>