<?xml version="1.0" encoding="UTF-8" standalone="no"?><svg xmlns="http://www.w3.org/2000/svg" xmlns:sodipodi="http://sodipodi.sourceforge.net/DTD/sodipodi-0.dtd" xmlns:inkscape="http://www.inkscape.org/namespaces/inkscape" width="200" height="200" version="1.1"><metadata id="metadata7"/><g inkscape:label="Layer 1" inkscape:groupmode="layer" id="layer1" transform="translate(-151.9805,-138.23157)"><g id="g3234" transform="matrix(0.60345495,0,0,0.60345495,60.267115,134.12394)"><g id="g4054" fill="#00ccff"><g id="g3971"><path transform="matrix(1.2288162,0,0,1.2288162,-34.213261,-77.955268)" d="m 421.2336,203.83405 c 0,74.47856 -60.37681,134.85536 -134.85537,134.85536 -74.47855,0 -134.85536,-60.3768 -134.85536,-134.85536 0,-74.47856 60.37681,-134.855367 134.85536,-134.855367 74.47856,0 134.85537,60.376807 134.85537,134.855367 z" sodipodi:ry="134.85536" sodipodi:rx="134.85536" sodipodi:cy="203.83405" sodipodi:cx="286.37823" id="path3781" sodipodi:type="arc"/></g></g><path sodipodi:nodetypes="ccccccccc" transform="translate(151.9805,6.8068557)" inkscape:connector-curvature="0" id="path4067" d="m 145.82642,253.21529 c 0,0 45.45723,45.45723 70.28309,70.28309 23.68511,-7.87595 33.44411,-13.87144 47.3047,-24.27988 14.32549,-10.75756 25.49911,-21.57291 36.08579,-36.02513 9.88001,-13.48752 18.01351,-28.01689 23.7031,-46.85475 -48.55244,-48.55244 -145,-145.000004 -145,-145.000004 L 166.5,81.541717 l 0,148.500003 z" opacity="0.5" fill="#666666"/><g transform="matrix(0.49925809,0,0,0.49925809,-4.7751475,128.56824)" id="g4053"><path sodipodi:type="arc" id="path4031" sodipodi:cx="493.91409" sodipodi:cy="210.2729" sodipodi:rx="60.45763" sodipodi:ry="60.45763" d="m 554.37172,210.2729 c 0,33.38983 -27.0678,60.45763 -60.45763,60.45763 -33.38982,0 -60.45763,-27.0678 -60.45763,-60.45763 0,-33.38982 27.06781,-60.45763 60.45763,-60.45763 33.38983,0 60.45763,27.06781 60.45763,60.45763 z" transform="translate(151.9805,6.8068557)" fill="#ff0000"/><path transform="matrix(0.50292398,0,0,0.75730994,372.0375,58.721882)" d="m 458.06131,210.73975 c 3.73331,50.71375 69.24261,59.99078 35.85278,59.99078 -33.38982,0 -60.45763,-27.0678 -60.45763,-60.45763 0,-33.38982 27.06781,-60.45763 60.45763,-60.45763 33.38983,0 -39.20561,15.37921 -35.85278,60.92448 z" id="path4037" inkscape:connector-curvature="0" sodipodi:nodetypes="sssss" fill="#f9f9f9"/><g transform="matrix(1,0,0,0.87935657,2.1213203,-32.139479)" id="g4047" fill="#e6e6e6"><rect id="rect4049" width="48.790367" height="263.75082" x="468.10468" y="-85.65128" transform="translate(151.9805,6.8068557)"/><rect y="-77.43021" x="623.62073" height="240.41631" width="4.24264" id="rect4051"/></g><g id="g4043" transform="matrix(1,0,0,0.87935657,2.1213204,22.307744)"><rect transform="translate(151.9805,6.8068557)" y="-85.65128" x="468.10468" height="263.75082" width="48.790367" id="rect4035" fill="#ff0000"/><rect id="rect4040" width="4.24264" height="300.72519" x="623.62073" y="-137.73909" fill="#f9f9f9"/></g></g></g></g></svg>