<svg xmlns="http://www.w3.org/2000/svg" width="200" height="200"><g><g fill="#c83737"><path d="M199.79 99.926c0 55.19-44.74 99.928-99.928 99.928-55.188 0-99.928-44.74-99.928-99.928 0-55.19 44.74-99.928 99.928-99.928 55.19 0 99.928 44.74 99.928 99.928z"/></g><path d="M64.904 131.928s45.43 45.428 63.75 63.75c15.616-4.775 27.76-12.197 39.04-22.492 8.98-7.714 14.417-15.546 20.006-25.982 5.824-10.874 9.434-20.146 11.38-35.582L148.23 60.774l-1.15.886-10.44-10.44-.565.415-5.82-5.82-1.17.185-8.33-.037.038 8.065.415 16.77-12.188-2.273-13.892-13.63-8.82 19.597-14.96 9.02-4.69 20.467 8.102 17.694z" opacity=".5" fill="#666"/><path d="M112.937 55.46l3.882 3.882h4.135l-.122-3.89z" opacity=".5" fill="#666"/><g fill="#ff0"><path d="M84.273 126.17l11.048 18.992v-18.194c-14.41-.09-26.025-11.833-26.025-26.262 0-14.43 11.698-26.174 26.108-26.262v-19.84L84.573 74.22l-20.524-5.5 5.48 20.454-19.406 11.203 19.488 11.252-5.33 19.9 19.99-5.36z"/><path d="M95.403 123.105V78.307c-12.28.09-22.245 10.098-22.245 22.4 0 12.3 9.966 22.31 22.245 22.398z"/><path d="M108.925 151.07c0 1.6 1.298 2.9 2.897 2.9h27.043c1.6 0 2.897-1.3 2.897-2.9v-2.896h-32.837v2.897z"/><path d="M120.514 55.456h17.282c.066-.302.103-.613.103-.93v-.073c0-2.646-2.342-4.792-5.232-4.792h-2.496v-3.863h-9.658v3.864h-2.677c-2.888 0-5.05 2.147-5.05 4.793v.072c0 .318.035.63.095.93h7.632z"/><path d="M144.063 59.32h-37.439c-2.48 0-5.08.955-6.423 2.736-.57.753-.934 1.64-.934 2.69v72.212c0 .334.064.672.13 1.008.624 3.21 4.033 6.346 7.228 6.346h37.439c3.53 0 5.426-3.826 5.426-7.357V64.745c0-3.53-1.896-5.426-5.427-5.426zm448.728 80.637h7.71l-2.392 3.07-10.967 14.085-1.36 1.748-2.856 3.664 4.75-16.772h-11.142l4.563-5.86 1.4-1.797 1.39-1.785 3.735-4.798 6.486-8.33-4.267 15.07-.482 1.705h3.433z"/></g></g></svg>