<svg xmlns="http://www.w3.org/2000/svg" width="200" height="200"><defs><pattern patternUnits="userSpaceOnUse" width="25" height="25" patternTransform="translate(927.981 276.349)"><path transform="matrix(.342 0 0 .342 -205.822 -36.487)" d="M674 143.042a36.5 36.5 0 1 1-73 0 36.5 36.5 0 1 1 73 0z" fill="#6c5d53"/></pattern><pattern patternUnits="userSpaceOnUse" width="2.695" height="2.695" patternTransform="translate(952.981 318.654)"><path fill="#c8ab37" d="M0 0h2.695v2.695H0z"/><path transform="matrix(.216 0 0 .216 -172.64 -59.081)" d="M809.55 280.807a2.652 2.652 0 1 1-5.304 0 2.652 2.652 0 1 1 5.303 0z" fill="#28170b"/></pattern></defs><g><path d="M199.79 99.926c0 55.19-44.74 99.928-99.928 99.928-55.188 0-99.928-44.74-99.928-99.928 0-55.19 44.74-99.928 99.928-99.928 55.19 0 99.928 44.74 99.928 99.928z" fill="#aa00d4"/><g><path d="M153.58 110.296l-28.47 7.633L75.58 68.4 60.27 82.335l25.805 25.807.792 16.584 62.23 62.23c7.237-4.136 10.135-6.294 14.662-10.137 5.172-4.392 9.774-9.207 14.056-14.472 4.175-5.133 7.557-10.188 10.967-16.846l-35.202-35.204z" opacity=".5" fill="#666"/><g><path d="M78.634 75.616c0 5.68-4.603 10.282-10.282 10.282-5.678 0-10.282-4.603-10.282-10.282 0-5.678 4.604-10.282 10.282-10.282 5.68 0 10.282 4.604 10.282 10.282z" fill="#fc0"/><g><g><path d="M87.14 124.882l29.657 21.526-.16-26.31-30.614-17.54z" fill="#217821"/><path d="M116.77 146.408l32.528-11.64-.16-24.077-32.688 8.77z" fill="#2ca02c"/></g><g><path d="M113.774 121.255l20.25-24.715-34.282-7.653-15.307 14.67z" fill="#dee3db"/><path d="M113.792 121.19l40.182-10.684-20.09-13.713z" fill="#9dac93"/></g><path d="M112.097 115.96l12.278-13.393-13.394-4.624-10.842 11.8z" fill="#08a"/><path d="M99.18 108.52l9.665-10.545-10.544-3.64-8.535 9.29z" fill="#08a"/></g><path d="M74.385 85.502l13.475 16.126" stroke="#000" stroke-width="0.699501" fill="none"/><path d="M79.51 79.935l8.185 4.034" stroke="#000" fill="none" stroke-width="0.451"/><path d="M80.318 70.71l8.824-2.32" stroke="#000" fill="none" stroke-width="0.451"/><path d="M65.755 88.214l.067 9.123" stroke="#000" fill="none" stroke-width="0.451"/><path d="M52.995 91.39l6.645-6.25" stroke="#000" fill="none" stroke-width="0.451"/><path d="M53.703 57.153l7.033 9.007" stroke="#000" stroke-width="0.377487" fill="none"/><path d="M71.08 62.662l2.497-8.775" stroke="#000" fill="none" stroke-width="0.451"/><path d="M55.692 76.03l-9.123.116" stroke="#000" fill="none" stroke-width="0.451"/></g></g></g></svg>