<?xml version="1.0" encoding="UTF-8" standalone="no"?>
<!-- Created with Inkscape (http://www.inkscape.org/) -->

<svg
   xmlns:dc="http://purl.org/dc/elements/1.1/"
   xmlns:cc="http://creativecommons.org/ns#"
   xmlns:rdf="http://www.w3.org/1999/02/22-rdf-syntax-ns#"
   xmlns:svg="http://www.w3.org/2000/svg"
   xmlns="http://www.w3.org/2000/svg"
   xmlns:sodipodi="http://sodipodi.sourceforge.net/DTD/sodipodi-0.dtd"
   xmlns:inkscape="http://www.inkscape.org/namespaces/inkscape"
   width="200"
   height="200"
   id="svg2"
   version="1.1"
   inkscape:version="0.48.4 r9939"
   sodipodi:docname="home-systems.svg">
  <defs
     id="defs4">
    <pattern
       patternUnits="userSpaceOnUse"
       width="25"
       height="25"
       patternTransform="translate(927.9805,276.34857)"
       id="pattern5445">
      <path
         transform="matrix(0.34246576,0,0,0.34246576,-205.82192,-36.48689)"
         d="m 674,143.04172 a 36.5,36.5 0 1 1 -73,0 36.5,36.5 0 1 1 73,0 z"
         sodipodi:ry="36.5"
         sodipodi:rx="36.5"
         sodipodi:cy="143.04172"
         sodipodi:cx="637.5"
         id="path3999"
         style="fill:#6c5d53;fill-opacity:1;stroke:none"
         sodipodi:type="arc" />
    </pattern>
    <pattern
       patternUnits="userSpaceOnUse"
       width="2.6949136"
       height="2.6949136"
       patternTransform="translate(952.98053,318.65366)"
       id="pattern5466">
      <rect
         y="0"
         x="0"
         height="2.6949136"
         width="2.6949136"
         id="rect5462"
         style="fill:#c8ab37;fill-opacity:1;stroke:none" />
      <path
         transform="matrix(0.215625,0,0,0.215625,-172.63976,-59.081116)"
         d="m 809.54887,280.80679 a 2.6516504,2.6516504 0 1 1 -5.3033,0 2.6516504,2.6516504 0 1 1 5.3033,0 z"
         sodipodi:ry="2.6516504"
         sodipodi:rx="2.6516504"
         sodipodi:cy="280.80679"
         sodipodi:cx="806.89722"
         id="path5464"
         style="fill:#28170b;fill-opacity:1;stroke:none"
         sodipodi:type="arc" />
    </pattern>
  </defs>
  <sodipodi:namedview
     id="base"
     pagecolor="#ffffff"
     bordercolor="#666666"
     borderopacity="1.0"
     inkscape:pageopacity="0.0"
     inkscape:pageshadow="2"
     inkscape:zoom="1.4142136"
     inkscape:cx="84.324002"
     inkscape:cy="96.287489"
     inkscape:document-units="px"
     inkscape:current-layer="layer1"
     showgrid="false"
     showguides="true"
     inkscape:guide-bbox="true"
     inkscape:window-width="1680"
     inkscape:window-height="995"
     inkscape:window-x="0"
     inkscape:window-y="30"
     inkscape:window-maximized="1"
     fit-margin-top="0"
     fit-margin-left="0"
     fit-margin-right="0"
     fit-margin-bottom="0" />
  <metadata
     id="metadata7">
    <rdf:RDF>
      <cc:Work
         rdf:about="">
        <dc:format>image/svg+xml</dc:format>
        <dc:type
           rdf:resource="http://purl.org/dc/dcmitype/StillImage" />
        <dc:title />
      </cc:Work>
    </rdf:RDF>
  </metadata>
  <g
     inkscape:label="Layer 1"
     inkscape:groupmode="layer"
     id="layer1"
     transform="translate(-151.98049,-138.29017)">
    <g
       id="g3251"
       transform="matrix(0.60345495,0,0,0.60345495,60.267113,134.14729)">
      <path
         transform="matrix(1.2288162,0,0,1.2288162,-34.213266,-77.896863)"
         d="m 421.2336,203.83405 c 0,74.47856 -60.37681,134.85536 -134.85537,134.85536 -74.47855,0 -134.85536,-60.3768 -134.85536,-134.85536 0,-74.47856 60.37681,-134.855367 134.85536,-134.855367 74.47856,0 134.85537,60.376807 134.85537,134.855367 z"
         sodipodi:ry="134.85536"
         sodipodi:rx="134.85536"
         sodipodi:cy="203.83405"
         sodipodi:cx="286.37823"
         id="path3781"
         style="fill:#aa00d4;fill-opacity:1;stroke:none"
         sodipodi:type="arc" />
      <g
         id="g3864">
        <path
           style="opacity:0.5;fill:#666666;stroke:none"
           d="m 254.8089,182.97561 -47.21742,12.65758 -82.13488,-82.13487 -25.3941,23.1059 42.79711,42.79711 1.31355,27.50105 c 0,0 79.22369,79.22368 103.20184,103.20184 11.99983,-6.85961 16.80538,-10.43987 24.3125,-16.8125 8.58032,-7.28366 16.21129,-15.26808 23.3125,-24 6.92313,-8.51296 12.5331,-16.89463 18.1875,-27.9375 -21.59636,-21.59636 -58.3786,-58.37861 -58.3786,-58.37861 z"
           id="path3862"
           inkscape:connector-curvature="0"
           transform="translate(151.9805,6.8068557)"
           sodipodi:nodetypes="ccccccccccc" />
        <g
           id="g3066"
           transform="matrix(0.74714035,0,0,0.74714035,-159.68472,-6.6942417)">
          <path
             transform="matrix(1.1621621,0,0,1.1621621,79.38065,43.982949)"
             d="m 440.52752,122.06133 c 0,10.83705 -8.78517,19.62222 -19.62222,19.62222 -10.83705,0 -19.62221,-8.78517 -19.62221,-19.62222 0,-10.83705 8.78516,-19.62221 19.62221,-19.62221 10.83705,0 19.62222,8.78516 19.62222,19.62221 z"
             sodipodi:ry="19.622213"
             sodipodi:rx="19.622213"
             sodipodi:cy="122.06133"
             sodipodi:cx="420.9053"
             id="path3010"
             style="fill:#ffcc00;fill-opacity:1;stroke:none"
             sodipodi:type="arc" />
          <g
             id="g3032">
            <g
               id="g3022">
              <path
                 inkscape:connector-curvature="0"
                 id="path3014"
                 d="m 610.07142,295.03829 65.76093,47.7297 -0.35355,-58.33631 -67.88225,-38.89087 z"
                 style="fill:#217821;stroke:none" />
              <path
                 inkscape:connector-curvature="0"
                 id="path3012"
                 d="m 675.76984,342.76799 72.12489,-25.8094 -0.35355,-53.38656 -72.47845,19.44543 z"
                 style="fill:#2ca02c;stroke:none" />
            </g>
            <g
               id="g3026"
               transform="translate(2.5,-1)">
              <path
                 inkscape:connector-curvature="0"
                 id="path3016"
                 d="m 666.62808,287.99649 44.90128,-54.80077 -76.01398,-16.97056 -33.94113,32.52691 z"
                 style="fill:#dee3db;stroke:none" />
              <path
                 inkscape:connector-curvature="0"
                 id="path3018"
                 d="M 666.66772,287.85057 755.76317,264.1625 711.21545,233.75691 z"
                 style="fill:#9dac93;stroke:none" />
            </g>
            <path
               style="fill:#0088aa;stroke:none"
               d="m 665.41004,275.25669 27.22361,-29.69849 -29.69848,-10.25304 -24.04163,26.16295 z"
               id="path3020"
               inkscape:connector-curvature="0" />
            <path
               inkscape:connector-curvature="0"
               id="path3030"
               d="m 636.76845,258.75669 21.43157,-23.3799 -23.37989,-8.07163 -18.92659,20.59658 z"
               style="fill:#0088aa;stroke:none" />
          </g>
          <path
             inkscape:connector-curvature="0"
             id="path3042"
             d="m 581.79096,207.72011 29.87908,35.75693"
             style="fill:none;stroke:#000000;stroke-width:1.55066431px;stroke-linecap:butt;stroke-linejoin:miter;stroke-opacity:1" />
          <path
             inkscape:connector-curvature="0"
             id="path3044"
             d="m 593.15813,195.37594 18.14474,8.94528"
             style="fill:none;stroke:#000000;stroke-width:1px;stroke-linecap:butt;stroke-linejoin:miter;stroke-opacity:1" />
          <path
             style="fill:none;stroke:#000000;stroke-width:1px;stroke-linecap:butt;stroke-linejoin:miter;stroke-opacity:1"
             d="m 594.9478,174.91982 19.5654,-5.14248"
             id="path3046"
             inkscape:connector-curvature="0" />
          <path
             inkscape:connector-curvature="0"
             id="path3048"
             d="m 562.65522,213.7339 0.15056,20.22936"
             style="fill:none;stroke:#000000;stroke-width:1px;stroke-linecap:butt;stroke-linejoin:miter;stroke-opacity:1" />
          <path
             inkscape:connector-curvature="0"
             id="path3054"
             d="m 534.36283,220.77895 14.73534,-13.86074"
             style="fill:none;stroke:#000000;stroke-width:1px;stroke-linecap:butt;stroke-linejoin:miter;stroke-opacity:1" />
          <path
             style="fill:none;stroke:#000000;stroke-width:0.83715707px;stroke-linecap:butt;stroke-linejoin:miter;stroke-opacity:1"
             d="m 535.93421,144.86336 15.59258,19.97043"
             id="path3056"
             inkscape:connector-curvature="0" />
          <path
             inkscape:connector-curvature="0"
             id="path3062"
             d="m 574.46045,157.07685 5.5401,-19.45654"
             style="fill:none;stroke:#000000;stroke-width:1px;stroke-linecap:butt;stroke-linejoin:miter;stroke-opacity:1" />
          <path
             style="fill:none;stroke:#000000;stroke-width:1px;stroke-linecap:butt;stroke-linejoin:miter;stroke-opacity:1"
             d="m 540.34466,186.72135 -20.22832,0.25446"
             id="path3064"
             inkscape:connector-curvature="0" />
        </g>
      </g>
    </g>
  </g>
</svg>
