<svg xmlns="http://www.w3.org/2000/svg" width="200" height="200"><g><path d="M199.79 99.926c0 55.19-44.74 99.928-99.928 99.928-55.188 0-99.928-44.74-99.928-99.928 0-55.19 44.74-99.928 99.928-99.928 55.19 0 99.928 44.74 99.928 99.928z" fill="#ff2a7f"/><path d="M78.6 151.63s30.542 30.54 45.41 45.41c15.39-4.012 30.273-11.702 42.29-22.52 11.774-10.597 20.52-22.632 27.195-39.143L100.458 42.34z" opacity=".5" fill="#666"/><g><path d="M137.22 117.92c0 22.014-16.85 39.86-37.635 39.86-20.785 0-37.634-17.846-37.634-39.86 0-22.015 21.21-50.073 37.85-75.953 16.793 25.88 37.42 53.938 37.42 75.952z" fill="#2a7fff"/><path d="M94.474 51.954l2.015 2.542s-21.623 33.59-25.795 52.7c-2.303 10.55 3.595 21.924.818 32.395-6.74-4.8-6.754-9.765-7.902-15.425-1.14-5.625-.338-11.66 1.266-17.167 5.827-20.002 29.598-55.044 29.598-55.044z" fill="#fff"/></g></g></svg>