<svg xmlns="http://www.w3.org/2000/svg" width="200" height="200"><g><path d="M199.79 99.926c0 55.19-44.74 99.928-99.928 99.928-55.188 0-99.928-44.74-99.928-99.928 0-55.19 44.74-99.928 99.928-99.928 55.19 0 99.928 44.74 99.928 99.928z" fill="#55d400"/><path d="M54.722 146.37l53.24 53.24c20.143-2.236 32.212-6.904 45.468-15.398 12.78-8.19 22.982-18.25 31.02-31.127 7.452-11.938 12.71-25.725 14.577-41.066l-58.602-58.602z" opacity=".5" fill="#666"/><g><path d="M55.512 144.83h89.52l-1.104-5.893-4.052-30.21V54.574l-80.68.368.736 54.525-4.79 29.472z" fill="#d7eef4"/><path d="M145.84 140.112l-.06-.438v-1.625h-.226l-4.13-29.404v-54.87h-82.63v54.872l-4.126 29.403h-.11v.764l-.177 1.298h.18v6.008h91.22v-6.008h.06zm-125.7-86.423H3.46v-3.636h16.683v3.635zm39.262-9.716h-8.71l-.658-7.327h8.55l.818 7.327zM27.92 35.442l.645 7.326h-9.46l-.24-7.326h9.054zm-6.416 6.825l.244 7.325H20.758l.245-7.325h9.913zm-7.99 7.327H12.904L13.56 38h9.618l-.252 7.324zm-7.422-2.93H6.5l.814-7.324h8.84l-.65 7.325zm-4.298 2.418h9.06l-.65 7.327h-9.224l.814-7.328zm15.2-.966h10.156l-.252 7.327H25.75l.656-7.327zm7.983 0h10.558l.245 7.327H34.137l.252-7.327zm8.197 7.327l-.245-7.327h9.593l.652 7.327h-10zM52.068 35.57h-8.498l-.65-7.326h8.33l.818 7.326zm-66.447-5.853h-9.353v-5.32h77.79v5.32H-9.093zm91.796-3.845H4.914V-7.5H82.7v36.302zM27.985-8.59v4.858h-77.79v-4.858h77.79zm-77.94 71.165h9.237l-2.175 19.494H49.13L46.952 59.48h8.55l3.894 27.755H25.3v-6.052H3.78v6.052h-30.274l3.897-27.754zm113.454 12.278H4.48V68.53H90.86v3.228z" fill="#24221c"/></g><circle cx="30.747" cy="7.141" r=".786" fill="#020202" transform="matrix(2.672 0 0 2.672 18.12 39.539)"/></g></svg>