<svg xmlns="http://www.w3.org/2000/svg" width="200" height="200"><g><g fill="#fc0"><path d="M199.79 99.926c0 55.19-44.74 99.928-99.928 99.928-55.188 0-99.928-44.74-99.928-99.928 0-55.19 44.74-99.928 99.928-99.928 55.19 0 99.928 44.74 99.928 99.928z"/></g><path d="M73.27 146.618l50.313 50.314c16.09-3.95 24.92-8.898 35.07-16.203 10.84-7.803 18.56-15.716 25.583-27.076 7.007-11.33 12.168-23.92 14.426-39.406l-65.576-65.576-24.046 33.09-34.522-34.52-31.4 49.186 37.538 37.537z" opacity=".5" fill="#666"/><g><path d="M88.727 96.003c0 6.132 4.992 11.124 11.127 11.124 6.135 0 11.127-4.99 11.127-11.124 0-6.135-4.99-11.127-11.126-11.127-6.135 0-11.127 4.992-11.127 11.127zm225.042 69.15c3.992 0 7.243 3.25 7.243 7.247 0 3.995-3.25 7.244-7.244 7.244-3.996 0-7.245-3.25-7.245-7.244 0-3.997 3.252-7.246 7.244-7.246zm19.383 17.128c-1.01-1.746-3.363-2.393-5.214-1.44-3.38 1.762-7.39 2.14-11.024 1.072-1.875-.552-4.065.27-5.028 1.89l-17.742 29.854c-.54.91-.683 2.007-.386 3.007.29.992.992 1.823 1.922 2.283 7.938 3.94 16.487 5.938 25.413 5.938 9.804 0 19.482-2.52 27.98-7.292.9-.505 1.547-1.336 1.82-2.335.275-1.002.13-2.09-.386-2.99l-17.357-29.986zm-4.12 53.14c-8.32 0-16.29-1.862-23.613-5.363l17.742-29.853c.03-.054.186-.15.51-.15.03 0 .062.002.096.004 4.538 1.33 9.63.883 13.965-1.415l17.38 29.983c-7.92 4.444-16.937 6.793-26.08 6.793zm24.54-75.045c-1.72-1.193-4.265-.658-5.4 1.105l-18.72 29.12c-1.103 1.716-.696 4.002.947 5.324 3.086 2.475 5.03 5.99 5.48 9.897.235 2.087 1.944 3.66 3.977 3.66h34.613c1.046 0 2.06-.43 2.782-1.18.725-.75 1.102-1.734 1.064-2.77-.62-18.01-9.87-34.89-24.744-45.155zm7.664-20.97c-.027-.006-.106-.084-.122-.214-.565-4.93-3.018-9.363-6.905-12.485-.09-.072-.12-.17-.114-.195l18.654-29.13c13.866 9.57 22.49 25.304 23.104 42.026h-34.617zm-42.574 30.002c.5-4.356 2.89-8.252 6.562-10.69 1.792-1.19 2.348-3.45 1.29-5.25L308.98 123.59c-1.05-1.79-3.57-2.442-5.342-1.365-16.503 10.08-26.75 27.61-27.41 46.888-.036 1.035.342 2.02 1.065 2.77.722.746 1.734 1.178 2.783 1.178h34.61c2.033 0 3.742-1.57 3.98-3.653zm-35.12-43.702l17.447 29.927c-4.626 3.072-7.64 7.985-8.268 13.482-.016.128-.094.207-.12.213l-34.583.07c.62-17.97 10.17-34.312 25.524-43.692z"/><path d="M83.155 95.445L86.14 85.21l5.543-5.115-19.614-31.98-15.777 12.792-8.528 15.777-3.41 17.055 2.557 2.557z" stroke="#000" stroke-width="0.603"/><path d="M108.283 80.952l7.265 7.8 1.56 7.38 37.512-.488-2.918-20.1-9.192-15.4-12.908-11.657-3.507.89z" stroke="#000" stroke-width="0.603"/><path d="M110.047 111.043L99.652 113.4l-7.164-2.36-18.438 32.67 18.84 7.584 17.934-.203 16.567-5.296.996-3.478z" stroke="#000" stroke-width="0.603"/></g></g></svg>