<svg xmlns="http://www.w3.org/2000/svg" width="200" height="200"><g transform="matrix(.603 0 0 .603 -91.714 -4.108)"><path d="M483.405 172.52c0 91.52-74.192 165.712-165.712 165.712S151.98 264.04 151.98 172.52C151.98 81 226.172 6.806 317.693 6.806c91.52 0 165.712 74.192 165.712 165.712z" fill="#ab37c8"/><path d="M256.6 260.026l77.418 77.418c38.036-3.61 76.153-21.152 104.462-51.595 20.91-22.204 37.085-49.964 43.383-90.62-31.462-31.46-70.558-70.557-106.648-106.647C329.207 130 281.495 216.538 256.6 260.026z" opacity=".5" fill="#666"/><g transform="matrix(.714 0 0 .714 -200.546 49.047)"><rect ry="3.734" y="187.331" x="800.641" height="49.282" width="13" fill="#06f"/><path fill="#dee3db" d="M608.927 85.074l157.562-52.25 75.544 227.8-157.562 52.25z"/><rect width="13" height="49.282" x="800.464" y="150.272" ry="3.734" fill="#2aff2a"/><rect ry="3.734" y="110.421" x="800.641" height="49.282" width="13" fill="#7f2aff"/><rect width="13" height="49.282" x="800.641" y="67.131" ry="3.734" fill="#f00"/><path fill="#f4d34a" d="M639.98 55.35h166v240h-166z"/></g><rect ry="2.667" y="182.864" x="371.383" height="35.204" width="9.286" fill="#06f"/><path d="M347.066 72.435L363.98 89.35l-12.75.31-5.75-16.186z" opacity=".5" fill="#666"/><path fill="#dee3db" d="M234.434 109.82l112.553-37.326L400.95 235.22 288.4 272.545z"/><rect width="9.286" height="35.204" x="371.257" y="156.392" ry="2.667" fill="#2aff2a"/><rect ry="2.667" y="127.925" x="371.383" height="35.204" width="9.286" fill="#7f2aff"/><rect width="9.286" height="35.204" x="371.383" y="97.001" ry="2.667" fill="#f00"/><path fill="#f4d34a" d="M256.617 88.585h118.58v171.44h-118.58z"/><path fill="#dee3db" d="M275.744 107.124l80.492.07-.343 34.72-80.492-.07z"/></g></svg>