<?xml version="1.0" encoding="UTF-8" standalone="no"?><svg xmlns="http://www.w3.org/2000/svg" xmlns:sodipodi="http://sodipodi.sourceforge.net/DTD/sodipodi-0.dtd" xmlns:inkscape="http://www.inkscape.org/namespaces/inkscape" width="200" height="200" version="1.1"><metadata id="metadata7"/><g inkscape:label="Layer 1" inkscape:groupmode="layer" id="layer1" transform="translate(-151.9805,-138.2479)"><g id="g4110" transform="matrix(0.60345495,0,0,0.60342557,60.267115,134.14047)"><path transform="matrix(1.2288162,0,0,1.2288162,-34.213261,-77.955268)" d="m 421.2336,203.83405 c 0,74.47856 -60.37681,134.85536 -134.85537,134.85536 -74.47855,0 -134.85536,-60.3768 -134.85536,-134.85536 0,-74.47856 60.37681,-134.855367 134.85536,-134.855367 74.47856,0 134.85537,60.376807 134.85537,134.855367 z" sodipodi:ry="134.85536" sodipodi:rx="134.85536" sodipodi:cy="203.83405" sodipodi:cx="286.37823" id="path3781" sodipodi:type="arc" fill="#00d4aa"/><path sodipodi:nodetypes="ccccccccc" transform="translate(151.9805,6.8068557)" inkscape:connector-curvature="0" id="path4108" d="m 135.33289,286.20882 c 0,0 30.86068,30.86068 44.625,44.625 21.25263,-1.84599 40.22704,-7.3717 57.30156,-15.68056 19.26735,-9.37594 32.79072,-19.45881 47.97235,-34.58021 10.51306,-10.47135 19.468,-22.34038 27.83973,-39.01067 C 272.19225,200.6831 191.97949,120.47034 191.97949,120.47034 l -7.07106,41.36575 -40.83542,-40.83542 z" opacity="0.5" fill="#666666"/><g id="g4082"><path sodipodi:nodetypes="cccccc" inkscape:connector-curvature="0" id="rect4078" d="m 305.69296,239.34857 27,0 -0.0312,98.1875 c 0,0 -8.9584,0.79769 -13.46246,0.6875 -4.53352,0.14073 -13.50629,-0.375 -13.50629,-0.375 z" fill="#b3b3b3"/><path sodipodi:nodetypes="cccccc" inkscape:connector-curvature="0" id="rect4080" d="m 310.19296,255.34857 8.5,0 0,82.88389 -3.93445,-0.007 -4.56555,-0.16987 z" fill="#ececec"/></g><rect y="284.25488" x="285.4469" height="9.545941" width="66.11449" id="rect4088" fill="#e3dbdb" rx="4.772971"/><rect y="186.16396" x="276.69296" height="81.36923" width="82" id="rect3990" fill="#e3dbdb" rx="18.292307"/><rect id="rect3992" width="66.23077" height="81.36923" x="285.52371" y="206.97934" fill="#e3dbdb"/><g transform="matrix(0.63076923,0,0,0.63076923,-276.47938,76.19024)" id="g4010"><rect y="78.59857" x="970.48053" height="99.5" width="16" id="rect4000" fill="#666666" rx="8"/><rect id="rect4008" width="7.25" height="99.5" x="972.98053" y="79.84857" fill="#e3e2db" rx="3.625"/></g><g transform="matrix(0.63076923,0,0,0.63076923,-324.57553,76.347932)" id="g4014"><rect id="rect4016" width="16" height="99.5" x="970.48053" y="78.59857" fill="#666666" rx="8"/><rect y="79.84857" x="972.98053" height="99.5" width="7.25" id="rect4018" fill="#e3e2db" rx="3.625"/></g><rect y="182.88989" x="276.70032" height="65.08946" width="81.954399" id="rect3994" fill="#e3dbdb"/><rect y="185.53319" x="279.5314" height="64.65385" width="6.307693" id="rect4020" fill="#f2f2f2" rx="0"/><rect id="rect4022" width="6.307693" height="26.956896" x="288.56335" y="264.7074" fill="#f2f2f2" rx="0"/><path sodipodi:nodetypes="ccaccacc" inkscape:connector-curvature="0" id="rect4024" d="m 279.52937,250.18007 6.30247,6.3e-4 c 0,0 0.57822,4.96371 1.76566,7.09023 1.69304,3.03198 7.28565,7.44668 7.28565,7.44668 l -6.28942,-0.0116 c 0,0 -4.57916,-3.92025 -6.14056,-6.44295 -1.50787,-2.43622 -2.9238,-8.08275 -2.9238,-8.08275 z" fill="#f2f2f2"/></g></g></svg>