<svg xmlns="http://www.w3.org/2000/svg" width="200" height="200"><g><path d="M199.79 99.926c0 55.19-44.74 99.928-99.928 99.928-55.188 0-99.928-44.74-99.928-99.928 0-55.19 44.74-99.928 99.928-99.928 55.19 0 99.928 44.74 99.928 99.928z" fill="#aad400"/><path d="M60.683 150.32l49.32 49.32c20.613-3.182 36.138-9.437 50.675-20.403 13.25-9.996 24.882-24.34 30.566-39.307l-76.962-76.963L88.124 85.5l19.507 19.508z" opacity=".5" fill="#666"/><g><g stroke="#000"><path d="M60.87 150.097l78.128.304-3.952-45.903-71.744.304z" fill="#005"/><path d="M61.326 140.75l76.836-.077" fill="none"/><path d="M61.706 131.933l75.544-.684" fill="none"/><path d="M62.39 123.117l74.252-.684" fill="none"/><path d="M62.77 113.617l72.96-.608" fill="none"/><path d="M78.338 150.388l1.696-45.88" fill="none"/><path d="M121.1 150.374l-2.355-45.85" fill="none"/><path d="M80.926 113.313c0 .583-.473 1.056-1.056 1.056-.583 0-1.056-.474-1.056-1.057s.473-1.056 1.056-1.056c.583 0 1.056.473 1.056 1.056z" stroke-width="1.536"/><path d="M80.47 122.585c0 .583-.473 1.056-1.056 1.056-.583 0-1.056-.472-1.056-1.055s.473-1.056 1.056-1.056c.583 0 1.056.472 1.056 1.055z" stroke-width="1.536"/><path d="M80.014 131.553c0 .583-.473 1.056-1.056 1.056-.583 0-1.056-.474-1.056-1.057s.473-1.056 1.056-1.056c.583 0 1.056.473 1.056 1.056z" stroke-width="1.536"/><path d="M79.71 140.825c0 .583-.473 1.056-1.056 1.056-.583 0-1.056-.472-1.056-1.055s.473-1.056 1.056-1.056c.583 0 1.056.472 1.056 1.055z" stroke-width="1.536"/><path d="M121.814 140.825c0 .583-.473 1.056-1.056 1.056-.583 0-1.056-.472-1.056-1.055s.473-1.056 1.056-1.056c.583 0 1.056.472 1.056 1.055z" stroke-width="1.536"/><path d="M121.206 131.25c0 .582-.473 1.055-1.056 1.055-.583 0-1.056-.473-1.056-1.056 0-.584.473-1.057 1.056-1.057.583 0 1.056.473 1.056 1.056z" stroke-width="1.536"/><g><path d="M100.694 150.553l-.76-45.904" fill="none"/><path d="M101.75 140.825c0 .583-.473 1.056-1.056 1.056-.583 0-1.056-.472-1.056-1.055s.473-1.056 1.056-1.056c.583 0 1.056.472 1.056 1.055z" stroke-width="1.536"/><path d="M101.446 131.857c0 .583-.473 1.056-1.056 1.056-.583 0-1.056-.473-1.056-1.056 0-.583.473-1.056 1.056-1.056.583 0 1.056.474 1.056 1.057z" stroke-width="1.536"/><path d="M101.294 123.04c0 .584-.473 1.057-1.056 1.057-.583 0-1.056-.473-1.056-1.056 0-.582.473-1.055 1.056-1.055.583 0 1.056.473 1.056 1.056z" stroke-width="1.536"/><path d="M101.142 113.77c0 .582-.473 1.055-1.056 1.055-.583 0-1.056-.473-1.056-1.056 0-.584.473-1.057 1.056-1.057.583 0 1.056.473 1.056 1.056z" stroke-width="1.536"/></g><path d="M120.446 113.465c0 .583-.473 1.056-1.056 1.056-.583 0-1.056-.472-1.056-1.055s.473-1.056 1.056-1.056c.583 0 1.056.472 1.056 1.055z" stroke-width="1.536"/><path d="M121.054 122.28c0 .584-.473 1.057-1.056 1.057-.583 0-1.056-.473-1.056-1.056 0-.582.473-1.055 1.056-1.055.583 0 1.056.473 1.056 1.056z" stroke-width="1.536"/></g><g><path d="M118.13 73.436c0 9.513-7.713 17.225-17.226 17.225-9.513 0-17.225-7.71-17.225-17.224 0-9.513 7.71-17.225 17.224-17.225 9.513 0 17.225 7.713 17.225 17.226z" fill="#fc0"/><path d="M100.53 91.854l-.162 5.354" stroke="#000" fill="none" stroke-width="0.649"/><path d="M101.666 55.023v-5.517" stroke="#000" fill="none" stroke-width="0.649"/><path d="M118.865 74.493h5.354" stroke="#000" fill="none" stroke-width="0.649"/><path d="M81.71 73.682l-5.68.324" stroke="#000" fill="none" stroke-width="0.649"/><path d="M86.9 60.864l-3.73-3.083" stroke="#000" fill="none" stroke-width="0.649"/><path d="M114.81 62.324l4.866-3.732" stroke="#000" fill="none" stroke-width="0.649"/><path d="M113.242 87.366l4.107 4.432" stroke="#000" stroke-width="0.7599790000000001" fill="none"/><path d="M86.9 86.5l-4.38 4.705" stroke="#000" fill="none" stroke-width="0.649"/></g></g></g></svg>