<svg xmlns="http://www.w3.org/2000/svg" width="200" height="200"><g><g fill="#3737c8"><path d="M199.79 99.927c0 55.19-44.74 99.928-99.928 99.928-55.188 0-99.928-44.74-99.928-99.928C-.066 44.737 44.674 0 99.862 0c55.19 0 99.928 44.738 99.928 99.927z"/></g><path d="M39.61 160.237l37.097 37.096c16.47 3.217 27.477 3.097 38.56 1.306 15.963-2.582 27.012-6.873 40.508-15.778 11.58-7.64 21.71-18.92 29.207-30.593 6.24-9.716 10.525-21.342 13.005-32.62 1.956-8.897 2.06-17.972 1.492-27.18-.205-5.25-.286-9.204-2.4-15.724l-37.04-37.043-68.01 60.44 20.893 12.792z" opacity=".5" fill="#666"/><g fill="#fc0"><path d="M39.555 160.23l90.456-45.228-22.613-15.076 52.766-60.304-90.456 60.304 22.614 15.076z"/></g><g fill="#fff"><path d="M99.467 81.204l1.047 1.552-26.158 17.63-1.046-1.552z"/><path d="M124.513 64.36l1.047 1.55-26.158 17.632-1.046-1.553z"/><path d="M149.24 47.62c-5.607 5.998-21.2 16.708-25.11 19.184l-1.047-1.553z"/></g><g fill="#fff"><path d="M93.955 115.384l1.208 1.43-24.117 20.352-1.208-1.432z"/><path d="M74.857 131.47l1.208 1.433c-4.143 3.527-17.512 15.064-25.326 18.92z"/></g></g></svg>