<svg xmlns="http://www.w3.org/2000/svg" width="200" height="200"><g><g fill="#cf0"><path d="M199.79 99.926c0 55.19-44.74 99.928-99.928 99.928-55.188 0-99.928-44.74-99.928-99.928 0-55.19 44.74-99.928 99.928-99.928 55.19 0 99.928 44.74 99.928 99.928z"/></g><path d="M75.91 170.972l28.74 28.742c16.153-.924 28.227-4.435 40.303-10.652 12.168-6.265 23.37-15.246 32.11-25.778 8.672-10.45 14.086-21.19 18.39-34.07 3.188-9.533 4.527-21.163 4.26-31.92L174.35 71.928l-33.166 26.23-48.542-48.542-41.154 34.824 48.993 48.993z" opacity=".5" fill="#666"/><g fill="#0cf"><g><path d="M179.727 82.865c-3.64-14.27-18.16-22.902-32.445-19.272-10.81 2.75-30.555 14.847-37.93 26.755-.303-.102-.6-.186-.91-.28-.01-14.005-10.306-34.623-17.993-42.657-10.188-10.65-27.08-11.034-37.733-.844-10.647 10.187-11.023 27.076-.842 37.726 7.195 7.525 25.273 17.8 39.026 19.62.047 1.39.286 2.732.706 3.993-10.962 8.54-21.34 26.79-23.686 36.986-3.3 14.37 5.666 28.683 20.036 31.983 14.366 3.3 28.684-5.66 31.98-20.03 2.346-10.2.968-31.15-5.172-43.625.65-.655 1.223-1.383 1.733-2.158 12.58 5.934 33.744 6.848 43.95 4.247 14.287-3.627 22.91-18.16 19.28-32.442zm-207.926-34.11c-7.15 0-12.97-5.815-12.97-12.967 0-7.157 5.82-12.97 12.97-12.97 7.158 0 12.978 5.816 12.978 12.97 0 7.152-5.82 12.966-12.977 12.966z"/><path d="M105.1 98.4c-2.888 0-5.248 2.35-5.248 5.252 0 2.89 2.36 5.25 5.247 5.25 2.894 0 5.25-2.36 5.25-5.25-.005-2.9-2.356-5.252-5.25-5.252z"/></g></g></g></svg>