<svg xmlns="http://www.w3.org/2000/svg" width="200" height="200"><g><path d="M199.79 99.926c0 55.19-44.74 99.928-99.928 99.928-55.188 0-99.928-44.74-99.928-99.928 0-55.19 44.74-99.928 99.928-99.928 55.19 0 99.928 44.74 99.928 99.928z" fill="#f60"/><path d="M57.626 143.252l8.74 8.74-1.25 2.8 44.505 44.505c14.023-1.118 28.525-6.142 40.764-13.147 10.664-6.103 19.76-14.013 27.413-23.625 5.882-7.388 10.178-14.407 13.96-23.06 3.248-7.434 6.224-16.875 7.058-25.738l-55.64-55.64z" opacity=".5" fill="#666"/><g transform="matrix(.399 0 0 .399 -182.218 33.446)"><path d="M620.792 247.84h26.87v56.568h-26.87z"/><path d="M769.285 247.84h26.87v56.568h-26.87z"/><path d="M602.408 61.87c62.52-45.55 158.096-41.308 214.253 0 25.045 69.592 0 214.253 0 214.253H602.41s-32.116-146.783 0-214.253z" fill="#fc0"/><rect width="208.597" height="101.116" x="604.529" y="76.719" ry="18.385" fill="#fff"/><rect ry="3.343" y="50.556" x="632.813" height="18.385" width="151.321" fill="#fff"/><path d="M664.633 238.293c0 9.568-7.756 17.324-17.324 17.324-9.57 0-17.325-7.756-17.325-17.324 0-9.568 7.756-17.324 17.324-17.324 9.567 0 17.323 7.755 17.323 17.323z" fill="#fff"/><path d="M785.548 239c0 9.568-7.756 17.324-17.324 17.324-9.568 0-17.324-7.756-17.324-17.324 0-9.568 7.756-17.324 17.324-17.324 9.568 0 17.324 7.756 17.324 17.324z" fill="#fff"/></g></g></svg>