<svg xmlns="http://www.w3.org/2000/svg" width="200" height="200"><g><path d="M199.79 99.926c0 55.19-44.74 99.928-99.928 99.928-55.188 0-99.928-44.74-99.928-99.928 0-55.19 44.74-99.928 99.928-99.928 55.19 0 99.928 44.74 99.928 99.928z" fill="#ff7f2a"/><path d="M54.935 140.436l58.52 58.52c18.54-2.91 28.408-6.795 40.295-14.602 10.657-6.864 19.088-14.734 26.435-24.944 5.467-6.842 9.234-12.59 13.18-23.84l-74.03-74.032-7.478 2.362-5.33-8.528-12.152-1.706-5.33 5.117-19.4 36.03-12.792 6.61 3.838 4.262-11.298 22.173z" opacity=".5" fill="#666"/><path d="M92.98 132.15H63.603c-2.545 0-4.522-.687-5.15-1.792-.63-1.11-.22-3.158 1.074-5.35l7.953-13.45c.21-.353.76-.5 1.124-.292l1.785 1.06c.495.293 1.03.444 1.547.444 1.47 0 2.548-1.163 2.566-2.763l.16-15.4c.01-1.104-.42-1.77-.78-2.14-.792-.803-2.14-.913-3.283-.264l-13.425 7.56c-.97.55-1.535 1.402-1.542 2.347-.01.94.536 1.805 1.497 2.373l1.88 1.113c.19.113.326.29.38.503.054.208.023.426-.09.618l-7.956 13.452c-3.167 5.356-3.572 10.644-1.148 14.898 2.423 4.248 7.183 6.59 13.408 6.59h29.378c2.62 0 4.754-2.133 4.754-4.755-.004-2.62-2.136-4.753-4.756-4.753zm213.31 100.47h-29.377c-5.155 0-9.036-1.832-10.93-5.152-1.897-3.32-1.496-7.59 1.128-12.026l7.958-13.454c.5-.846.642-1.836.395-2.784-.246-.95-.846-1.748-1.688-2.247l-1.69-1 13.03-7.338-.157 14.946-1.592-.943c-.536-.314-1.16-.48-1.808-.48-1.338 0-2.573.68-3.224 1.773l-7.957 13.458c-1.867 3.163-2.267 6.155-1.097 8.215 1.176 2.057 3.96 3.234 7.633 3.234h29.377c1.046 0 1.9.853 1.9 1.898-.003 1.044-.854 1.897-1.9 1.897zm55.262-14.193l-18.507-30.336c-.846-1.388-2.426-2.25-4.123-2.25-.867 0-1.702.233-2.41.667-1.087.662-1.848 1.708-2.146 2.945-.297 1.236-.097 2.51.563 3.59l18.507 30.336c1.316 2.16 1.763 4.17 1.165 5.24-.6 1.067-2.545 1.727-5.077 1.727h-5.743c-.45 0-.818-.368-.818-.82v-2.07c0-1.596-1.1-2.797-2.56-2.797-.508 0-1.038.15-1.53.435l-13.337 7.7c-.967.562-1.523 1.42-1.523 2.363 0 .942.556 1.802 1.523 2.36l13.336 7.7c.525.305 1.057.46 1.584.46 1.453 0 2.507-1.185 2.507-2.817v-2.183c0-.45.368-.82.818-.82h5.743c6.238 0 10.987-2.34 13.365-6.585 2.386-4.25 1.91-9.52-1.338-14.845zm35.233 1.217c-1.854 3.306-5.715 5.127-10.877 5.127h-5.742c-2.027 0-3.676 1.65-3.676 3.677v1.96l-12.943-7.48 12.943-7.476v1.85c0 2.027 1.65 3.675 3.676 3.675h5.742c3.672 0 6.43-1.163 7.566-3.188 1.138-2.03.694-4.993-1.216-8.125l-18.507-30.338c-.262-.43-.344-.937-.225-1.43.12-.49.424-.91.863-1.177.83-.506 2.1-.194 2.602.633l18.507 30.34c2.686 4.4 3.144 8.647 1.288 11.954zm-28.407-43.908c.36-.372.788-1.05.76-2.157l-.37-15.4c-.04-1.583-1.122-2.73-2.568-2.73-.53 0-1.073.162-1.577.47l-1.864 1.135c-.344.21-.864.166-.995-.047l-1.034-1.697c-3.238-5.318-7.626-8.127-12.688-8.127-4.97.032-9.438 2.98-12.586 8.3l-10.574 17.89c-.646 1.095-.83 2.375-.513 3.603.315 1.23 1.09 2.264 2.185 2.91.73.432 1.564.66 2.417.66 1.674 0 3.24-.893 4.09-2.334l10.578-17.89c1.32-2.232 3.028-3.626 4.454-3.635 1.488 0 3.135 1.3 4.522 3.566l1.033 1.697c.06.1.07.234.023.38-.062.206-.217.395-.433.527l-1.768 1.078c-.95.583-1.482 1.456-1.46 2.395.02.944.598 1.79 1.576 2.325l13.52 7.374c1.173.65 2.466.526 3.27-.295zm-31.852-45.174c.806-.495 1.4-1.247 1.673-2.12.29-.94.178-1.904-.314-2.708l-1.036-1.7c-1.917-3.136-4.456-4.935-6.966-4.935-2.504.017-5.02 1.85-6.904 5.034l-10.578 17.894c-.48.817-1.763 1.16-2.595.666-.435-.256-.747-.668-.87-1.162-.127-.49-.055-1.003.203-1.44l10.574-17.89c2.613-4.42 6.25-6.873 10.234-6.898 3.943 0 7.45 2.337 10.143 6.754l1.037 1.7c.582.953 1.71 1.545 2.945 1.545.7 0 1.383-.186 1.97-.545l1.676-1.02.357 14.946-13.122-7.16 1.573-.962z" fill="#0f0"/></g></svg>