<?xml version="1.0" encoding="UTF-8" standalone="no"?><svg xmlns="http://www.w3.org/2000/svg" xmlns:sodipodi="http://sodipodi.sourceforge.net/DTD/sodipodi-0.dtd" xmlns:inkscape="http://www.inkscape.org/namespaces/inkscape" width="200" height="200" version="1.1"><metadata id="metadata7"/><g inkscape:label="Layer 1" inkscape:groupmode="layer" id="layer1" transform="translate(-151.9805,-138.23176)"><g id="g3971" transform="matrix(0.60345495,0,0,0.60345495,60.267115,134.12413)"><path transform="matrix(1.2288162,0,0,1.2288162,-34.213261,-77.955268)" d="m 421.2336,203.83405 c 0,74.47856 -60.37681,134.85536 -134.85537,134.85536 -74.47855,0 -134.85536,-60.3768 -134.85536,-134.85536 0,-74.47856 60.37681,-134.855367 134.85536,-134.855367 74.47856,0 134.85537,60.376807 134.85537,134.855367 z" sodipodi:ry="134.85536" sodipodi:rx="134.85536" sodipodi:cy="203.83405" sodipodi:cx="286.37823" id="path3781" sodipodi:type="arc" fill="#ff7f2a"/><path sodipodi:nodetypes="ccccccccccccccc" transform="translate(151.9805,6.8068557)" inkscape:connector-curvature="0" id="path3969" d="m 91.216775,232.90032 c 0,0 69.480495,69.48049 97.050405,97.0504 30.74353,-4.82572 47.10958,-11.27089 66.82159,-24.2184 17.67363,-11.38163 31.65585,-24.43423 43.84062,-41.36575 9.06565,-11.34736 15.31343,-20.87726 21.85889,-39.53657 C 279.70341,183.74514 198.01687,102.05859 198.01687,102.05859 l -12.40134,3.91606 -8.83883,-14.142131 -20.15255,-2.828428 -8.83883,8.485282 -32.17336,59.750527 -21.213205,10.96015 6.363965,7.07107 -18.738333,36.76955 z" opacity="0.5" fill="#666666"/><path inkscape:connector-curvature="0" d="m 306.28972,225.96751 h -48.71813 c -4.22011,0 -7.49809,-1.13952 -8.5419,-2.97291 -1.04381,-1.83938 -0.36189,-5.237 1.78255,-8.8709 l 13.1897,-22.30584 c 0.34694,-0.58621 1.26214,-0.83146 1.86331,-0.48452 l 2.96095,1.75863 c 0.82249,0.48452 1.70778,0.73575 2.56616,0.73575 2.43755,0 4.22608,-1.92911 4.25599,-4.582 l 0.26619,-25.53896 c 0.0179,-1.83041 -0.69687,-2.93703 -1.29504,-3.54716 -1.31299,-1.33393 -3.55016,-1.51637 -5.44337,-0.43966 l -22.26397,12.5347 c -1.60908,0.91221 -2.54522,2.32689 -2.55719,3.8941 -0.0149,1.55824 0.88829,2.99385 2.48242,3.93597 l 3.11947,1.84536 c 0.31404,0.18843 0.53835,0.48153 0.62808,0.83445 0.0897,0.34694 0.0389,0.70884 -0.14655,1.02587 l -13.19568,22.30883 c -5.25196,8.88286 -5.9249,17.65206 -1.90518,24.7075 4.01972,7.04348 11.9126,10.92861 22.23705,10.92861 h 48.71813 c 4.34573,0 7.88391,-3.53819 7.88391,-7.8869 -0.006,-4.34572 -3.54117,-7.88092 -7.8869,-7.88092 z m 0,11.0303 0,0 -48.71813,0 c -8.54788,0 -14.98421,-3.03573 -18.12462,-8.5419 -3.14638,-5.50618 -2.48241,-12.58854 1.86929,-19.94306 l 13.19568,-22.31183 c 0.82847,-1.40271 1.06474,-3.04469 0.655,-4.61789 -0.40676,-1.57618 -1.40272,-2.89814 -2.79945,-3.72661 l -2.80244,-1.65993 21.60897,-12.16682 -0.2602,24.78826 -2.64093,-1.56422 c -0.88829,-0.52041 -1.92312,-0.79557 -2.99684,-0.79557 -2.21922,0 -4.26796,1.12456 -5.34766,2.94001 l -13.19568,22.31781 c -3.09554,5.24597 -3.75951,10.20781 -1.81844,13.62337 1.95004,3.41257 6.56493,5.36561 12.65732,5.36561 h 48.71813 c 1.7347,0 3.14938,1.41467 3.14938,3.14638 -0.003,1.73171 -1.41468,3.14639 -3.14938,3.14639 z m 91.64596,-30.7969 0,0 -30.69222,-50.30927 c -1.40271,-2.30296 -4.02271,-3.7326 -6.83711,-3.7326 -1.4386,0 -2.82337,0.38582 -3.99877,1.10662 -1.8005,1.09765 -3.06264,2.83235 -3.55613,4.88408 -0.49349,2.04874 -0.16151,4.16029 0.93315,5.95181 l 30.6922,50.30927 c 2.18333,3.58007 2.92507,6.91488 1.9321,8.68846 -0.99297,1.77059 -4.22011,2.86524 -8.41927,2.86524 h -9.52291 c -0.74771,0 -1.35785,-0.61014 -1.35785,-1.35785 v -3.4365 c 0,-2.64392 -1.82442,-4.63583 -4.24403,-4.63583 -0.84342,0 -1.72273,0.24824 -2.53924,0.72079 l -22.11741,12.77098 c -1.6031,0.93016 -2.52428,2.35381 -2.52428,3.91803 0,1.56123 0.92118,2.98787 2.52428,3.91204 l 22.11741,12.77098 c 0.87034,0.50546 1.75265,0.76267 2.62598,0.76267 2.41063,0 4.15729,-1.965 4.15729,-4.67172 v -3.61895 c 0,-0.74771 0.61014,-1.35785 1.35785,-1.35785 h 9.52291 c 10.34538,0 18.22032,-3.88214 22.16527,-10.92262 3.95691,-7.04946 3.16732,-15.78876 -2.21922,-24.61778 z m -1.90817,22.29388 c -3.07461,5.48225 -9.47804,8.50302 -18.03788,8.50302 h -9.52291 c -3.36172,0 -6.09537,2.73364 -6.09537,6.09537 v 3.24808 l -21.4654,-12.40011 21.4654,-12.40011 v 3.06563 c 0,3.36173 2.73365,6.09537 6.09537,6.09537 h 9.52291 c 6.08939,0 10.66242,-1.9291 12.54666,-5.28784 1.88723,-3.36771 1.15148,-8.2787 -2.01584,-13.47383 l -30.69222,-50.31226 c -0.43666,-0.71183 -0.57125,-1.55226 -0.37386,-2.36876 0.1974,-0.81352 0.70286,-1.51039 1.42964,-1.95303 1.37878,-0.84044 3.48435,-0.32302 4.31581,1.04979 l 30.69221,50.31226 c 4.4534,7.30069 5.21307,14.34118 2.13548,19.82642 z m -45.85288,-87.49465 c 0.59817,-0.61612 1.307,-1.74068 1.25915,-3.57707 l -0.61313,-25.53896 c -0.0658,-2.62299 -1.86031,-4.52517 -4.25898,-4.52517 -0.87632,0 -1.77956,0.26917 -2.61402,0.77762 l -3.09255,1.88424 c -0.56826,0.34694 -1.42963,0.27516 -1.64796,-0.0778 l -1.71376,-2.8144 c -5.37159,-8.820051 -12.64835,-13.479811 -21.0437,-13.479811 -8.23982,0.0538 -15.65118,4.9409 -20.87322,13.763941 l -17.53542,29.66934 c -1.07073,1.81546 -1.37579,3.93897 -0.8494,5.97574 0.5234,2.03977 1.80648,3.75353 3.62492,4.82725 1.20831,0.71482 2.59308,1.09167 4.00775,1.09167 2.77552,0 5.37458,-1.48048 6.78328,-3.87018 l 17.5414,-29.66934 c 2.18931,-3.69969 5.02165,-6.01163 7.38742,-6.02658 2.46746,0 5.19812,2.15641 7.49809,5.91293 l 1.71377,2.8144 c 0.10169,0.16749 0.11664,0.38881 0.0389,0.63107 -0.10169,0.34096 -0.35891,0.655 -0.71781,0.87333 l -2.93104,1.78854 c -1.57619,0.96605 -2.45849,2.41362 -2.4226,3.97186 0.0359,1.56422 0.99296,2.96993 2.61401,3.85522 l 22.41949,12.22963 c 1.94706,1.07671 4.0915,0.87333 5.42543,-0.48751 z m -22.63484,-17.3111 c 1.33692,-0.8195 2.3239,-2.06669 2.77552,-3.51426 0.48153,-1.56123 0.2961,-3.15835 -0.52041,-4.49228 l -1.71675,-2.82038 c -3.17929,-5.19811 -7.39042,-8.18299 -11.5537,-8.18299 -4.15131,0.0299 -8.32357,3.06862 -11.44902,8.35048 l -17.5414,29.67532 c -0.79856,1.35486 -2.92506,1.92313 -4.30384,1.10363 -0.7208,-0.4247 -1.23822,-1.10662 -1.44459,-1.92611 -0.20936,-0.81352 -0.0897,-1.66292 0.33797,-2.38671 l 17.53542,-29.67233 c 4.33375,-7.32761 10.36333,-11.395181 16.97313,-11.437061 6.53802,0 12.35226,3.876161 16.8206,11.200781 l 1.71676,2.82038 c 0.96605,1.57918 2.83833,2.56018 4.88407,2.56018 1.16046,0 2.29399,-0.30806 3.26902,-0.90324 l 2.7785,-1.68984 0.5922,24.78527 -21.76151,-11.87671 2.60803,-1.59413 z" id="path3956" fill="#00ff00"/></g></g></svg>