<svg xmlns="http://www.w3.org/2000/svg" width="200" height="200"><g><path d="M199.79 99.928c0 55.19-44.74 99.928-99.928 99.928-55.188 0-99.928-44.74-99.928-99.928C-.066 44.738 44.674 0 99.862 0c55.19 0 99.928 44.74 99.928 99.928z" fill="#55d400"/><path d="M54.352 134.342l45.677 45.678c.8 7.31 1.267 12.79 1.808 19.9 14.592-.526 26.19-3.217 37.733-8.337 15.33-6.665 21.804-11.82 30.683-20.802 7.893-7.84 16.72-19.197 22.204-33.404l-92.202-92.202-.528 57.662-7.085 2.713z" opacity=".5" fill="#666"/><g><g><path d="M100.346 99.9c8.334 26.61 6.506 77.687 6.506 100.007 0 0-4.337.127-6.506.105-2.154-.022-6.457-.238-6.457-.238s-1.93-73.125 6.456-99.873z" fill="#999"/><path d="M100.346 103.388v.105s-2.12 18.015-2.59 27.067c-1.192 23.102-.545 69.396-.545 69.396l-1.853-.107s-.795-49.985 1.462-74.83c.66-7.277 3.526-21.632 3.526-21.632z" fill="#f2f2f2"/></g><g><path d="M100.346 44.81c6.352 14.223 4.626 41.916 2.907 42.906-2.907 1.672-.773 7.315-.773 10.206h-4.286s2.152-8.524-1.104-10.21c-2.053-1.06-2.244-30.665 3.256-42.9z" fill="#808080"/><path d="M100.346 44.957v.89s-2.133 8.114-2.546 12.25c-.532 5.33-1.236 13.203-.93 19.837.1 2.102-.078 5.867.89 8.572.387 1.084 1.684 1.745 1.903 2.882.526 2.734-.38 8.345-.38 8.345l-.636-.018s.733-5.175.505-7.755c-.092-1.042-1.716-2.17-2.148-3.454-.904-2.684-.704-6.26-.79-8.46-.258-6.666.354-14.65 1.036-19.988.57-4.45 3.096-13.1 3.096-13.1z" fill="#ececec"/></g><g><path d="M54.824 134.34c15.156-3.597 36.102-21.797 35.843-23.763-.438-3.325 5.34-5.06 7.637-6.816l-2.604-3.403s-5.463 6.89-8.78 5.326c-2.09-.985-25.72 16.853-32.096 28.657z" fill="#808080"/><path d="M54.94 134.25l.707-.54s5.148-6.624 8.183-9.466c3.91-3.66 9.735-9.005 15.19-12.792 1.73-1.2 4.612-3.628 7.348-4.503 1.097-.352 2.41.277 3.446-.24 2.49-1.244 6.398-5.372 6.398-5.372l-.4-.495s-3.666 3.727-5.854 5.113c-.884.56-2.765-.045-4.05.393-2.68.912-5.4 3.244-7.196 4.512-5.453 3.846-11.423 9.184-15.248 12.97-3.19 3.156-8.525 10.42-8.525 10.42z" fill="#ececec"/></g><g><path d="M145.492 135.523c-15.156-3.597-36.102-21.797-35.843-23.763.437-3.325-5.342-5.06-7.638-6.816l2.604-3.404s5.463 6.89 8.78 5.326c2.09-.985 25.72 16.853 32.096 28.657z" fill="#808080"/><path d="M145.377 135.434l-.708-.542s-5.15-6.623-8.184-9.465c-3.91-3.66-9.735-9.005-15.19-12.792-1.73-1.2-4.612-3.628-7.348-4.503-1.097-.35-2.41.278-3.446-.24-2.49-1.243-6.398-5.37-6.398-5.37l.4-.496s3.666 3.727 5.854 5.113c.884.56 2.765-.046 4.05.392 2.68.913 5.4 3.245 7.196 4.513 5.453 3.846 11.423 9.184 15.248 12.97 3.19 3.156 8.525 10.42 8.525 10.42z" fill="#ececec"/></g><g><path d="M107.322 102.426c0 3.694-2.994 6.688-6.688 6.688-3.694 0-6.688-2.994-6.688-6.688 0-3.693 2.994-6.688 6.688-6.688 3.694 0 6.688 2.995 6.688 6.688z" fill="#666"/><path d="M102.744 102.427c0 1.095-.888 1.984-1.984 1.984s-1.984-.888-1.984-1.983c0-1.096.888-1.984 1.984-1.984s1.984.888 1.984 1.984z" fill="#ccc"/><path d="M96.138 99.676c-1.737 3.26.71 7.88-.246 6.903-1.17-1.198-2.607-3.987-.87-7.247 1.736-3.26 6.06-3.503 7.388-3.18 1.28.31-4.535.264-6.272 3.523z" fill="#e6e6e6"/><path d="M99.364 101.702c-.303.52.24 1.122-.07 1.866-.673-.658-.627-1.458-.3-2.077.305-.578 1.237-1.176 1.763-.863-.202.505-1.14.64-1.393 1.075z" fill="#fff"/></g></g></g></svg>