<?xml version="1.0" encoding="UTF-8" standalone="no"?><svg xmlns="http://www.w3.org/2000/svg" xmlns:sodipodi="http://sodipodi.sourceforge.net/DTD/sodipodi-0.dtd" xmlns:inkscape="http://www.inkscape.org/namespaces/inkscape" width="200" height="200" version="1.1"><metadata id="metadata7"/><g inkscape:label="Layer 1" inkscape:groupmode="layer" id="layer1" transform="translate(-151.9805,-138.23176)"><g id="g2990" transform="matrix(0.60345495,0,0,0.60345495,60.267115,134.12413)"><path transform="matrix(1.2288162,0,0,1.2288162,-34.213261,-77.955268)" d="m 421.2336,203.83405 c 0,74.47856 -60.37681,134.85536 -134.85537,134.85536 -74.47855,0 -134.85536,-60.3768 -134.85536,-134.85536 0,-74.47856 60.37681,-134.855367 134.85536,-134.855367 74.47856,0 134.85537,60.376807 134.85537,134.855367 z" sodipodi:ry="134.85536" sodipodi:rx="134.85536" sodipodi:cy="203.83405" sodipodi:cx="286.37823" id="path3781" sodipodi:type="arc" fill="#0088aa"/><path sodipodi:nodetypes="ccccsccc" transform="translate(151.9805,6.8068557)" inkscape:connector-curvature="0" id="path4413" d="m 76.279146,148.31267 42.162454,42.16245 0.50702,10.87056 c 0,0 88.32645,88.32645 115.22526,115.22526 18.85787,-6.81439 42.28625,-25.56578 56.22604,-41.81873 14.61298,-17.03786 23.47925,-30.93874 33.66104,-58.3214 -21.91948,-21.91948 -68.86565,-68.86565 -68.86565,-68.86565 z" opacity="0.5" fill="#666666"/><g transform="translate(-433.56055,-86.440927)" id="g4403"><path d="m 703.8951,250.48102 101.82337,0 c 0,0 0.54388,30.23111 0,44.20134 -14.06318,10.0297 -32.60007,10.06314 -49.53086,10.04627 -17.88389,-0.0178 -39.08904,-0.11603 -52.29251,-10.71602 -0.11743,-13.24773 0,-43.53159 0,-43.53159 z" id="rect4400" inkscape:connector-curvature="0" sodipodi:nodetypes="cccacc" fill="#1a1a1a"/><path d="m 757.26391,275.41608 83.4386,-34.64824 -86.97414,-27.57716 -91.92388,28.28427 z" id="path4396" inkscape:connector-curvature="0" fill="#333333"/></g></g></g></svg>