<?xml version="1.0" encoding="UTF-8" standalone="no"?><svg xmlns="http://www.w3.org/2000/svg" xmlns:sodipodi="http://sodipodi.sourceforge.net/DTD/sodipodi-0.dtd" xmlns:inkscape="http://www.inkscape.org/namespaces/inkscape" width="200" height="200" version="1.1"><defs id="defs4"><pattern patternUnits="userSpaceOnUse" width="25" height="25" patternTransform="translate(927.9805,276.34857)" id="pattern5445"><path transform="matrix(0.34246576,0,0,0.34246576,-205.82192,-36.48689)" d="m 674,143.04172 a 36.5,36.5 0 1 1 -73,0 36.5,36.5 0 1 1 73,0 z" sodipodi:ry="36.5" sodipodi:rx="36.5" sodipodi:cy="143.04172" sodipodi:cx="637.5" id="path3999" sodipodi:type="arc" fill="#6c5d53"/></pattern><pattern patternUnits="userSpaceOnUse" width="2.694914" height="2.694914" patternTransform="translate(952.98053,318.65366)" id="pattern5466"><rect height="2.694914" width="2.694914" id="rect5462" fill="#c8ab37"/><path transform="matrix(0.215625,0,0,0.215625,-172.63976,-59.081116)" d="m 809.54887,280.80679 a 2.6516504,2.6516504 0 1 1 -5.3033,0 2.6516504,2.6516504 0 1 1 5.3033,0 z" sodipodi:ry="2.6516504" sodipodi:rx="2.6516504" sodipodi:cy="280.80679" sodipodi:cx="806.89722" id="path5464" sodipodi:type="arc" fill="#28170b"/></pattern></defs><metadata id="metadata7"/><g inkscape:label="Layer 1" inkscape:groupmode="layer" id="layer1" transform="translate(-151.98049,-138.29017)"><g id="g3251" transform="matrix(0.60345495,0,0,0.60345495,60.267113,134.14729)"><path transform="matrix(1.2288162,0,0,1.2288162,-34.213266,-77.896863)" d="m 421.2336,203.83405 c 0,74.47856 -60.37681,134.85536 -134.85537,134.85536 -74.47855,0 -134.85536,-60.3768 -134.85536,-134.85536 0,-74.47856 60.37681,-134.855367 134.85536,-134.855367 74.47856,0 134.85537,60.376807 134.85537,134.855367 z" sodipodi:ry="134.85536" sodipodi:rx="134.85536" sodipodi:cy="203.83405" sodipodi:cx="286.37823" id="path3781" sodipodi:type="arc" fill="#aa00d4"/><g id="g3864"><path d="m 254.8089,182.97561 -47.21742,12.65758 -82.13488,-82.13487 -25.3941,23.1059 42.79711,42.79711 1.31355,27.50105 c 0,0 79.22369,79.22368 103.20184,103.20184 11.99983,-6.85961 16.80538,-10.43987 24.3125,-16.8125 8.58032,-7.28366 16.21129,-15.26808 23.3125,-24 6.92313,-8.51296 12.5331,-16.89463 18.1875,-27.9375 -21.59636,-21.59636 -58.3786,-58.37861 -58.3786,-58.37861 z" id="path3862" inkscape:connector-curvature="0" transform="translate(151.9805,6.8068557)" sodipodi:nodetypes="ccccccccccc" opacity="0.5" fill="#666666"/><g id="g3066" transform="matrix(0.74714035,0,0,0.74714035,-159.68472,-6.6942417)"><path transform="matrix(1.1621621,0,0,1.1621621,79.38065,43.982949)" d="m 440.52752,122.06133 c 0,10.83705 -8.78517,19.62222 -19.62222,19.62222 -10.83705,0 -19.62221,-8.78517 -19.62221,-19.62222 0,-10.83705 8.78516,-19.62221 19.62221,-19.62221 10.83705,0 19.62222,8.78516 19.62222,19.62221 z" sodipodi:ry="19.622213" sodipodi:rx="19.622213" sodipodi:cy="122.06133" sodipodi:cx="420.9053" id="path3010" sodipodi:type="arc" fill="#ffcc00"/><g id="g3032"><g id="g3022"><path inkscape:connector-curvature="0" id="path3014" d="m 610.07142,295.03829 65.76093,47.7297 -0.35355,-58.33631 -67.88225,-38.89087 z" fill="#217821"/><path inkscape:connector-curvature="0" id="path3012" d="m 675.76984,342.76799 72.12489,-25.8094 -0.35355,-53.38656 -72.47845,19.44543 z" fill="#2ca02c"/></g><g id="g3026" transform="translate(2.5,-1)"><path inkscape:connector-curvature="0" id="path3016" d="m 666.62808,287.99649 44.90128,-54.80077 -76.01398,-16.97056 -33.94113,32.52691 z" fill="#dee3db"/><path inkscape:connector-curvature="0" id="path3018" d="M 666.66772,287.85057 755.76317,264.1625 711.21545,233.75691 z" fill="#9dac93"/></g><path d="m 665.41004,275.25669 27.22361,-29.69849 -29.69848,-10.25304 -24.04163,26.16295 z" id="path3020" inkscape:connector-curvature="0" fill="#0088aa"/><path inkscape:connector-curvature="0" id="path3030" d="m 636.76845,258.75669 21.43157,-23.3799 -23.37989,-8.07163 -18.92659,20.59658 z" fill="#0088aa"/></g><path inkscape:connector-curvature="0" id="path3042" d="m 581.79096,207.72011 29.87908,35.75693" fill="none" stroke="#000000" stroke-width="1.550664"/><path inkscape:connector-curvature="0" id="path3044" d="m 593.15813,195.37594 18.14474,8.94528" fill="none" stroke="#000000"/><path d="m 594.9478,174.91982 19.5654,-5.14248" id="path3046" inkscape:connector-curvature="0" fill="none" stroke="#000000"/><path inkscape:connector-curvature="0" id="path3048" d="m 562.65522,213.7339 0.15056,20.22936" fill="none" stroke="#000000"/><path inkscape:connector-curvature="0" id="path3054" d="m 534.36283,220.77895 14.73534,-13.86074" fill="none" stroke="#000000"/><path d="m 535.93421,144.86336 15.59258,19.97043" id="path3056" inkscape:connector-curvature="0" fill="none" stroke="#000000" stroke-width="0.837157"/><path inkscape:connector-curvature="0" id="path3062" d="m 574.46045,157.07685 5.5401,-19.45654" fill="none" stroke="#000000"/><path d="m 540.34466,186.72135 -20.22832,0.25446" id="path3064" inkscape:connector-curvature="0" fill="none" stroke="#000000"/></g></g></g></g></svg>