<?xml version="1.0" encoding="UTF-8" standalone="no"?>
<!-- Created with Inkscape (http://www.inkscape.org/) -->

<svg
   xmlns:dc="http://purl.org/dc/elements/1.1/"
   xmlns:cc="http://creativecommons.org/ns#"
   xmlns:rdf="http://www.w3.org/1999/02/22-rdf-syntax-ns#"
   xmlns:svg="http://www.w3.org/2000/svg"
   xmlns="http://www.w3.org/2000/svg"
   xmlns:sodipodi="http://sodipodi.sourceforge.net/DTD/sodipodi-0.dtd"
   xmlns:inkscape="http://www.inkscape.org/namespaces/inkscape"
   width="200"
   height="200"
   id="svg2"
   version="1.1"
   inkscape:version="0.48.4 r9939"
   sodipodi:docname="informational-technology.svg">
  <defs
     id="defs4" />
  <sodipodi:namedview
     id="base"
     pagecolor="#ffffff"
     bordercolor="#666666"
     borderopacity="1.0"
     inkscape:pageopacity="0.0"
     inkscape:pageshadow="2"
     inkscape:zoom="1.4142136"
     inkscape:cx="229.36552"
     inkscape:cy="99.929301"
     inkscape:document-units="px"
     inkscape:current-layer="layer1"
     showgrid="false"
     showguides="true"
     inkscape:guide-bbox="true"
     inkscape:window-width="1680"
     inkscape:window-height="995"
     inkscape:window-x="0"
     inkscape:window-y="30"
     inkscape:window-maximized="1"
     fit-margin-top="0"
     fit-margin-left="0"
     fit-margin-right="0"
     fit-margin-bottom="0" />
  <metadata
     id="metadata7">
    <rdf:RDF>
      <cc:Work
         rdf:about="">
        <dc:format>image/svg+xml</dc:format>
        <dc:type
           rdf:resource="http://purl.org/dc/dcmitype/StillImage" />
        <dc:title />
      </cc:Work>
    </rdf:RDF>
  </metadata>
  <g
     inkscape:label="Layer 1"
     inkscape:groupmode="layer"
     id="layer1"
     transform="translate(-151.98049,-138.29017)">
    <g
       id="g3868"
       transform="matrix(0.60345495,0,0,0.60345495,60.267113,134.14729)">
      <g
         id="g3857">
        <path
           sodipodi:type="arc"
           style="fill:#55d400;fill-opacity:1;stroke:none"
           id="path3781"
           sodipodi:cx="286.37823"
           sodipodi:cy="203.83405"
           sodipodi:rx="134.85536"
           sodipodi:ry="134.85536"
           d="m 421.2336,203.83405 c 0,74.47856 -60.37681,134.85536 -134.85537,134.85536 -74.47855,0 -134.85536,-60.3768 -134.85536,-134.85536 0,-74.47856 60.37681,-134.855367 134.85536,-134.855367 74.47856,0 134.85537,60.376807 134.85537,134.855367 z"
           transform="matrix(1.2288162,0,0,1.2288162,-34.213266,-77.896863)" />
        <path
           style="opacity:0.5;fill:#666666;stroke:none"
           d="m 242.84372,249.60668 c 0,0 59.82078,59.82078 88.29276,88.29275 33.40388,-3.70902 53.41885,-11.45019 75.40245,-25.53702 21.19376,-13.58071 38.11356,-30.2655 51.44202,-51.6188 12.35823,-19.7989 21.07773,-42.66191 24.17421,-68.10322 C 451.32049,161.80572 384.97218,95.4574 384.97218,95.4574 z"
           id="path3835"
           inkscape:connector-curvature="0"
           sodipodi:nodetypes="ccccccc" />
        <g
           id="g3825"
           transform="matrix(0.86421099,0,0,0.86421099,-197.52208,-81.939302)">
          <path
             transform="translate(151.9805,6.8068557)"
             inkscape:connector-curvature="0"
             id="path3823"
             d="m 359.21024,373.96812 171.82694,0 -2.12132,-11.3137 -7.77818,-57.98276 0,-103.94469 -154.85638,0.7071 1.41422,104.6518 -9.19239,56.56855 z"
             style="fill:#d7eef4;stroke:none" />
          <g
             style="fill:#24221c"
             transform="matrix(0.72077367,0,0,0.72077367,88.469226,190.0283)"
             id="g3819">
            <g
               style="fill:#24221c"
               id="g3796"
               transform="matrix(4.4316282,0,0,4.4316282,562.56835,3.1449941)">
              <path
                 style="fill:#24221c"
                 inkscape:connector-curvature="0"
                 d="M 59.449,56.108 59.412,55.845 V 54.87 H 59.277 L 56.798,37.221 V 4.285 H 7.199 V 37.222 L 4.723,54.871 H 4.658 v 0.458 l -0.107,0.779 h 0.107 v 3.606 h 54.754 v -3.606 h 0.037 z M 35.855,54.656 H 25.843 v -2.182 h 10.013 v 2.182 z M 49.989,48.244 H 44.76 l -0.394,-4.398 h 5.132 l 0.491,4.398 z m -7.598,-10.247 0.388,4.397 h -5.678 l -0.145,-4.397 h 5.435 z m -6.888,0 0.147,4.397 h -6.244 l 0.147,-4.397 h 5.95 z m -7.549,4.398 h -6.016 l 0.394,-4.397 h 5.773 l -0.151,4.397 z m -7.473,0 h -5.404 l 0.488,-4.397 h 5.306 l -0.39,4.397 z m -5.567,1.451 h 5.438 l -0.39,4.398 h -5.537 l 0.489,-4.398 z m 6.898,0 h 6.096 l -0.151,4.398 h -6.338 l 0.393,-4.398 z m 7.549,0 h 6.338 l 0.147,4.398 H 29.21 l 0.151,-4.398 z m 7.939,4.398 -0.147,-4.398 h 5.758 l 0.391,4.398 H 37.3 z m 12.038,-5.849 h -5.101 l -0.39,-4.397 h 4.999 l 0.492,4.397 z M 14.266,36.544 H 8.652 v -3.193 h 46.692 v 3.193 H 50.145 14.266 z M 55.345,31.897 H 8.652 v -21.79 h 46.692 v 21.79 z m 0,-26.159 V 8.654 H 8.652 V 5.738 H 55.345 z M 8.561,37.997 h 5.545 l -1.306,11.7 h 38.814 l -1.306,-11.7 h 5.131 l 2.338,16.659 H 37.31 V 51.023 H 24.393 v 3.633 H 6.222 L 8.561,37.997 z M 57.959,58.262 H 6.112 v -1.938 h 51.847 v 1.938 z"
                 id="path3798" />
            </g>
          </g>
        </g>
        <g
           id="g3800"
           transform="matrix(4.4316282,0,0,4.4316282,182.1449,72.441458)">
          <circle
             d="m 31.533,7.1409998 c 0,0.4340958 -0.351904,0.786 -0.786,0.786 -0.434096,0 -0.786,-0.3519042 -0.786,-0.786 0,-0.4340958 0.351904,-0.786 0.786,-0.786 0.434096,0 0.786,0.3519042 0.786,0.786 z"
             style="fill:#020202"
             sodipodi:ry="0.78600001"
             sodipodi:rx="0.78600001"
             sodipodi:cy="7.1409998"
             sodipodi:cx="30.747"
             cx="30.747"
             cy="7.1409998"
             r="0.78600001"
             id="circle3802" />
        </g>
      </g>
    </g>
  </g>
</svg>
