<?xml version="1.0" encoding="UTF-8" standalone="no"?>
<!-- Created with Inkscape (http://www.inkscape.org/) -->

<svg
   xmlns:dc="http://purl.org/dc/elements/1.1/"
   xmlns:cc="http://creativecommons.org/ns#"
   xmlns:rdf="http://www.w3.org/1999/02/22-rdf-syntax-ns#"
   xmlns:svg="http://www.w3.org/2000/svg"
   xmlns="http://www.w3.org/2000/svg"
   xmlns:sodipodi="http://sodipodi.sourceforge.net/DTD/sodipodi-0.dtd"
   xmlns:inkscape="http://www.inkscape.org/namespaces/inkscape"
   width="200"
   height="200"
   id="svg2"
   version="1.1"
   inkscape:version="0.48.4 r9939"
   sodipodi:docname="nuclear-power.svg">
  <defs
     id="defs4" />
  <sodipodi:namedview
     id="base"
     pagecolor="#ffffff"
     bordercolor="#666666"
     borderopacity="1.0"
     inkscape:pageopacity="0.0"
     inkscape:pageshadow="2"
     inkscape:zoom="1"
     inkscape:cx="-6.2014796"
     inkscape:cy="198.26049"
     inkscape:document-units="px"
     inkscape:current-layer="layer1"
     showgrid="false"
     showguides="true"
     inkscape:guide-bbox="true"
     inkscape:window-width="1680"
     inkscape:window-height="995"
     inkscape:window-x="0"
     inkscape:window-y="30"
     inkscape:window-maximized="1"
     fit-margin-top="0"
     fit-margin-left="0"
     fit-margin-right="0"
     fit-margin-bottom="0" />
  <metadata
     id="metadata7">
    <rdf:RDF>
      <cc:Work
         rdf:about="">
        <dc:format>image/svg+xml</dc:format>
        <dc:type
           rdf:resource="http://purl.org/dc/dcmitype/StillImage" />
        <dc:title />
      </cc:Work>
    </rdf:RDF>
  </metadata>
  <g
     inkscape:label="Layer 1"
     inkscape:groupmode="layer"
     id="layer1"
     transform="translate(-151.9805,-138.23176)">
    <g
       id="g4210"
       transform="matrix(0.60345495,0,0,0.60345495,60.267115,134.12413)">
      <g
         style="fill:#ffcc00"
         id="g4054">
        <g
           id="g3971"
           style="fill:#ffcc00">
          <path
             transform="matrix(1.2288162,0,0,1.2288162,-34.213261,-77.955268)"
             d="m 421.2336,203.83405 c 0,74.47856 -60.37681,134.85536 -134.85537,134.85536 -74.47855,0 -134.85536,-60.3768 -134.85536,-134.85536 0,-74.47856 60.37681,-134.855367 134.85536,-134.855367 74.47856,0 134.85537,60.376807 134.85537,134.855367 z"
             sodipodi:ry="134.85536"
             sodipodi:rx="134.85536"
             sodipodi:cy="203.83405"
             sodipodi:cx="286.37823"
             id="path3781"
             style="fill:#ffcc00;fill-opacity:1;stroke:none"
             sodipodi:type="arc" />
        </g>
        <g
           id="g4042"
           transform="translate(-316,36)"
           style="fill:#ffcc00">
          <g
             style="opacity:0.8;fill:#ffcc00"
             transform="matrix(2.8303356,0,0,2.8303356,693.57306,-21.96385)"
             id="g3996" />
        </g>
      </g>
      <path
         sodipodi:nodetypes="ccccccccccc"
         transform="translate(151.9805,6.8068557)"
         inkscape:connector-curvature="0"
         id="path4208"
         d="m 121.62236,243.15337 c 0,0 56.53853,56.53853 83.4386,83.4386 26.68322,-6.55081 41.32907,-14.75548 58.15954,-26.87006 17.97679,-12.9397 30.77728,-26.06253 42.42641,-44.90128 11.61984,-18.79137 20.17854,-39.66586 23.9232,-65.34902 -34.97083,-34.97083 -108.75,-108.750002 -108.75,-108.750002 l -39.87615,54.876152 -57.25,-57.25 -52.071593,81.57159 62.250003,62.25 z"
         style="opacity:0.5;fill:#666666;stroke:none" />
      <g
         transform="translate(-3.4039553,-6.3766847)"
         id="g4194">
        <path
           id="path4166"
           d="m 302.64244,172.39774 c 0,10.17021 8.27843,18.44864 18.45237,18.44864 10.17394,0 18.45237,-8.27471 18.45237,-18.44864 0,-10.17394 -8.27843,-18.45237 -18.45237,-18.45237 -10.17394,0 -18.45237,8.27843 -18.45237,18.45237 z m 18.45237,-12.01359 c 6.62125,0 12.01359,5.38861 12.01359,12.01731 0,6.62498 -5.39234,12.01359 -12.01359,12.01359 -6.62498,0 -12.01359,-5.39234 -12.01359,-12.01359 0,-6.6287 5.39234,-12.01731 12.01359,-12.01731 z m 19.99782,36.31262 c -1.67579,-2.89727 -5.57853,-3.96978 -8.6471,-2.38708 -5.6046,2.91961 -12.25565,3.54524 -18.28106,1.77634 -3.10954,-0.9161 -6.74042,0.44688 -8.33802,3.1356 l -29.42324,49.50671 c -0.89748,1.50822 -1.13209,3.32925 -0.64052,4.98643 0.48412,1.646 1.646,3.02387 3.18773,3.78729 13.16431,6.53188 27.34153,9.84623 42.14439,9.84623 16.25894,0 32.30933,-4.17832 46.40091,-12.09179 1.49332,-0.8379 2.56583,-2.21578 3.02015,-3.87295 0.45433,-1.6609 0.21599,-3.46704 -0.64052,-4.95663 l -28.78272,-49.73015 z m -19.99782,64.21647 c -13.79738,0 -27.01754,-3.08719 -39.16147,-8.89289 l 29.42324,-49.50671 c 0.0521,-0.0894 0.30909,-0.24951 0.84534,-0.24951 0.0521,0 0.10428,0.004 0.16014,0.007 7.52618,2.2046 15.97219,1.46353 23.15948,-2.34612 l 28.81996,49.72271 c -13.13079,7.36977 -28.08633,11.26507 -43.24669,11.26507 z M 374.95487,94.182793 c -2.85258,-1.977438 -7.07186,-1.091128 -8.9562,1.832203 L 334.9555,144.30769 c -1.82848,2.84512 -1.15444,6.63615 1.57152,8.82958 5.11676,4.10383 8.34174,9.9356 9.08654,16.41162 0.39101,3.45958 3.22497,6.06637 6.59518,6.06637 h 57.40157 c 1.73538,0 3.4149,-0.71128 4.61402,-1.95509 1.20285,-1.24381 1.82848,-2.87492 1.76517,-4.5954 -1.02782,-29.8664 -16.36693,-57.85962 -41.03463,-74.881977 z m -22.74985,74.997417 c -0.0447,-0.0112 -0.17503,-0.14151 -0.2011,-0.3575 -0.93844,-8.17788 -5.00504,-15.52904 -11.45127,-20.70538 -0.14896,-0.11917 -0.19737,-0.28303 -0.18992,-0.32399 l 30.93518,-48.307586 c 22.99563,15.867916 37.29575,41.961906 38.31613,69.694456 h -57.40902 z m -55.62523,0.37612 c 0.83045,-7.22454 4.79277,-13.68566 10.8815,-17.72991 2.97174,-1.97371 3.89529,-5.72005 2.14129,-8.70669 L 280.51822,93.575783 c -1.74282,-2.971743 -5.92114,-4.0517 -8.85937,-2.264185 -27.36759,16.716992 -44.36016,45.786442 -45.45501,77.756892 -0.0596,1.71676 0.56605,3.35159 1.76517,4.5954 1.1954,1.23637 2.87492,1.95137 4.61402,1.95137 h 57.39785 c 3.37021,0 6.20417,-2.60679 6.59891,-6.05893 z M 274.96203,96.834274 303.8937,146.46388 c -7.67141,5.09441 -12.66901,13.2425 -13.71172,22.35883 -0.0261,0.21227 -0.15641,0.34261 -0.2011,0.35378 l -57.34944,0.11544 c 1.02783,-29.80309 16.86595,-56.90255 42.33059,-72.457656 z"
           inkscape:connector-curvature="0"
           style="fill:#000000" />
        <path
           style="fill:#000000;stroke:#000000;stroke-width:1px;stroke-linecap:butt;stroke-linejoin:miter;stroke-opacity:1"
           d="m 141.42136,164.66452 4.94974,-16.97057 9.19239,-8.48528 -32.52691,-53.033006 -26.162951,21.213206 -14.142136,26.16295 -5.656854,28.28427 4.242641,4.24264 z"
           id="path4188"
           inkscape:connector-curvature="0"
           transform="translate(151.9805,6.8068557)" />
        <path
           inkscape:connector-curvature="0"
           id="path4190"
           d="m 335.07356,147.4377 12.04819,12.93606 2.58694,12.23959 62.20804,-0.81119 -4.83924,-33.33289 -15.24264,-25.53745 -21.40692,-19.332457 -5.81603,1.474373 z"
           style="fill:#000000;stroke:#000000;stroke-width:1px;stroke-linecap:butt;stroke-linejoin:miter;stroke-opacity:1" />
        <path
           style="fill:#000000;stroke:#000000;stroke-width:1px;stroke-linecap:butt;stroke-linejoin:miter;stroke-opacity:1"
           d="m 337.99883,197.34059 -17.23977,3.91033 -11.88068,-3.91784 -30.5767,54.18084 31.24628,12.57655 29.73864,-0.33571 27.47438,-8.78399 1.64981,-5.76872 z"
           id="path4192"
           inkscape:connector-curvature="0" />
      </g>
    </g>
  </g>
</svg>
