<?xml version="1.0" encoding="UTF-8" standalone="no"?>
<!-- Created with Inkscape (http://www.inkscape.org/) -->

<svg
   xmlns:dc="http://purl.org/dc/elements/1.1/"
   xmlns:cc="http://creativecommons.org/ns#"
   xmlns:rdf="http://www.w3.org/1999/02/22-rdf-syntax-ns#"
   xmlns:svg="http://www.w3.org/2000/svg"
   xmlns="http://www.w3.org/2000/svg"
   xmlns:sodipodi="http://sodipodi.sourceforge.net/DTD/sodipodi-0.dtd"
   xmlns:inkscape="http://www.inkscape.org/namespaces/inkscape"
   width="200"
   height="200"
   id="svg2"
   version="1.1"
   inkscape:version="0.48.4 r9939"
   sodipodi:docname="static-electricity.svg">
  <defs
     id="defs4" />
  <sodipodi:namedview
     id="base"
     pagecolor="#ffffff"
     bordercolor="#666666"
     borderopacity="1.0"
     inkscape:pageopacity="0.0"
     inkscape:pageshadow="2"
     inkscape:zoom="1.4142136"
     inkscape:cx="216.01462"
     inkscape:cy="168.1159"
     inkscape:document-units="px"
     inkscape:current-layer="layer1"
     showgrid="false"
     showguides="true"
     inkscape:guide-bbox="true"
     inkscape:window-width="1680"
     inkscape:window-height="995"
     inkscape:window-x="0"
     inkscape:window-y="30"
     inkscape:window-maximized="1"
     fit-margin-top="0"
     fit-margin-left="0"
     fit-margin-right="0"
     fit-margin-bottom="0" />
  <metadata
     id="metadata7">
    <rdf:RDF>
      <cc:Work
         rdf:about="">
        <dc:format>image/svg+xml</dc:format>
        <dc:type
           rdf:resource="http://purl.org/dc/dcmitype/StillImage" />
        <dc:title />
      </cc:Work>
    </rdf:RDF>
  </metadata>
  <g
     inkscape:label="Layer 1"
     inkscape:groupmode="layer"
     id="layer1"
     transform="translate(-151.9805,-138.304)">
    <g
       id="g3338"
       transform="matrix(0.60345495,0,0,0.60332346,60.267115,134.19726)">
      <g
         style="fill:#3737c8"
         id="g4054">
        <g
           id="g3971"
           style="fill:#3737c8">
          <path
             transform="matrix(1.2288162,0,0,1.2288162,-34.213261,-77.955268)"
             d="m 421.2336,203.83405 c 0,74.47856 -60.37681,134.85536 -134.85537,134.85536 -74.47855,0 -134.85536,-60.3768 -134.85536,-134.85536 0,-74.47856 60.37681,-134.855367 134.85536,-134.855367 74.47856,0 134.85537,60.376807 134.85537,134.855367 z"
             sodipodi:ry="134.85536"
             sodipodi:rx="134.85536"
             sodipodi:cy="203.83405"
             sodipodi:cx="286.37823"
             id="path3781"
             style="fill:#3737c8;fill-opacity:1;stroke:none"
             sodipodi:type="arc" />
        </g>
        <g
           id="g4042"
           transform="translate(-316,36)"
           style="fill:#3737c8">
          <g
             style="opacity:0.8;fill:#3737c8"
             transform="matrix(2.8303356,0,0,2.8303356,693.57306,-21.96385)"
             id="g3996" />
        </g>
      </g>
      <path
         sodipodi:nodetypes="cccccccccccc"
         transform="translate(151.9805,6.8068557)"
         inkscape:connector-curvature="0"
         id="path3815"
         d="m 65.805124,265.73659 c 0,0 41.805826,41.80583 61.518286,61.51829 27.31407,5.33632 45.56781,5.13665 63.94898,2.16552 26.47085,-4.27875 44.79315,-11.39609 67.17514,-26.16295 19.20262,-12.66922 36.00412,-31.37831 48.43682,-50.73491 10.34853,-16.11175 17.45469,-35.39149 21.56675,-54.09367 3.2442,-14.75504 3.41516,-29.8052 2.47487,-45.07806 -0.33823,-8.70216 -0.47367,-15.26149 -3.97747,-26.07456 -19.13881,-19.13882 -61.4299,-61.429906 -61.4299,-61.429906 l -112.78354,100.232386 34.64824,21.2132 z"
         style="opacity:0.5;fill:#666666;stroke:none" />
      <g
         style="fill:#ffcc00"
         transform="matrix(6.25,0,0,6.25,217.69295,72.519309)"
         id="g3006">
        <g
           style="fill:#ffcc00"
           id="Layer_1" />
        <g
           style="fill:#ffcc00"
           id="bolt">
          <polygon
             style="fill:#ffcc00"
             points="0,32 24,20 18,16 32,0 8,16 14,20 "
             id="polygon2998" />
        </g>
      </g>
      <g
         style="fill:#ffffff"
         id="g3810">
        <rect
           style="fill:#ffffff;fill-opacity:1;stroke:none"
           id="rect3026"
           width="3.105473"
           height="52.315277"
           x="294.53284"
           y="-183.84494"
           transform="matrix(0.55878846,0.82931023,-0.82931023,0.55878846,0,0)" />
        <rect
           transform="matrix(0.55878846,0.82931023,-0.82931023,0.55878846,0,0)"
           y="-233.90395"
           x="294.5831"
           height="52.315277"
           width="3.105473"
           id="rect3796"
           style="fill:#ffffff;fill-opacity:1;stroke:none" />
        <path
           transform="matrix(0.55878846,0.82931023,-0.82931023,0.55878846,0,0)"
           style="fill:#ffffff;fill-opacity:1;stroke:none"
           d="m 294.48361,-283.42438 c 3.04997,13.26961 3.32538,44.64104 3.10548,52.31528 l -3.10548,0 z"
           id="rect3798"
           inkscape:connector-curvature="0"
           sodipodi:nodetypes="cccc" />
      </g>
      <g
         style="fill:#ffffff"
         id="g3806">
        <rect
           transform="matrix(0.64544743,0.7638047,-0.7638047,0.64544743,0,0)"
           y="-107.49483"
           x="349.90475"
           height="52.315277"
           width="3.105473"
           id="rect3800"
           style="fill:#ffffff;fill-opacity:1;stroke:none" />
        <path
           transform="matrix(0.64544743,0.7638047,-0.7638047,0.64544743,0,0)"
           style="fill:#ffffff;fill-opacity:1;stroke:none"
           d="m 349.86929,-66.096626 3.10548,0 c 0.0398,9.020579 0.36476,38.294089 -3.10548,52.315277 z"
           id="rect3802"
           inkscape:connector-curvature="0"
           sodipodi:nodetypes="cccc" />
      </g>
    </g>
  </g>
</svg>
