<?xml version="1.0" encoding="UTF-8" standalone="no"?><svg xmlns="http://www.w3.org/2000/svg" xmlns:sodipodi="http://sodipodi.sourceforge.net/DTD/sodipodi-0.dtd" xmlns:inkscape="http://www.inkscape.org/namespaces/inkscape" width="200" height="200" version="1.1"><metadata id="metadata7"/><g inkscape:label="Layer 1" inkscape:groupmode="layer" id="layer1" transform="translate(-151.98049,-138.29017)"><g id="g3958" transform="matrix(0.60345495,0,0,0.60345495,60.267113,134.14729)"><path transform="matrix(1.2288162,0,0,1.2288162,-34.213266,-77.896863)" d="m 421.2336,203.83405 c 0,74.47856 -60.37681,134.85536 -134.85537,134.85536 -74.47855,0 -134.85536,-60.3768 -134.85536,-134.85536 0,-74.47856 60.37681,-134.855367 134.85536,-134.855367 74.47856,0 134.85537,60.376807 134.85537,134.855367 z" sodipodi:ry="134.85536" sodipodi:rx="134.85536" sodipodi:cy="203.83405" sodipodi:cx="286.37823" id="path3781" sodipodi:type="arc" fill="#ff6600"/><path sodipodi:nodetypes="cccccccccc" transform="translate(151.9805,6.8068557)" inkscape:connector-curvature="0" id="path3956" d="m 95.680386,237.6291 14.495684,14.49569 -2.07712,4.64038 c 0,0 50.45509,50.45509 73.80741,73.80741 23.25464,-1.85443 47.30428,-10.18634 67.60062,-21.80289 17.68519,-10.12207 32.76966,-23.23869 45.46194,-39.18008 9.75448,-12.25154 16.87773,-23.89074 23.14886,-38.24075 5.38763,-12.32832 10.32376,-27.98581 11.70648,-42.68376 -29.10118,-29.10118 -92.2707,-92.270697 -92.2707,-92.270697 z" opacity="0.5" fill="#666666"/><g transform="matrix(0.66074753,0,0,0.66074753,-150.09176,62.336568)" id="g3941"><rect id="rect3921" width="26.87006" height="56.56854" x="620.7923" y="247.83888"/><rect y="247.83888" x="769.28473" height="56.56854" width="26.87006" id="rect3923"/><path d="m 602.40753,61.86982 c 62.52082,-45.550254 158.0965,-41.307613 214.25336,0 25.04416,69.59188 0,214.25336 0,214.25336 l -214.25336,0 c 0,0 -32.11523,-146.7828 0,-214.25336 z" id="rect3918" inkscape:connector-curvature="0" sodipodi:nodetypes="ccccc" fill="#ffcc00"/><rect id="rect3927" width="208.59651" height="101.11627" x="604.52881" y="76.71906" fill="#ffffff" rx="18.384777"/><rect y="50.556114" x="632.81305" height="18.384779" width="151.32086" id="rect3929" fill="#ffffff" rx="3.342687"/><path sodipodi:type="arc" id="path3931" sodipodi:cx="489.67145" sodipodi:cy="232.19322" sodipodi:rx="17.324116" sodipodi:ry="17.324116" d="m 506.99556,232.19322 c 0,9.56785 -7.75627,17.32412 -17.32411,17.32412 -9.56785,0 -17.32412,-7.75627 -17.32412,-17.32412 0,-9.56784 7.75627,-17.32411 17.32412,-17.32411 9.56784,0 17.32411,7.75627 17.32411,17.32411 z" transform="translate(157.63735,6.0997489)" fill="#ffffff"/><path transform="translate(278.55261,6.8068557)" d="m 506.99556,232.19322 c 0,9.56785 -7.75627,17.32412 -17.32411,17.32412 -9.56785,0 -17.32412,-7.75627 -17.32412,-17.32412 0,-9.56784 7.75627,-17.32411 17.32412,-17.32411 9.56784,0 17.32411,7.75627 17.32411,17.32411 z" sodipodi:ry="17.324116" sodipodi:rx="17.324116" sodipodi:cy="232.19322" sodipodi:cx="489.67145" id="path3933" sodipodi:type="arc" fill="#ffffff"/></g></g></g></svg>