<svg xmlns="http://www.w3.org/2000/svg" width="350" height="350"><g transform="matrix(1.056 0 0 1.056 -160.499 -7.188)"><path d="M483.405 172.52c0 91.52-74.192 165.712-165.712 165.712S151.98 264.04 151.98 172.52C151.98 81 226.172 6.806 317.693 6.806c91.52 0 165.712 74.192 165.712 165.712z" fill="#00d4aa"/><path d="M287.313 293.016l44.625 44.625c21.253-1.845 40.227-7.37 57.302-15.68 19.267-9.376 32.79-19.46 47.972-34.58 10.513-10.47 19.468-22.34 27.84-39.01L343.96 127.276l-7.07 41.366-40.836-40.835z" opacity=".5" fill="#666"/><g><path d="M305.693 239.35h27l-.03 98.186s-8.96.798-13.464.688c-4.534.14-13.507-.375-13.507-.375z" fill="#b3b3b3"/><path d="M310.193 255.35h8.5v82.882l-3.934-.007-4.567-.17z" fill="#ececec"/></g><rect ry="4.773" y="284.255" x="285.447" height="9.546" width="66.114" fill="#e3dbdb"/><rect ry="18.292" y="186.164" x="276.693" height="81.369" width="82" fill="#e3dbdb"/><path fill="#e3dbdb" d="M285.524 206.98h66.23v81.368h-66.23z"/><g transform="matrix(.631 0 0 .631 -276.479 76.19)"><rect y="78.599" x="970.481" height="99.5" width="16" ry="8" fill="#666"/><rect width="7.25" height="99.5" x="972.981" y="79.849" ry="3.625" fill="#e3e2db"/></g><g transform="matrix(.631 0 0 .631 -324.576 76.348)"><rect ry="8" width="16" height="99.5" x="970.481" y="78.599" fill="#666"/><rect ry="3.625" y="79.849" x="972.981" height="99.5" width="7.25" fill="#e3e2db"/></g><path fill="#e3dbdb" d="M276.7 182.89h81.954v65.09H276.7z"/><rect ry="0" y="185.533" x="279.531" height="64.654" width="6.308" fill="#f2f2f2"/><rect width="6.308" height="26.957" x="288.563" y="264.707" ry="0" fill="#f2f2f2"/><path d="M279.53 250.18h6.302s.578 4.964 1.765 7.09c1.694 3.033 7.286 7.448 7.286 7.448l-6.29-.012s-4.578-3.92-6.14-6.443c-1.508-2.436-2.924-8.083-2.924-8.083z" fill="#f2f2f2"/></g></svg>